<svg xmlns="http://www.w3.org/2000/svg" viewBox="0 0 918.08 705.38"><defs><style>.cls-1{isolation:isolate;}.cls-2{fill:#be901c;}.cls-3{fill:#0075c4;}.cls-4,.cls-7{opacity:0.2;mix-blend-mode:luminosity;}.cls-5{fill:#b08148;}.cls-6{fill:#f1b724;}</style></defs><title>Game Logo</title><g class="cls-1"><g id="final2"><g id="Perspective_Text" data-name="Perspective Text"><path class="cls-2" d="M250.08,331l-6.29.5v41.7l-5.74-.44V332l-5.78.47V319.87l17.81-2.31Z"/><path class="cls-2" d="M273.28,360.9v14.59l-17.69-1.37V316.85l17.35-2.25v14.57l-10.79.86v8.26l9.17-.46v13.46l-9.17,0v9.25Z"/><path class="cls-2" d="M303.1,377.8V342.45l-5.28,24.62-4.48-.21-5-23.95v33.75l-7.81-.61V313.61l8.55-1.11,6.46,30,6.77-31.71,9.81-1.27v69Z"/><path class="cls-2" d="M323.08,379.34V308.1l16.3-2.11a7,7,0,0,1,5.43,1.59,16.74,16.74,0,0,1,4.4,5.5,33.61,33.61,0,0,1,2.93,8.28,43.72,43.72,0,0,1,1.08,9.68,48.94,48.94,0,0,1-1,10,37.43,37.43,0,0,1-2.82,8.62,17.92,17.92,0,0,1-4.31,5.91,7.91,7.91,0,0,1-5.41,2.11l-6.37-.09v22.53Zm10.21-39.29,5.64-.21c.67,0,1.29-.62,1.88-1.8s.87-3.3.87-6.33-.34-5.19-1-6.27-1.34-1.58-2-1.53l-5.36.43Z"/><path class="cls-2" d="M364.25,382.53V302.76l12.84-1.66v62.69l23.2.65v20.89Z"/><path class="cls-2" d="M458.82,366.07v23.79l-45.32-3.51v-90l44.43-5.76v23.75l-28,2.24v13.15l23.73-1.21v21.87l-23.73.12v14.73Z"/><path class="cls-3" d="M250.08,331l-6.29.5v41.7l-5.74-.44V332l-5.78.47V319.87l17.81-2.31Z"/><path class="cls-3" d="M273.28,360.9v14.59l-17.69-1.37V316.85l17.35-2.25v14.57l-10.79.86v8.26l9.17-.46v13.46l-9.17,0v9.25Z"/><path class="cls-3" d="M303.1,377.8V342.45l-5.28,24.62-4.48-.21-5-23.95v33.75l-7.81-.61V313.61l8.55-1.11,6.46,30,6.77-31.71,9.81-1.27v69Z"/><path class="cls-3" d="M323.08,379.34V308.1l16.3-2.11a7,7,0,0,1,5.43,1.59,16.74,16.74,0,0,1,4.4,5.5,33.61,33.61,0,0,1,2.93,8.28,43.72,43.72,0,0,1,1.08,9.68,48.94,48.94,0,0,1-1,10,37.43,37.43,0,0,1-2.82,8.62,17.92,17.92,0,0,1-4.31,5.91,7.91,7.91,0,0,1-5.41,2.11l-6.37-.09v22.53Zm10.21-39.29,5.64-.21c.67,0,1.29-.62,1.88-1.8s.87-3.3.87-6.33-.34-5.19-1-6.27-1.34-1.58-2-1.53l-5.36.43Z"/><path class="cls-3" d="M364.25,382.53V302.76l12.84-1.66v62.69l23.2.65v20.89Z"/><path class="cls-3" d="M458.82,366.07v23.79l-45.32-3.51v-90l44.43-5.76v23.75l-28,2.24v13.15l23.73-1.21v21.87l-23.73.12v14.73Z"/><g class="cls-4"><path d="M250.08,331l-6.29.5v41.7l-5.74-.44V332l-5.78.47V319.87l17.81-2.31Z"/><path d="M273.28,360.9v14.59l-17.69-1.37V316.85l17.35-2.25v14.57l-10.79.86v8.26l9.17-.46v13.46l-9.17,0v9.25Z"/><path d="M303.1,377.8V342.45l-5.28,24.62-4.48-.21-5-23.95v33.75l-7.81-.61V313.61l8.55-1.11,6.46,30,6.77-31.71,9.81-1.27v69Z"/><path d="M323.08,379.34V308.1l16.3-2.11a7,7,0,0,1,5.43,1.59,16.74,16.74,0,0,1,4.4,5.5,33.61,33.61,0,0,1,2.93,8.28,43.72,43.72,0,0,1,1.08,9.68,48.94,48.94,0,0,1-1,10,37.43,37.43,0,0,1-2.82,8.62,17.92,17.92,0,0,1-4.31,5.91,7.91,7.91,0,0,1-5.41,2.11l-6.37-.09v22.53Zm10.21-39.29,5.64-.21c.67,0,1.29-.62,1.88-1.8s.87-3.3.87-6.33-.34-5.19-1-6.27-1.34-1.58-2-1.53l-5.36.43Z"/><path d="M364.25,382.53V302.76l12.84-1.66v62.69l23.2.65v20.89Z"/><path d="M458.82,366.07v23.79l-45.32-3.51v-90l44.43-5.76v23.75l-28,2.24v13.15l23.73-1.21v21.87l-23.73.12v14.73Z"/></g></g><g id="Perspective_Text-2" data-name="Perspective Text"><path d="M518.46,380.92a23.83,23.83,0,0,1-6.05,4,20.2,20.2,0,0,1-6.95,1.79,19.38,19.38,0,0,1-12.21-3,32.56,32.56,0,0,1-9.86-10.08,54.63,54.63,0,0,1-6.61-15.27,68.39,68.39,0,0,1-2.4-18.13,65.13,65.13,0,0,1,2.49-18.13,50,50,0,0,1,6.83-14.82,29.85,29.85,0,0,1,10-9.33,19.18,19.18,0,0,1,12.06-2.25,21.23,21.23,0,0,1,11.54,5.4,38.91,38.91,0,0,1,8.46,11A58.45,58.45,0,0,1,531,326.41a70,70,0,0,1,1.81,15.87,66.25,66.25,0,0,1-1.67,15,53.78,53.78,0,0,1-4.81,13.12l7.75,13.48-13.24,1Zm-12.84-16.08a7.92,7.92,0,0,0,3-.58l-9.53-16.17,14.64.15,3,5.33a36.07,36.07,0,0,0,1.22-5.9,49.48,49.48,0,0,0,.38-6.25,47.19,47.19,0,0,0-.76-8.57,29.8,29.8,0,0,0-2.34-7.46,16.84,16.84,0,0,0-4-5.44,9.57,9.57,0,0,0-5.7-2.39,8.33,8.33,0,0,0-5.94,1.63,15.08,15.08,0,0,0-4.23,5.24,28.29,28.29,0,0,0-2.5,7.65,48.43,48.43,0,0,0,0,18,29.58,29.58,0,0,0,2.55,7.71,14.8,14.8,0,0,0,4.23,5.27A9,9,0,0,0,505.62,364.84Z"/><path d="M571,363.12a4.39,4.39,0,0,0,3.34-1.69,12.67,12.67,0,0,0,2.22-4.23,31.78,31.78,0,0,0,1.24-6,61.43,61.43,0,0,0,.39-7.05V305.76l10.59,1.37v37.3a94.19,94.19,0,0,1-1,14.16,47.17,47.17,0,0,1-3.16,11.59,23.37,23.37,0,0,1-5.51,8,13.25,13.25,0,0,1-8.11,3.47,12.09,12.09,0,0,1-8.67-2.45,21.68,21.68,0,0,1-6.17-8.11,46.65,46.65,0,0,1-3.63-12.39,95.41,95.41,0,0,1-1.16-15.2V302.27l12.2,1.59v40a61.1,61.1,0,0,0,.43,7.4,30.92,30.92,0,0,0,1.32,6.22,11.76,11.76,0,0,0,2.3,4.19A4.24,4.24,0,0,0,571,363.12Z"/><path d="M627.13,361.25v15.47l-22.69,1.75V309.18l22.32,2.9v15.48l-13.19-1.06V336l11.33.59v14.47L613.57,351v10.64Z"/><path d="M654.62,335a25.07,25.07,0,0,0-2.18-2.81,17.54,17.54,0,0,0-2.15-2.05,4.29,4.29,0,0,0-2.36-1.08,1.74,1.74,0,0,0-1.52.56,3.44,3.44,0,0,0-.57,2.26,5.17,5.17,0,0,0,.33,2,5.07,5.07,0,0,0,1,1.47,10.15,10.15,0,0,0,1.52,1.32c.59.42,1.25.94,2,1.54a21.73,21.73,0,0,1,3.13,2.9,14.89,14.89,0,0,1,2.34,3.6,19.84,19.84,0,0,1,1.47,4.93,40.67,40.67,0,0,1,.51,7,41.19,41.19,0,0,1-.8,8.85,19.75,19.75,0,0,1-2.13,5.85,9.63,9.63,0,0,1-3,3.33,7.58,7.58,0,0,1-3.49,1.25,9,9,0,0,1-2.93-.28,13.49,13.49,0,0,1-3.05-1.24,18.54,18.54,0,0,1-5.67-4.87l3.26-15.08a26.54,26.54,0,0,0,2.77,3.35,15.2,15.2,0,0,0,2.71,2.26,5.11,5.11,0,0,0,3,.94,1.77,1.77,0,0,0,1.6-.76,3.56,3.56,0,0,0,.45-1.9,4.67,4.67,0,0,0-.45-2.14,5,5,0,0,0-1.24-1.55,17.25,17.25,0,0,0-1.84-1.35c-.69-.45-1.44-1-2.23-1.62a19.21,19.21,0,0,1-3-3,15.44,15.44,0,0,1-2.14-3.7,21.07,21.07,0,0,1-1.25-4.72,40.53,40.53,0,0,1-.41-6.07,43.82,43.82,0,0,1,.83-9.05,22.29,22.29,0,0,1,2.25-6.31,10,10,0,0,1,3.19-3.55,5.46,5.46,0,0,1,3.7-.84,7,7,0,0,1,2.73,1,16,16,0,0,1,2.53,1.91,23.61,23.61,0,0,1,2.24,2.35q1,1.23,1.86,2.31Z"/><path d="M683.92,332.16l-5.83-.47v41.1l-5.84.45v-42l-6.42-.51V317.16l18.09,2.35Z"/><path class="cls-3" d="M518.46,380.92a23.83,23.83,0,0,1-6.05,4,20.2,20.2,0,0,1-6.95,1.79,19.38,19.38,0,0,1-12.21-3,32.56,32.56,0,0,1-9.86-10.08,54.63,54.63,0,0,1-6.61-15.27,68.39,68.39,0,0,1-2.4-18.13,65.13,65.13,0,0,1,2.49-18.13,50,50,0,0,1,6.83-14.82,29.85,29.85,0,0,1,10-9.33,19.18,19.18,0,0,1,12.06-2.25,21.23,21.23,0,0,1,11.54,5.4,38.91,38.91,0,0,1,8.46,11A58.45,58.45,0,0,1,531,326.41a70,70,0,0,1,1.81,15.87,66.25,66.25,0,0,1-1.67,15,53.78,53.78,0,0,1-4.81,13.12l7.75,13.48-13.24,1Zm-12.84-16.08a7.92,7.92,0,0,0,3-.58l-9.53-16.17,14.64.15,3,5.33a36.07,36.07,0,0,0,1.22-5.9,49.48,49.48,0,0,0,.38-6.25,47.19,47.19,0,0,0-.76-8.57,29.8,29.8,0,0,0-2.34-7.46,16.84,16.84,0,0,0-4-5.44,9.57,9.57,0,0,0-5.7-2.39,8.33,8.33,0,0,0-5.94,1.63,15.08,15.08,0,0,0-4.23,5.24,28.29,28.29,0,0,0-2.5,7.65,48.43,48.43,0,0,0,0,18,29.58,29.58,0,0,0,2.55,7.71,14.8,14.8,0,0,0,4.23,5.27A9,9,0,0,0,505.62,364.84Z"/><path class="cls-3" d="M571,363.12a4.39,4.39,0,0,0,3.34-1.69,12.67,12.67,0,0,0,2.22-4.23,31.78,31.78,0,0,0,1.24-6,61.43,61.43,0,0,0,.39-7.05V305.76l10.59,1.37v37.3a94.19,94.19,0,0,1-1,14.16,47.17,47.17,0,0,1-3.16,11.59,23.37,23.37,0,0,1-5.51,8,13.25,13.25,0,0,1-8.11,3.47,12.09,12.09,0,0,1-8.67-2.45,21.68,21.68,0,0,1-6.17-8.11,46.65,46.65,0,0,1-3.63-12.39,95.41,95.41,0,0,1-1.16-15.2V302.27l12.2,1.59v40a61.1,61.1,0,0,0,.43,7.4,30.92,30.92,0,0,0,1.32,6.22,11.76,11.76,0,0,0,2.3,4.19A4.24,4.24,0,0,0,571,363.12Z"/><path class="cls-3" d="M627.13,361.25v15.47l-22.69,1.75V309.18l22.32,2.9v15.48l-13.19-1.06V336l11.33.59v14.47L613.57,351v10.64Z"/><path class="cls-3" d="M654.62,335a25.07,25.07,0,0,0-2.18-2.81,17.54,17.54,0,0,0-2.15-2.05,4.29,4.29,0,0,0-2.36-1.08,1.74,1.74,0,0,0-1.52.56,3.44,3.44,0,0,0-.57,2.26,5.17,5.17,0,0,0,.33,2,5.07,5.07,0,0,0,1,1.47,10.15,10.15,0,0,0,1.52,1.32c.59.42,1.25.94,2,1.54a21.73,21.73,0,0,1,3.13,2.9,14.89,14.89,0,0,1,2.34,3.6,19.84,19.84,0,0,1,1.47,4.93,40.67,40.67,0,0,1,.51,7,41.19,41.19,0,0,1-.8,8.85,19.75,19.75,0,0,1-2.13,5.85,9.63,9.63,0,0,1-3,3.33,7.58,7.58,0,0,1-3.49,1.25,9,9,0,0,1-2.93-.28,13.49,13.49,0,0,1-3.05-1.24,18.54,18.54,0,0,1-5.67-4.87l3.26-15.08a26.54,26.54,0,0,0,2.77,3.35,15.2,15.2,0,0,0,2.71,2.26,5.11,5.11,0,0,0,3,.94,1.77,1.77,0,0,0,1.6-.76,3.56,3.56,0,0,0,.45-1.9,4.67,4.67,0,0,0-.45-2.14,5,5,0,0,0-1.24-1.55,17.25,17.25,0,0,0-1.84-1.35c-.69-.45-1.44-1-2.23-1.62a19.21,19.21,0,0,1-3-3,15.44,15.44,0,0,1-2.14-3.7,21.07,21.07,0,0,1-1.25-4.72,40.53,40.53,0,0,1-.41-6.07,43.82,43.82,0,0,1,.83-9.05,22.29,22.29,0,0,1,2.25-6.31,10,10,0,0,1,3.19-3.55,5.46,5.46,0,0,1,3.7-.84,7,7,0,0,1,2.73,1,16,16,0,0,1,2.53,1.91,23.61,23.61,0,0,1,2.24,2.35q1,1.23,1.86,2.31Z"/><path class="cls-3" d="M683.92,332.16l-5.83-.47v41.1l-5.84.45v-42l-6.42-.51V317.16l18.09,2.35Z"/></g><polygon class="cls-5" points="459.04 124.18 459.04 154.18 478.74 162.61 459.04 154.18 459.04 184.26 479.13 191.61 479.13 162.78 498.02 170.87 498.02 198.43 531.15 210.54 531.15 185.05 545.91 191.37 545.91 215.91 559.64 220.93 559.64 197.25 559.64 173.54 459.04 124.18"/><polygon class="cls-6" points="459.04 116.2 459.04 120.8 559.64 170.87 559.64 167.23 459.04 116.2"/><polygon class="cls-5" points="372.17 166.8 358.22 173.65 358.22 220.93 372.17 215.83 372.17 191.37 412.14 174.26 386.52 185.23 386.52 210.7 420.06 198.43 420.06 170.87 459.04 154.18 459.04 124.18 372.17 166.8"/><polygon class="cls-5" points="438.73 191.61 459.04 184.18 459.04 154.18 438.73 162.88 438.73 191.61"/><g class="cls-4"><polygon points="372.17 166.8 358.22 173.65 358.22 220.93 372.17 215.83 372.17 191.37 412.14 174.26 386.52 185.23 386.52 210.7 420.06 198.43 420.06 170.87 459.04 154.18 459.04 124.18 372.17 166.8"/><polygon points="438.73 191.61 459.04 184.18 459.04 154.18 438.73 162.88 438.73 191.61"/></g><polygon class="cls-6" points="358.22 167.34 358.22 170.98 459.04 120.8 459.04 116.2 358.22 167.34"/><polygon class="cls-7" points="358.22 167.34 358.22 170.98 459.04 120.8 459.04 116.2 358.22 167.34"/><path class="cls-5" d="M240.43,403.53c0-.3,0-.58.07-.83.2-3,0-13.11-.3-25.25-2-.15-7.67-.59-9.88-.71l0,18.59s6.93.86,7.55,1.16l-.08-13-5.12-.14.15,3.14,3.8,1.12.11,5.66-5.2-.79-.25-13,8.19,1.71,0,19.21-10.92-1.69,0,2.74,11.73,2.08Z"/><path class="cls-5" d="M229,376.4l-.3-.19c-1.06-.59-4.52-.47-8.55-.07,0,4.76,0,19,.07,24.64l6.51,1.26s-.11-18,0-19.53l-4.45-.34.15,12.92,1.08-.2.22-9.64,1.94,0v13.4l-4.51-.2.28-20.46,6.56.73v22.69l1,.06s.06-15.54,0-24.8Z"/><path class="cls-5" d="M220.27,403.59c0,.28,0,.54-.05.77-.17,2.77,0,12.09.25,23.34,1.71.5,6.95,2,9.11,2.6V411.77s-6.54-1.24-7.09-1.56l.07,12.25,4.72.89-.14-3.09-3.53-1.55-.1-5.37,4.87,1.17.24,12.86-7.53-3,0-17.85,10.27,2-.05-2.78-11-2.1Z"/><path class="cls-5" d="M230.91,430.93a2.82,2.82,0,0,0,.3.25c1.09.84,4.79,1.55,9.37,2.13,0-5.17-.05-20.58-.08-26.73l-7.25-1.45s.12,18.48,0,20.05l4.88,1.18L238,412.58l-1.21.13-.24,10.13-2.12-.29V408.67l5,.42L239.11,431l-7.14-2.2V405.77l-1-.08s-.06,15.65,0,25Z"/><path class="cls-5" d="M266.57,408.58c0-.34.06-.65.08-.93.24-3.3,0-14.41-.36-27.77-2.38-.19-9.25-.72-11.9-.88v20.37s8.35,1.07,9.1,1.41l-.1-14.3-6.18-.22.18,3.44L262,391l.13,6.21-6.27-.95L255.56,382l9.87,2,0,21.13-13.14-2.07.05,3,14.14,2.52Z"/><path class="cls-5" d="M252.8,378.61c-.13-.07-.25-.15-.36-.2-1.27-.66-5.41-.57-10.22-.17,0,5.21.05,20.71.08,26.9l7.78,1.51S250,387,250,385.28l-5.33-.43.19,14.12,1.29-.2.26-10.53h2.32v14.65l-5.39-.3.34-22.34,7.84.87V406l1.2.09s.07-17,.05-27.16Z"/><path class="cls-5" d="M242.37,408.21c0,.31-.05.59-.07.84-.2,3,0,13.2.3,25.49,2,.59,8.31,2.42,10.89,3.13v-20.3s-7.83-1.52-8.48-1.88l.08,13.39,5.65,1.11-.18-3.39-4.22-1.79-.12-5.88,5.84,1.41.28,14.09-9-3.54,0-19.49,12.29,2.38-.06-3-13.11-2.53Z"/><path class="cls-5" d="M255.08,438.4l.37.29c1.31.95,5.76,1.85,11.3,2.64,0-5.69-.06-22.64-.1-29.41l-8.74-1.75s.13,20.28,0,22l5.88,1.44-.22-15.15-1.46.12-.29,11.11-2.55-.38,0-15.22,6.07.57-.4,24.11-8.61-2.64V410.85l-1.24-.12s-.07,17.16-.05,27.39Z"/><path class="cls-5" d="M298.52,414.74c0-.38.07-.72.09-1,.3-3.67,0-16-.44-30.87-2.94-.24-11.38-.91-14.63-1.11l0,22.53s10.25,1.35,11.16,1.74l-.11-15.87-7.59-.33.22,3.81,5.63,1.51L293,402l-7.7-1.17L285,385.11l12.13,2.3,0,23.46-16.14-2.58.07,3.33,17.36,3.11Z"/><path class="cls-5" d="M281.6,381.3l-.43-.23c-1.56-.74-6.6-.69-12.44-.3,0,5.73.06,22.8.1,29.61l9.45,1.84s-.15-21.75,0-23.6l-6.48-.54.23,15.56,1.56-.2.31-11.6,2.83,0v16.17l-6.54-.45.4-24.6,9.54,1.05v27.44l1.47.13s.09-18.81.06-30Z"/><path class="cls-5" d="M268.91,413.76c0,.34-.06.65-.08.93-.24,3.31,0,14.52.37,28.06,2.47.73,10.09,3,13.25,3.84l0-22.45s-9.53-1.88-10.32-2.29l.1,14.75,6.86,1.41-.2-3.74-5.15-2.12-.14-6.48,7.11,1.72L281,443l-11-4.21,0-21.46,15,2.94-.07-3.37-16-3.11Z"/><path class="cls-5" d="M284.4,447.46c.16.12.31.24.45.33,1.61,1.1,7.06,2.26,13.89,3.35,0-6.32-.08-25.16-.13-32.68l-10.75-2.16s.16,22.46.06,24.36l7.22,1.8-.26-16.82-1.8.08-.36,12.33-3.13-.51,0-16.87,7.46.79-.48,26.77L286,445V417l-1.52-.16s-.08,19-.05,30.29Z"/><path class="cls-5" d="M338.45,422.44c.05-.43.09-.81.12-1.15.38-4.11.05-18-.56-34.73-3.72-.3-14.34-1.16-18.4-1.43l0,25.2s12.87,1.74,14,2.21l-.15-17.84-9.55-.49.28,4.28,7.08,1.79.21,7.73-9.67-1.46-.45-17.64,15.26,2.76,0,26.38-20.27-3.29.08,3.72,21.82,3.95Z"/><path class="cls-5" d="M317.18,384.61l-.54-.26c-1.94-.85-8.22-.84-15.46-.48,0,6.37.08,25.35.13,32.93L313,419.08s-.19-24.27-.06-26.34l-8.06-.69.28,17.32,1.94-.19.39-12.92,3.51.09,0,18-8.12-.65.5-27.36,11.85,1.29v30.65l1.84.18s.11-21,.07-33.55Z"/><path class="cls-5" d="M301.41,420.56c0,.38-.07.72-.1,1-.3,3.68,0,16.15.46,31.22,3.06.91,12.53,3.7,16.47,4.81l0-25.1s-11.87-2.39-12.85-2.87l.12,16.43L314,447.9l-.26-4.19-6.4-2.53-.18-7.23L316,436.1l.44,17.41-13.63-5.11,0-23.87,18.64,3.7-.09-3.77-19.88-3.9Z"/><path class="cls-5" d="M320.68,458.66c.21.15.39.29.56.39,2,1.31,8.87,2.84,17.49,4.35,0-7.12-.1-28.31-.16-36.77L325,423.9s.21,25.17.08,27.29l9.09,2.3-.33-18.9-2.27,0-.45,13.82-3.94-.68,0-18.91,9.41,1.11L336,460,322.63,456V424.65l-1.9-.23s-.1,21.24-.07,33.89Z"/><path class="cls-5" d="M389.79,432.34c.06-.48.11-.92.15-1.31.5-4.69.07-20.6-.73-39.7-4.84-.4-18.61-1.54-23.84-1.9l0,28.58s16.65,2.32,18.15,2.88l-.19-20.34L371,399.81l.35,4.87,9.18,2.18.26,8.82-12.51-1.9-.58-20,19.79,3.4-.06,30.12L361.19,423l.11,4.22,28.24,5.15Z"/><path class="cls-5" d="M362.25,388.81l-.7-.31c-2.49-1-10.52-1.06-19.72-.75,0,7.17.1,28.55.16,37.09l14.95,2.91s-.25-27.46-.09-29.8L346.57,397l.36,19.54,2.47-.16.5-14.58,4.48.17,0,20.4-10.35-1,.64-30.83,15.13,1.64V427l2.36.26s.14-23.82.09-38Z"/><path class="cls-5" d="M342.11,429.07c-.05.43-.09.82-.12,1.16-.38,4.13-.05,18.19.58,35.19,3.89,1.15,16,4.74,21,6.17l0-28.45s-15.19-3.12-16.44-3.7L347.3,458l10.9,2.42-.33-4.76-8.18-3.11-.23-8.17,11.32,2.75.56,19.75L344,460.5l0-26.91,23.85,4.8-.12-4.29-25.41-5Z"/><path class="cls-5" d="M366.74,472.89l.72.47c2.6,1.58,11.48,3.65,22.69,5.81,0-8.14-.12-32.36-.21-42l-17.61-3.55s.28,28.62.1,31l11.8,3-.44-21.57-3-.05-.58,15.74-5.12-.95,0-21.52,12.22,1.59-.8,34.31-17.28-5.26V434.35l-2.45-.31s-.14,24.09-.09,38.46Z"/><path class="cls-5" d="M458.24,445.54c.08-.56.16-1.07.21-1.52.67-5.45.09-24-1-46.34-6.57-.55-25.12-2.11-32.12-2.61l0,33s22.37,3.21,24.4,3.91l-.26-23.68-16.67-1.13.48,5.64,12.35,2.76.35,10.26-16.82-2.57-.78-23.17,26.67,4.34-.07,35.1-35.25-5.88.14,4.86,38,7Z"/><path class="cls-5" d="M421.17,394.29l-.93-.36c-3.31-1.17-13.93-1.4-26-1.18,0,8.21.13,32.67.21,42.45L414.11,439s-.33-31.62-.11-34.31l-13.57-1.28.48,22.42,3.25-.11.65-16.73,5.92.3,0,23.45-13.64-1.42.84-35.3,20,2.15v40l3.14.38s.18-27.48.12-43.86Z"/><path class="cls-5" d="M394.58,440.05c-.06.49-.12.93-.16,1.32-.5,4.71-.06,20.81.75,40.3,5.11,1.52,21.09,6.29,27.8,8.21l0-32.84s-20.12-4.21-21.76-4.93l.21,21.27,14.4,3.31-.44-5.49-10.82-4-.3-9.38,15,3.64.75,22.8-23-8.2.06-30.82,31.59,6.44-.16-5-33.63-6.69Z"/><path class="cls-5" d="M427.16,491.56c.36.22.68.42,1,.58,3.48,2,15.41,4.89,30.61,8.06,0-9.5-.17-37.77-.29-49.06l-23.8-4.81s.36,33.17.13,35.95l15.91,4.13-.6-25.13-4-.18-.79,18.26-6.9-1.36,0-25,16.52,2.35-1.09,39.95-23.29-7.08V447.11l-3.27-.46s-.19,27.84-.12,44.45Z"/><g class="cls-4"><path d="M240.43,403.53c0-.3,0-.58.07-.83.2-3,0-13.11-.3-25.25-2-.15-7.67-.59-9.88-.71l0,18.59s6.93.86,7.55,1.16l-.08-13-5.12-.14.15,3.14,3.8,1.12.11,5.66-5.2-.79-.25-13,8.19,1.71,0,19.21-10.92-1.69,0,2.74,11.73,2.08Z"/><path d="M229,376.4l-.3-.19c-1.06-.59-4.52-.47-8.55-.07,0,4.76,0,19,.07,24.64l6.51,1.26s-.11-18,0-19.53l-4.45-.34.15,12.92,1.08-.2.22-9.64,1.94,0v13.4l-4.51-.2.28-20.46,6.56.73v22.69l1,.06s.06-15.54,0-24.8Z"/><path d="M220.27,403.59c0,.28,0,.54-.05.77-.17,2.77,0,12.09.25,23.34,1.71.5,6.95,2,9.11,2.6V411.77s-6.54-1.24-7.09-1.56l.07,12.25,4.72.89-.14-3.09-3.53-1.55-.1-5.37,4.87,1.17.24,12.86-7.53-3,0-17.85,10.27,2-.05-2.78-11-2.1Z"/><path d="M230.91,430.93a2.82,2.82,0,0,0,.3.25c1.09.84,4.79,1.55,9.37,2.13,0-5.17-.05-20.58-.08-26.73l-7.25-1.45s.12,18.48,0,20.05l4.88,1.18L238,412.58l-1.21.13-.24,10.13-2.12-.29V408.67l5,.42L239.11,431l-7.14-2.2V405.77l-1-.08s-.06,15.65,0,25Z"/><path d="M266.57,408.58c0-.34.06-.65.08-.93.24-3.3,0-14.41-.36-27.77-2.38-.19-9.25-.72-11.9-.88v20.37s8.35,1.07,9.1,1.41l-.1-14.3-6.18-.22.18,3.44L262,391l.13,6.21-6.27-.95L255.56,382l9.87,2,0,21.13-13.14-2.07.05,3,14.14,2.52Z"/><path d="M252.8,378.61c-.13-.07-.25-.15-.36-.2-1.27-.66-5.41-.57-10.22-.17,0,5.21.05,20.71.08,26.9l7.78,1.51S250,387,250,385.28l-5.33-.43.19,14.12,1.29-.2.26-10.53h2.32v14.65l-5.39-.3.34-22.34,7.84.87V406l1.2.09s.07-17,.05-27.16Z"/><path d="M242.37,408.21c0,.31-.05.59-.07.84-.2,3,0,13.2.3,25.49,2,.59,8.31,2.42,10.89,3.13v-20.3s-7.83-1.52-8.48-1.88l.08,13.39,5.65,1.11-.18-3.39-4.22-1.79-.12-5.88,5.84,1.41.28,14.09-9-3.54,0-19.49,12.29,2.38-.06-3-13.11-2.53Z"/><path d="M255.08,438.4l.37.29c1.31.95,5.76,1.85,11.3,2.64,0-5.69-.06-22.64-.1-29.41l-8.74-1.75s.13,20.28,0,22l5.88,1.44-.22-15.15-1.46.12-.29,11.11-2.55-.38,0-15.22,6.07.57-.4,24.11-8.61-2.64V410.85l-1.24-.12s-.07,17.16-.05,27.39Z"/><path d="M298.52,414.74c0-.38.07-.72.09-1,.3-3.67,0-16-.44-30.87-2.94-.24-11.38-.91-14.63-1.11l0,22.53s10.25,1.35,11.16,1.74l-.11-15.87-7.59-.33.22,3.81,5.63,1.51L293,402l-7.7-1.17L285,385.11l12.13,2.3,0,23.46-16.14-2.58.07,3.33,17.36,3.11Z"/><path d="M281.6,381.3l-.43-.23c-1.56-.74-6.6-.69-12.44-.3,0,5.73.06,22.8.1,29.61l9.45,1.84s-.15-21.75,0-23.6l-6.48-.54.23,15.56,1.56-.2.31-11.6,2.83,0v16.17l-6.54-.45.4-24.6,9.54,1.05v27.44l1.47.13s.09-18.81.06-30Z"/><path d="M268.91,413.76c0,.34-.06.65-.08.93-.24,3.31,0,14.52.37,28.06,2.47.73,10.09,3,13.25,3.84l0-22.45s-9.53-1.88-10.32-2.29l.1,14.75,6.86,1.41-.2-3.74-5.15-2.12-.14-6.48,7.11,1.72L281,443l-11-4.21,0-21.46,15,2.94-.07-3.37-16-3.11Z"/><path d="M284.4,447.46c.16.12.31.24.45.33,1.61,1.1,7.06,2.26,13.89,3.35,0-6.32-.08-25.16-.13-32.68l-10.75-2.16s.16,22.46.06,24.36l7.22,1.8-.26-16.82-1.8.08-.36,12.33-3.13-.51,0-16.87,7.46.79-.48,26.77L286,445V417l-1.52-.16s-.08,19-.05,30.29Z"/><path d="M338.45,422.44c.05-.43.09-.81.12-1.15.38-4.11.05-18-.56-34.73-3.72-.3-14.34-1.16-18.4-1.43l0,25.2s12.87,1.74,14,2.21l-.15-17.84-9.55-.49.28,4.28,7.08,1.79.21,7.73-9.67-1.46-.45-17.64,15.26,2.76,0,26.38-20.27-3.29.08,3.72,21.82,3.95Z"/><path d="M317.18,384.61l-.54-.26c-1.94-.85-8.22-.84-15.46-.48,0,6.37.08,25.35.13,32.93L313,419.08s-.19-24.27-.06-26.34l-8.06-.69.28,17.32,1.94-.19.39-12.92,3.51.09,0,18-8.12-.65.5-27.36,11.85,1.29v30.65l1.84.18s.11-21,.07-33.55Z"/><path d="M301.41,420.56c0,.38-.07.72-.1,1-.3,3.68,0,16.15.46,31.22,3.06.91,12.53,3.7,16.47,4.81l0-25.1s-11.87-2.39-12.85-2.87l.12,16.43L314,447.9l-.26-4.19-6.4-2.53-.18-7.23L316,436.1l.44,17.41-13.63-5.11,0-23.87,18.64,3.7-.09-3.77-19.88-3.9Z"/><path d="M320.68,458.66c.21.15.39.29.56.39,2,1.31,8.87,2.84,17.49,4.35,0-7.12-.1-28.31-.16-36.77L325,423.9s.21,25.17.08,27.29l9.09,2.3-.33-18.9-2.27,0-.45,13.82-3.94-.68,0-18.91,9.41,1.11L336,460,322.63,456V424.65l-1.9-.23s-.1,21.24-.07,33.89Z"/><path d="M389.79,432.34c.06-.48.11-.92.15-1.31.5-4.69.07-20.6-.73-39.7-4.84-.4-18.61-1.54-23.84-1.9l0,28.58s16.65,2.32,18.15,2.88l-.19-20.34L371,399.81l.35,4.87,9.18,2.18.26,8.82-12.51-1.9-.58-20,19.79,3.4-.06,30.12L361.19,423l.11,4.22,28.24,5.15Z"/><path d="M362.25,388.81l-.7-.31c-2.49-1-10.52-1.06-19.72-.75,0,7.17.1,28.55.16,37.09l14.95,2.91s-.25-27.46-.09-29.8L346.57,397l.36,19.54,2.47-.16.5-14.58,4.48.17,0,20.4-10.35-1,.64-30.83,15.13,1.64V427l2.36.26s.14-23.82.09-38Z"/><path d="M342.11,429.07c-.05.43-.09.82-.12,1.16-.38,4.13-.05,18.19.58,35.19,3.89,1.15,16,4.74,21,6.17l0-28.45s-15.19-3.12-16.44-3.7L347.3,458l10.9,2.42-.33-4.76-8.18-3.11-.23-8.17,11.32,2.75.56,19.75L344,460.5l0-26.91,23.85,4.8-.12-4.29-25.41-5Z"/><path d="M366.74,472.89l.72.47c2.6,1.58,11.48,3.65,22.69,5.81,0-8.14-.12-32.36-.21-42l-17.61-3.55s.28,28.62.1,31l11.8,3-.44-21.57-3-.05-.58,15.74-5.12-.95,0-21.52,12.22,1.59-.8,34.31-17.28-5.26V434.35l-2.45-.31s-.14,24.09-.09,38.46Z"/><path d="M458.24,445.54c.08-.56.16-1.07.21-1.52.67-5.45.09-24-1-46.34-6.57-.55-25.12-2.11-32.12-2.61l0,33s22.37,3.21,24.4,3.91l-.26-23.68-16.67-1.13.48,5.64,12.35,2.76.35,10.26-16.82-2.57-.78-23.17,26.67,4.34-.07,35.1-35.25-5.88.14,4.86,38,7Z"/><path d="M421.17,394.29l-.93-.36c-3.31-1.17-13.93-1.4-26-1.18,0,8.21.13,32.67.21,42.45L414.11,439s-.33-31.62-.11-34.31l-13.57-1.28.48,22.42,3.25-.11.65-16.73,5.92.3,0,23.45-13.64-1.42.84-35.3,20,2.15v40l3.14.38s.18-27.48.12-43.86Z"/><path d="M394.58,440.05c-.06.49-.12.93-.16,1.32-.5,4.71-.06,20.81.75,40.3,5.11,1.52,21.09,6.29,27.8,8.21l0-32.84s-20.12-4.21-21.76-4.93l.21,21.27,14.4,3.31-.44-5.49-10.82-4-.3-9.38,15,3.64.75,22.8-23-8.2.06-30.82,31.59,6.44-.16-5-33.63-6.69Z"/><path d="M427.16,491.56c.36.22.68.42,1,.58,3.48,2,15.41,4.89,30.61,8.06,0-9.5-.17-37.77-.29-49.06l-23.8-4.81s.36,33.17.13,35.95l15.91,4.13-.6-25.13-4-.18-.79,18.26-6.9-1.36,0-25,16.52,2.35-1.09,39.95-23.29-7.08V447.11l-3.27-.46s-.19,27.84-.12,44.45Z"/></g><path class="cls-5" d="M347.58,239.11c0-.16,0-.31.05-.44.14-1.6,0-6.7-.22-12.8-1.42.51-5.6,2-7.24,2.59v9.67s5.11-1.77,5.56-1.81l-.06-6.65-3.76,1.49.12,1.58,2.79-.6.08,2.87-3.83,1.24-.18-6.65,6-1.6,0,9.82-8,2.65,0,1.42,8.64-2.74Z"/><path class="cls-5" d="M339.18,228.69H339c-.8,0-3.43,1.15-6.54,2.62,0,2.53,0,10,.06,13l5-1.54s-.08-9.39,0-10.22l-3.4,1.24.12,6.77.83-.46.16-5.15,1.49-.63v7l-3.46,1.4.22-10.92,5-1.66v11.85l.75-.3s.05-8.12,0-12.94Z"/><path class="cls-5" d="M332.51,245.82c0,.16,0,.3,0,.43-.13,1.52,0,6.42.19,12.28,1.33-.36,5.33-1.47,6.95-1.94v-9.65s-5,1.6-5.38,1.62l0,6.44,3.6-1.22-.11-1.56-2.69.43-.07-2.8,3.7-1.07.18,6.63-5.74,1.12v-9.46l7.8-2.46,0-1.43-8.33,2.61Z"/><path class="cls-5" d="M340.6,256.44l.23,0c.81.05,3.53-.9,6.86-2.2,0-2.64,0-10.49-.06-13.61l-5.29,1.61s.09,9.52,0,10.35l3.58-1.08-.14-7-.88.47-.17,5.28-1.55.58v-7.15l3.66-1.44-.23,11.33L341.39,255V243l-.77.29s0,8.16,0,13Z"/><path class="cls-5" d="M365.51,233.63c0-.18,0-.33.05-.47.15-1.68,0-7-.24-13.41-1.57.55-6.16,2.17-8,2.83v10.13s5.62-1.94,6.11-2l-.06-7-4.13,1.63.12,1.65,3.08-.67.09,3-4.22,1.36-.2-7,6.6-1.78,0,10.31-8.84,2.9,0,1.48,9.49-3Z"/><path class="cls-5" d="M356.27,222.84H356c-.88,0-3.76,1.25-7.17,2.85,0,2.64,0,10.51.06,13.65l5.48-1.68s-.09-9.84,0-10.7l-3.73,1.35.13,7.08.91-.49.18-5.4,1.63-.68v7.36l-3.8,1.52.24-11.43,5.49-1.83v12.41l.83-.32s.05-8.51,0-13.56Z"/><path class="cls-5" d="M349,240.88c0,.16,0,.31-.05.45-.14,1.6,0,6.71.22,12.85,1.44-.4,5.83-1.61,7.61-2.12V242s-5.44,1.74-5.9,1.77l.06,6.75,3.94-1.33-.11-1.64-3,.49-.08-2.92,4.07-1.18.19,6.94-6.3,1.25,0-9.9,8.55-2.69,0-1.49L349,240.84Z"/><path class="cls-5" d="M357.84,251.89l.25,0c.89,0,3.88-1,7.53-2.41,0-2.76,0-11-.06-14.27L359.75,237s.09,10,0,10.86l3.93-1.19-.15-7.33-1,.5-.19,5.54-1.71.63v-7.5l4-1.56-.26,11.88-5.76,1.51V237.81l-.84.33s0,8.54,0,13.61Z"/><path class="cls-5" d="M316.29,248.69c0-.15,0-.29,0-.41.12-1.45,0-6.12-.18-11.71-1.19.42-4.7,1.67-6.07,2.18v8.86s4.3-1.5,4.67-1.52l0-6.09-3.16,1.27.09,1.45,2.35-.48.07,2.63-3.22,1-.15-6.11,5-1.31,0,9L309,249.73l0,1.3,7.24-2.31Z"/><path class="cls-5" d="M309.24,238.93h-.19c-.67,0-2.88,1-5.5,2.23,0,2.32,0,9.23,0,12l4.21-1.3s-.07-8.61,0-9.37l-2.87,1.05.1,6.22.7-.41.14-4.72,1.25-.54v6.45l-2.91,1.2.18-10,4.22-1.4v10.87l.63-.25s0-7.45,0-11.87Z"/><path class="cls-5" d="M303.63,254.49c0,.14,0,.27,0,.39-.11,1.4,0,5.89.17,11.29,1.11-.31,4.48-1.25,5.85-1.65v-8.85s-4.18,1.36-4.53,1.37l0,5.92,3-1-.09-1.44-2.27.35-.06-2.57,3.12-.91.15,6.08-4.84.92v-8.69l6.56-2.08,0-1.31-7,2.2Z"/><path class="cls-5" d="M310.44,264.4l.19,0c.68.06,3-.75,5.75-1.88,0-2.41,0-9.59-.05-12.45l-4.43,1.35s.07,8.72,0,9.49l3-.92-.11-6.41-.73.41-.15,4.83-1.3.5v-6.56l3.07-1.23-.19,10.37-4.4,1.14V252.12l-.64.25s0,7.48,0,11.91Z"/><path class="cls-5" d="M331.24,244.12c0-.16,0-.31.05-.43.13-1.52,0-6.4-.2-12.23-1.3.46-5.12,1.82-6.62,2.37v9.24s4.69-1.62,5.09-1.65l-.05-6.36-3.44,1.38.11,1.51,2.56-.53.07,2.74-3.51,1.14-.17-6.38,5.49-1.44v9.39l-7.36,2.43,0,1.36,7.9-2.51Z"/><path class="cls-5" d="M323.56,234h-.21c-.73,0-3.14,1-6,2.42,0,2.42,0,9.62.06,12.49l4.57-1.41s-.07-9,0-9.77l-3.13,1.13.12,6.48.76-.43.15-4.92,1.36-.59v6.73l-3.17,1.3.2-10.45,4.59-1.53v11.34l.69-.27s0-7.77,0-12.38Z"/><path class="cls-5" d="M317.45,250.34c0,.15,0,.29,0,.41-.13,1.46,0,6.14.18,11.76,1.21-.33,4.87-1.35,6.36-1.78V251.5S319.4,253,319,253l.05,6.17,3.3-1.13-.1-1.5-2.47.39-.07-2.68,3.4-1,.16,6.35-5.26,1v-9.05l7.14-2.26,0-1.37-7.63,2.39Z"/><path class="cls-5" d="M324.86,260.6l.21,0c.75.05,3.23-.82,6.27-2,0-2.52,0-10,0-13l-4.83,1.47s.08,9.11,0,9.91l3.26-1-.12-6.69-.8.44-.16,5-1.42.53v-6.84l3.35-1.33L330.37,258l-4.78,1.25V247.77l-.71.27s0,7.8,0,12.43Z"/><path class="cls-5" d="M385.27,227.58c0-.18,0-.35.05-.5.17-1.76,0-7.38-.26-14.09-1.73.61-6.8,2.4-8.78,3.13v10.63s6.2-2.13,6.74-2.19l-.07-7.32L378.4,219l.14,1.73,3.39-.75.1,3.15-4.65,1.51-.22-7.32,7.28-2,0,10.83-9.75,3.19,0,1.56,10.47-3.31Z"/><path class="cls-5" d="M375.08,216.4h-.27c-1,0-4.15,1.38-7.9,3.11,0,2.78,0,11,.07,14.32l6-1.85s-.1-10.32,0-11.23l-4.11,1.48.15,7.43,1-.53.19-5.66,1.8-.75v7.72l-4.18,1.66.26-12,6.05-2v13l.91-.35s.05-8.93,0-14.24Z"/><path class="cls-5" d="M367,235.45c0,.18,0,.34,0,.48-.16,1.68,0,7,.24,13.48,1.59-.44,6.42-1.77,8.38-2.34V236.46s-6,1.91-6.5,1.95l.06,7.07L373.5,244l-.13-1.72-3.25.56-.09-3.07,4.48-1.3.22,7.28-7,1.4,0-10.38,9.42-3,0-1.56-10.07,3.13Z"/><path class="cls-5" d="M376.8,246.88l.28,0c1,0,4.28-1.1,8.31-2.63,0-2.91,0-11.56-.07-15l-6.41,1.95s.1,10.48,0,11.4l4.33-1.3-.16-7.71-1.07.54-.21,5.83-1.88.68v-7.87l4.44-1.71-.28,12.49-6.35,1.67V232.09l-.93.35s-.05,9,0,14.3Z"/><path class="cls-5" d="M407.15,220.88c0-.19.05-.37.06-.52.2-1.87,0-7.78-.28-14.85-1.93.67-7.55,2.66-9.75,3.46v11.19s6.88-2.35,7.48-2.42L404.6,210l-5.06,2,.15,1.82,3.76-.86.11,3.32-5.16,1.67-.24-7.7,8.08-2.23,0,11.41L395.4,223l.05,1.64,11.6-3.67Z"/><path class="cls-5" d="M395.85,209.29h-.3c-1.07.07-4.58,1.53-8.73,3.43,0,2.91,0,11.59.07,15.05l6.67-2.05s-.11-10.85,0-11.81L389,215.55l.16,7.81,1.11-.58.22-5.95,2-.82v8.12L387.83,226l.29-12.62,6.69-2.23v13.71l1-.38s.06-9.41,0-15Z"/><path class="cls-5" d="M387,229.48c0,.18,0,.35-.06.49-.17,1.77,0,7.41.27,14.17,1.76-.48,7.1-1.95,9.27-2.58V230.39s-6.63,2.11-7.19,2.16l.07,7.44,4.81-1.59-.15-1.8-3.59.63-.1-3.22,5-1.44.24,7.66-7.68,1.58,0-10.92,10.43-3.26-.05-1.66L387,229.44Z"/><path class="cls-5" d="M397.76,241.34l.31,0c1.09,0,4.75-1.22,9.23-2.9,0-3.06-.05-12.17-.09-15.8l-7.11,2.16s.12,11,0,12l4.81-1.43-.18-8.12-1.18.59-.24,6.14-2.09.75v-8.3l4.94-1.87-.32,13.17-7.05,1.85V225.75l-1,.39s-.05,9.45,0,15.05Z"/><path class="cls-5" d="M431.53,213.42c0-.21.06-.39.07-.56.22-2,0-8.22-.32-15.69-2.14.76-8.42,3-10.87,3.86v11.81s7.67-2.61,8.34-2.7l-.08-8.15L423,204.17l.16,1.92,4.2-1,.12,3.51-5.75,1.85-.27-8.12,9-2.52,0,12.06-12.07,3.93.06,1.73,12.94-4.09Z"/><path class="cls-5" d="M418.93,201.4h-.33c-1.2.1-5.11,1.71-9.72,3.79,0,3.07.05,12.22.08,15.86l7.42-2.27s-.12-11.45-.05-12.47l-5.06,1.81.18,8.24,1.23-.63.25-6.29,2.2-.9v8.57l-5.14,2,.33-13.3,7.44-2.49v14.47l1.13-.42s.06-9.93,0-15.82Z"/><path class="cls-5" d="M409,222.85c0,.19,0,.37-.06.52-.19,1.87,0,7.81.29,14.93,2-.53,7.91-2.16,10.32-2.86V223.65s-7.38,2.34-8,2.4l.07,7.84,5.36-1.75-.16-1.9-4,.73-.11-3.4,5.52-1.6.27,8.08L410,235.83l0-11.51,11.6-3.62-.05-1.74-12.4,3.84Z"/><path class="cls-5" d="M421.06,235.19h.34c1.21,0,5.29-1.35,10.29-3.2,0-3.24-.05-12.87-.09-16.71l-7.93,2.42s.12,11.64,0,12.67l5.36-1.59-.19-8.58-1.33.65-.26,6.49-2.33.83v-8.77l5.5-2.06-.35,13.92-7.86,2.07V218.72l-1.15.42s-.06,10,0,15.89Z"/><path class="cls-5" d="M458.86,205.05c0-.22.06-.41.08-.59.24-2.09,0-8.72-.37-16.63-2.41.85-9.45,3.33-12.2,4.32v12.51s8.61-2.92,9.37-3l-.1-8.64-6.33,2.42.18,2,4.72-1.12.13,3.71-6.45,2.09-.31-8.6,10.12-2.86,0,12.79-13.54,4.39.06,1.83,14.54-4.58Z"/><path class="cls-5" d="M444.71,192.57l-.37,0c-1.34.12-5.72,1.91-10.88,4.21,0,3.24.06,12.91.1,16.77l8.29-2.55s-.13-12.11-.05-13.19l-5.66,2,.2,8.71,1.38-.7.27-6.65,2.47-1v9.07l-5.75,2.21.36-14.08,8.33-2.78V210l1.27-.47s.07-10.51,0-16.74Z"/><path class="cls-5" d="M433.62,215.46c0,.21-.05.4-.06.56-.22,2,0,8.26.32,15.78,2.19-.6,8.85-2.42,11.55-3.19V216.13s-8.27,2.6-9,2.67l.09,8.3,6-1.94-.18-2-4.48.85-.12-3.6,6.17-1.79.3,8.55-9.56,2,0-12.17,13-4-.06-1.84-13.87,4.3Z"/><path class="cls-5" d="M447.1,228.31h.38c1.36,0,5.94-1.52,11.56-3.57,0-3.43-.06-13.64-.1-17.71L450,209.75s.14,12.34.05,13.43l6-1.79-.22-9.08-1.48.7-.3,6.89-2.61.92,0-9.29,6.19-2.29-.4,14.77-8.83,2.32V210.85l-1.29.47s-.07,10.56,0,16.83Z"/><g class="cls-4"><path d="M347.58,239.11c0-.16,0-.31.05-.44.14-1.6,0-6.7-.22-12.8-1.42.51-5.6,2-7.24,2.59v9.67s5.11-1.77,5.56-1.81l-.06-6.65-3.76,1.49.12,1.58,2.79-.6.08,2.87-3.83,1.24-.18-6.65,6-1.6,0,9.82-8,2.65,0,1.42,8.64-2.74Z"/><path d="M339.18,228.69H339c-.8,0-3.43,1.15-6.54,2.62,0,2.53,0,10,.06,13l5-1.54s-.08-9.39,0-10.22l-3.4,1.24.12,6.77.83-.46.16-5.15,1.49-.63v7l-3.46,1.4.22-10.92,5-1.66v11.85l.75-.3s.05-8.12,0-12.94Z"/><path d="M332.51,245.82c0,.16,0,.3,0,.43-.13,1.52,0,6.42.19,12.28,1.33-.36,5.33-1.47,6.95-1.94v-9.65s-5,1.6-5.38,1.62l0,6.44,3.6-1.22-.11-1.56-2.69.43-.07-2.8,3.7-1.07.18,6.63-5.74,1.12v-9.46l7.8-2.46,0-1.43-8.33,2.61Z"/><path d="M340.6,256.44l.23,0c.81.05,3.53-.9,6.86-2.2,0-2.64,0-10.49-.06-13.61l-5.29,1.61s.09,9.52,0,10.35l3.58-1.08-.14-7-.88.47-.17,5.28-1.55.58v-7.15l3.66-1.44-.23,11.33L341.39,255V243l-.77.29s0,8.16,0,13Z"/><path d="M365.51,233.63c0-.18,0-.33.05-.47.15-1.68,0-7-.24-13.41-1.57.55-6.16,2.17-8,2.83v10.13s5.62-1.94,6.11-2l-.06-7-4.13,1.63.12,1.65,3.08-.67.09,3-4.22,1.36-.2-7,6.6-1.78,0,10.31-8.84,2.9,0,1.48,9.49-3Z"/><path d="M356.27,222.84H356c-.88,0-3.76,1.25-7.17,2.85,0,2.64,0,10.51.06,13.65l5.48-1.68s-.09-9.84,0-10.7l-3.73,1.35.13,7.08.91-.49.18-5.4,1.63-.68v7.36l-3.8,1.52.24-11.43,5.49-1.83v12.41l.83-.32s.05-8.51,0-13.56Z"/><path d="M349,240.88c0,.16,0,.31-.05.45-.14,1.6,0,6.71.22,12.85,1.44-.4,5.83-1.61,7.61-2.12V242s-5.44,1.74-5.9,1.77l.06,6.75,3.94-1.33-.11-1.64-3,.49-.08-2.92,4.07-1.18.19,6.94-6.3,1.25,0-9.9,8.55-2.69,0-1.49L349,240.84Z"/><path d="M357.84,251.89l.25,0c.89,0,3.88-1,7.53-2.41,0-2.76,0-11-.06-14.27L359.75,237s.09,10,0,10.86l3.93-1.19-.15-7.33-1,.5-.19,5.54-1.71.63v-7.5l4-1.56-.26,11.88-5.76,1.51V237.81l-.84.33s0,8.54,0,13.61Z"/><path d="M316.29,248.69c0-.15,0-.29,0-.41.12-1.45,0-6.12-.18-11.71-1.19.42-4.7,1.67-6.07,2.18v8.86s4.3-1.5,4.67-1.52l0-6.09-3.16,1.27.09,1.45,2.35-.48.07,2.63-3.22,1-.15-6.11,5-1.31,0,9L309,249.73l0,1.3,7.24-2.31Z"/><path d="M309.24,238.93h-.19c-.67,0-2.88,1-5.5,2.23,0,2.32,0,9.23,0,12l4.21-1.3s-.07-8.61,0-9.37l-2.87,1.05.1,6.22.7-.41.14-4.72,1.25-.54v6.45l-2.91,1.2.18-10,4.22-1.4v10.87l.63-.25s0-7.45,0-11.87Z"/><path d="M303.63,254.49c0,.14,0,.27,0,.39-.11,1.4,0,5.89.17,11.29,1.11-.31,4.48-1.25,5.85-1.65v-8.85s-4.18,1.36-4.53,1.37l0,5.92,3-1-.09-1.44-2.27.35-.06-2.57,3.12-.91.15,6.08-4.84.92v-8.69l6.56-2.08,0-1.31-7,2.2Z"/><path d="M310.44,264.4l.19,0c.68.06,3-.75,5.75-1.88,0-2.41,0-9.59-.05-12.45l-4.43,1.35s.07,8.72,0,9.49l3-.92-.11-6.41-.73.41-.15,4.83-1.3.5v-6.56l3.07-1.23-.19,10.37-4.4,1.14V252.12l-.64.25s0,7.48,0,11.91Z"/><path d="M331.24,244.12c0-.16,0-.31.05-.43.13-1.52,0-6.4-.2-12.23-1.3.46-5.12,1.82-6.62,2.37v9.24s4.69-1.62,5.09-1.65l-.05-6.36-3.44,1.38.11,1.51,2.56-.53.07,2.74-3.51,1.14-.17-6.38,5.49-1.44v9.39l-7.36,2.43,0,1.36,7.9-2.51Z"/><path d="M323.56,234h-.21c-.73,0-3.14,1-6,2.42,0,2.42,0,9.62.06,12.49l4.57-1.41s-.07-9,0-9.77l-3.13,1.13.12,6.48.76-.43.15-4.92,1.36-.59v6.73l-3.17,1.3.2-10.45,4.59-1.53v11.34l.69-.27s0-7.77,0-12.38Z"/><path d="M317.45,250.34c0,.15,0,.29,0,.41-.13,1.46,0,6.14.18,11.76,1.21-.33,4.87-1.35,6.36-1.78V251.5S319.4,253,319,253l.05,6.17,3.3-1.13-.1-1.5-2.47.39-.07-2.68,3.4-1,.16,6.35-5.26,1v-9.05l7.14-2.26,0-1.37-7.63,2.39Z"/><path d="M324.86,260.6l.21,0c.75.05,3.23-.82,6.27-2,0-2.52,0-10,0-13l-4.83,1.47s.08,9.11,0,9.91l3.26-1-.12-6.69-.8.44-.16,5-1.42.53v-6.84l3.35-1.33L330.37,258l-4.78,1.25V247.77l-.71.27s0,7.8,0,12.43Z"/><path d="M385.27,227.58c0-.18,0-.35.05-.5.17-1.76,0-7.38-.26-14.09-1.73.61-6.8,2.4-8.78,3.13v10.63s6.2-2.13,6.74-2.19l-.07-7.32L378.4,219l.14,1.73,3.39-.75.1,3.15-4.65,1.51-.22-7.32,7.28-2,0,10.83-9.75,3.19,0,1.56,10.47-3.31Z"/><path d="M375.08,216.4h-.27c-1,0-4.15,1.38-7.9,3.11,0,2.78,0,11,.07,14.32l6-1.85s-.1-10.32,0-11.23l-4.11,1.48.15,7.43,1-.53.19-5.66,1.8-.75v7.72l-4.18,1.66.26-12,6.05-2v13l.91-.35s.05-8.93,0-14.24Z"/><path d="M367,235.45c0,.18,0,.34,0,.48-.16,1.68,0,7,.24,13.48,1.59-.44,6.42-1.77,8.38-2.34V236.46s-6,1.91-6.5,1.95l.06,7.07L373.5,244l-.13-1.72-3.25.56-.09-3.07,4.48-1.3.22,7.28-7,1.4,0-10.38,9.42-3,0-1.56-10.07,3.13Z"/><path d="M376.8,246.88l.28,0c1,0,4.28-1.1,8.31-2.63,0-2.91,0-11.56-.07-15l-6.41,1.95s.1,10.48,0,11.4l4.33-1.3-.16-7.71-1.07.54-.21,5.83-1.88.68v-7.87l4.44-1.71-.28,12.49-6.35,1.67V232.09l-.93.35s-.05,9,0,14.3Z"/><path d="M407.15,220.88c0-.19.05-.37.06-.52.2-1.87,0-7.78-.28-14.85-1.93.67-7.55,2.66-9.75,3.46v11.19s6.88-2.35,7.48-2.42L404.6,210l-5.06,2,.15,1.82,3.76-.86.11,3.32-5.16,1.67-.24-7.7,8.08-2.23,0,11.41L395.4,223l.05,1.64,11.6-3.67Z"/><path d="M395.85,209.29h-.3c-1.07.07-4.58,1.53-8.73,3.43,0,2.91,0,11.59.07,15.05l6.67-2.05s-.11-10.85,0-11.81L389,215.55l.16,7.81,1.11-.58.22-5.95,2-.82v8.12L387.83,226l.29-12.62,6.69-2.23v13.71l1-.38s.06-9.41,0-15Z"/><path d="M387,229.48c0,.18,0,.35-.06.49-.17,1.77,0,7.41.27,14.17,1.76-.48,7.1-1.95,9.27-2.58V230.39s-6.63,2.11-7.19,2.16l.07,7.44,4.81-1.59-.15-1.8-3.59.63-.1-3.22,5-1.44.24,7.66-7.68,1.58,0-10.92,10.43-3.26-.05-1.66L387,229.44Z"/><path d="M397.76,241.34l.31,0c1.09,0,4.75-1.22,9.23-2.9,0-3.06-.05-12.17-.09-15.8l-7.11,2.16s.12,11,0,12l4.81-1.43-.18-8.12-1.18.59-.24,6.14-2.09.75v-8.3l4.94-1.87-.32,13.17-7.05,1.85V225.75l-1,.39s-.05,9.45,0,15.05Z"/><path d="M431.53,213.42c0-.21.06-.39.07-.56.22-2,0-8.22-.32-15.69-2.14.76-8.42,3-10.87,3.86v11.81s7.67-2.61,8.34-2.7l-.08-8.15L423,204.17l.16,1.92,4.2-1,.12,3.51-5.75,1.85-.27-8.12,9-2.52,0,12.06-12.07,3.93.06,1.73,12.94-4.09Z"/><path d="M418.93,201.4h-.33c-1.2.1-5.11,1.71-9.72,3.79,0,3.07.05,12.22.08,15.86l7.42-2.27s-.12-11.45-.05-12.47l-5.06,1.81.18,8.24,1.23-.63.25-6.29,2.2-.9v8.57l-5.14,2,.33-13.3,7.44-2.49v14.47l1.13-.42s.06-9.93,0-15.82Z"/><path d="M409,222.85c0,.19,0,.37-.06.52-.19,1.87,0,7.81.29,14.93,2-.53,7.91-2.16,10.32-2.86V223.65s-7.38,2.34-8,2.4l.07,7.84,5.36-1.75-.16-1.9-4,.73-.11-3.4,5.52-1.6.27,8.08L410,235.83l0-11.51,11.6-3.62-.05-1.74-12.4,3.84Z"/><path d="M421.06,235.19h.34c1.21,0,5.29-1.35,10.29-3.2,0-3.24-.05-12.87-.09-16.71l-7.93,2.42s.12,11.64,0,12.67l5.36-1.59-.19-8.58-1.33.65-.26,6.49-2.33.83v-8.77l5.5-2.06-.35,13.92-7.86,2.07V218.72l-1.15.42s-.06,10,0,15.89Z"/><path d="M458.86,205.05c0-.22.06-.41.08-.59.24-2.09,0-8.72-.37-16.63-2.41.85-9.45,3.33-12.2,4.32v12.51s8.61-2.92,9.37-3l-.1-8.64-6.33,2.42.18,2,4.72-1.12.13,3.71-6.45,2.09-.31-8.6,10.12-2.86,0,12.79-13.54,4.39.06,1.83,14.54-4.58Z"/><path d="M444.71,192.57l-.37,0c-1.34.12-5.72,1.91-10.88,4.21,0,3.24.06,12.91.1,16.77l8.29-2.55s-.13-12.11-.05-13.19l-5.66,2,.2,8.71,1.38-.7.27-6.65,2.47-1v9.07l-5.75,2.21.36-14.08,8.33-2.78V210l1.27-.47s.07-10.51,0-16.74Z"/><path d="M433.62,215.46c0,.21-.05.4-.06.56-.22,2,0,8.26.32,15.78,2.19-.6,8.85-2.42,11.55-3.19V216.13s-8.27,2.6-9,2.67l.09,8.3,6-1.94-.18-2-4.48.85-.12-3.6,6.17-1.79.3,8.55-9.56,2,0-12.17,13-4-.06-1.84-13.87,4.3Z"/><path d="M447.1,228.31h.38c1.36,0,5.94-1.52,11.56-3.57,0-3.43-.06-13.64-.1-17.71L450,209.75s.14,12.34.05,13.43l6-1.79-.22-9.08-1.48.7-.3,6.89-2.61.92,0-9.29,6.19-2.29-.4,14.77-8.83,2.32V210.85l-1.29.47s-.07,10.56,0,16.83Z"/></g><path class="cls-5" d="M531.13,227.05c0-.17,0-.32.06-.46.17-1.66,0-7.4-.26-14.33-1.77-.58-7.11-2.36-9.28-3v11.18s6.63,1.91,7.19,2.21l-.07-7.49L524,213.78l.15,1.9,3.6,1.54.1,3.29-5-1.57-.24-7.81,7.68,3.08,0,10.91-10.42-3.06,0,1.68L531,227Z"/><path class="cls-5" d="M520.32,208.63l-.31-.2c-1.09-.68-4.74-1.67-9.23-2.71,0,3.07.05,12.21.09,15.86l7.11,2.15s-.12-11.1,0-12l-4.81-1.48.18,8.23,1.18.13.24-6,2.09.51v8.31l-4.93-1.12.31-13,7,2.43v13.84l1,.24s.06-9.41,0-15Z"/><path class="cls-5" d="M510.93,223.4q0,.27-.06.48c-.2,1.75,0,7.77.29,15,1.92.48,7.54,1.91,9.74,2.44v-11.2s-6.88-1.82-7.48-2.11l.07,7.76,5.06,1.1-.15-1.91-3.76-1.42-.11-3.39,5.16,1.46.24,7.85-8.08-2.67,0-11.4,10.81,3,0-1.67s-8-2.32-11.61-3.37Z"/><path class="cls-5" d="M522.23,241.83l.3.18c1.07.58,4.59,1.25,8.73,1.87,0-2.92,0-11.62-.07-15.1l-6.67-2s.11,10.92,0,11.84l4.55,1.13-.16-7.91-1.11-.09-.22,5.82-2-.38v-8.13l4.62,1L530,242.49l-6.69-1.83V227l-1-.23s-.06,9.37,0,15Z"/><path class="cls-5" d="M551.05,233.15c0-.16,0-.31.05-.44.16-1.59,0-7-.24-13.63-1.59-.53-6.42-2.12-8.38-2.74V227s6,1.72,6.5,2l-.06-7.11-4.35-1.19.13,1.8,3.25,1.41.09,3.13-4.48-1.42-.21-7.41,6.94,2.8,0,10.37-9.42-2.75,0,1.6,10.06,3Z"/><path class="cls-5" d="M541.28,215.8l-.28-.19c-1-.62-4.28-1.5-8.31-2.41,0,2.91,0,11.58.07,15.05l6.41,1.93s-.1-10.54,0-11.42l-4.33-1.33.16,7.81,1.07.1.21-5.7,1.88.46V228l-4.44-1,.28-12.32,6.35,2.19V230l.93.21s.06-8.94,0-14.27Z"/><path class="cls-5" d="M532.82,230c0,.17,0,.32-.06.46-.17,1.66,0,7.37.26,14.25,1.73.44,6.8,1.72,8.78,2.2V236.24s-6.2-1.63-6.74-1.9l.07,7.36,4.56,1-.14-1.81-3.39-1.3-.1-3.22,4.65,1.32.22,7.46-7.28-2.44,0-10.81,9.76,2.72,0-1.59-10.46-3Z"/><path class="cls-5" d="M543,247.32a2.79,2.79,0,0,0,.28.16c1,.54,4.14,1.13,7.89,1.67,0-2.78,0-11.05-.07-14.36l-6-1.8s.1,10.37,0,11.25l4.11,1-.15-7.52-1-.07-.2,5.54-1.8-.34v-7.73l4.18.88L550,247.84l-6-1.65v-13L543,233s0,8.9,0,14.21Z"/><path class="cls-5" d="M484.46,212.76c0-.19.05-.36.07-.51.21-1.85,0-8.24-.33-16-2.19-.73-8.84-2.94-11.55-3.81V205s8.27,2.41,9,2.76l-.09-8.35-6-1.69.18,2.12,4.48,1.87.12,3.68-6.17-2-.3-8.73,9.56,3.77,0,12.16-13-3.83.06,1.88,13.88,4.11Z"/><path class="cls-5" d="M471,191.74a4.29,4.29,0,0,0-.38-.23c-1.36-.81-5.94-2.08-11.56-3.45,0,3.44.06,13.68.1,17.78l8.92,2.69s-.14-12.42-.05-13.45l-6-1.87.22,9.22,1.49.19.29-6.7,2.62.67v9.29l-6.18-1.46.39-14.52,8.83,3v15.48l1.29.31s.07-10.52,0-16.8Z"/><path class="cls-5" d="M459.22,207.87c0,.2-.06.38-.08.55-.24,1.94,0,8.7.37,16.84,2.41.62,9.45,2.41,12.2,3.09V215.83s-8.61-2.3-9.37-2.65l.1,8.69,6.33,1.42-.18-2.15-4.72-1.72-.13-3.8,6.45,1.83.31,8.78L460.37,223l0-12.77L473.94,214l-.06-1.87-14.53-4.23Z"/><path class="cls-5" d="M473.37,228.93l.37.21c1.34.68,5.72,1.55,10.88,2.38,0-3.26-.06-13-.09-16.83l-8.3-2.48s.14,12.19,0,13.21l5.66,1.42-.2-8.83-1.37-.14-.28,6.49-2.47-.5v-9.07l5.75,1.27L483,229.92l-8.33-2.26V212.34l-1.26-.29s-.08,10.46-.05,16.71Z"/><path class="cls-5" d="M509.06,220.29q0-.27.06-.48c.19-1.75,0-7.8-.29-15.11-2-.65-7.91-2.63-10.32-3.4v11.8s7.38,2.14,8,2.46l-.08-7.9-5.36-1.49.17,2,4,1.7.11,3.47-5.52-1.75-.26-8.24,8.54,3.39,0,11.5-11.6-3.41.05,1.77,12.4,3.68Z"/><path class="cls-5" d="M497,200.65l-.34-.21c-1.21-.74-5.29-1.86-10.29-3,0,3.24.05,12.9.09,16.76l7.93,2.39s-.12-11.72,0-12.7L489,202.2l.2,8.69,1.32.16.26-6.33,2.33.58v8.77l-5.5-1.27.35-13.71,7.86,2.7v14.62l1.15.27s.06-9.93,0-15.86Z"/><path class="cls-5" d="M486.55,216.08c0,.19-.05.36-.07.51-.22,1.84,0,8.21.32,15.88,2.15.55,8.42,2.14,10.87,2.74V223.39s-7.67-2-8.34-2.36l.08,8.2,5.64,1.25-.16-2-4.2-1.56-.12-3.58,5.75,1.63.27,8.29-9-2.95,0-12,12.07,3.38-.05-1.76-12.95-3.76Z"/><path class="cls-5" d="M499.15,235.74l.34.19c1.19.63,5.1,1.38,9.71,2.1,0-3.08-.05-12.25-.08-15.91l-7.42-2.22s.13,11.52.05,12.48l5.06,1.26-.18-8.34-1.23-.11-.25,6.14-2.2-.44v-8.58l5.14,1.12-.33,13.12-7.44-2V220.05l-1.13-.26s-.06,9.88,0,15.79Z"/><path class="cls-5" d="M569.12,238.68c0-.16,0-.3,0-.42.15-1.52,0-6.71-.21-13-1.45-.48-5.84-1.93-7.62-2.49v10.11s5.44,1.56,5.9,1.81l0-6.78-4-1.07.12,1.71,2.95,1.3.08,3-4.07-1.29-.19-7.06,6.3,2.57,0,9.89-8.54-2.49,0,1.51,9.14,2.7Z"/><path class="cls-5" d="M560.24,222.29a1.59,1.59,0,0,0-.25-.17c-.89-.58-3.88-1.37-7.53-2.17,0,2.77,0,11,.07,14.31l5.8,1.75s-.09-10,0-10.87l-3.93-1.2.15,7.43,1,.08.19-5.43,1.71.41v7.51l-4-.88.26-11.73,5.76,2v12.53l.84.18s0-8.51,0-13.59Z"/><path class="cls-5" d="M552.57,235.9c0,.16,0,.31,0,.44-.16,1.58,0,7,.23,13.55,1.57.4,6.16,1.56,8,2V241.75s-5.62-1.47-6.11-1.72l.06,7,4.13.87-.12-1.72-3.08-1.2-.08-3.06,4.21,1.2.2,7.09-6.6-2.22,0-10.3,8.84,2.46,0-1.51-9.48-2.74Z"/><path class="cls-5" d="M561.81,252.29l.24.15c.88.5,3.76,1,7.17,1.49,0-2.65,0-10.53-.06-13.69l-5.47-1.63s.09,9.88,0,10.71l3.73.92-.13-7.17-.91,0-.18,5.28-1.63-.3v-7.36l3.8.77-.24,11.29-5.49-1.5V238.79l-.83-.18s-.05,8.48,0,13.54Z"/><path class="cls-5" d="M585.57,243.71c0-.14,0-.28,0-.4.14-1.44,0-6.41-.19-12.4-1.33-.44-5.33-1.76-6.95-2.27v9.65s5,1.42,5.38,1.65l-.05-6.48-3.6-1,.11,1.63,2.69,1.2.07,2.84-3.7-1.17-.18-6.74,5.75,2.36,0,9.45-7.79-2.26,0,1.44,8.33,2.46Z"/><path class="cls-5" d="M577.48,228.19l-.23-.16c-.81-.54-3.53-1.25-6.86-2,0,2.64,0,10.51.07,13.65l5.28,1.59s-.09-9.57,0-10.37l-3.57-1.09.13,7.08.88.07.17-5.18,1.55.36v7.16l-3.66-.78.23-11.19,5.24,1.81v11.95l.77.17s0-8.13,0-13Z"/><path class="cls-5" d="M570.5,241.28c0,.15,0,.29,0,.42-.15,1.51,0,6.68.21,12.92,1.42.36,5.6,1.42,7.24,1.81v-9.67s-5.12-1.34-5.57-1.57l.06,6.68,3.76.79-.11-1.64-2.8-1.1-.08-2.92,3.83,1.08.19,6.77-6-2,0-9.82,8,2.23,0-1.44-8.64-2.49Z"/><path class="cls-5" d="M578.91,256.8l.22.14c.8.47,3.43.94,6.54,1.35,0-2.53,0-10.07-.06-13.08l-5-1.49s.08,9.44,0,10.23l3.4.83-.12-6.84-.83,0-.16,5-1.49-.26v-7l3.46.7-.22,10.79-5-1.37V243.9l-.75-.16s0,8.1,0,12.93Z"/><path class="cls-5" d="M600.63,248.32c0-.14,0-.27,0-.38.12-1.39,0-6.14-.18-11.88-1.22-.4-4.88-1.6-6.36-2.07v9.24s4.55,1.28,4.93,1.5l0-6.2-3.3-.87.1,1.56,2.47,1.11.07,2.72L595,242l-.16-6.45,5.26,2.18v9l-7.14-2.07,0,1.39,7.64,2.23Z"/><path class="cls-5" d="M593.22,233.57l-.21-.15c-.74-.5-3.23-1.14-6.27-1.77,0,2.53,0,10,.06,13l4.82,1.46s-.07-9.15,0-9.92l-3.27-1,.12,6.77.8.05.16-5,1.42.33v6.85l-3.35-.7.22-10.7,4.79,1.65V246l.7.15s0-7.77,0-12.41Z"/><path class="cls-5" d="M586.84,246.18c0,.15,0,.29,0,.41-.14,1.44,0,6.38.19,12.34,1.3.33,5.12,1.29,6.62,1.65v-9.25s-4.68-1.21-5.09-1.43l.05,6.39L592,257l-.1-1.58-2.56-1-.08-2.78,3.51,1,.17,6.47-5.49-1.89v-9.38l7.36,2,0-1.38-7.9-2.28Z"/><path class="cls-5" d="M594.52,260.93l.21.13c.73.44,3.14.86,6,1.22,0-2.43,0-9.64-.05-12.53l-4.58-1.36s.07,9,0,9.79l3.12.75-.12-6.55-.75,0-.16,4.83-1.36-.24v-6.73l3.17.62-.2,10.33-4.59-1.25V248.58l-.69-.15s0,7.75,0,12.37Z"/><path class="cls-5" d="M614.45,252.56c0-.14,0-.27,0-.38.11-1.33,0-5.88-.17-11.38-1.11-.37-4.48-1.48-5.84-1.9v8.85s4.18,1.17,4.53,1.38l0-5.95-3-.79.1,1.49,2.26,1,.07,2.6-3.12-1-.16-6.17,4.84,2v8.67l-6.56-1.89,0,1.32,7,2.06Z"/><path class="cls-5" d="M607.64,238.51l-.19-.14a23.25,23.25,0,0,0-5.75-1.61c0,2.41,0,9.61,0,12.48l4.43,1.34s-.07-8.77,0-9.51l-3-.9.11,6.48.73,0,.15-4.75,1.3.3v6.56l-3.07-.63.19-10.25,4.4,1.52v10.95l.64.14s0-7.45,0-11.9Z"/><path class="cls-5" d="M601.79,250.67c0,.14,0,.27,0,.39-.12,1.38,0,6.11.18,11.82,1.19.3,4.7,1.18,6.08,1.5v-8.86s-4.3-1.11-4.67-1.31l0,6.12,3.15.64-.09-1.51-2.35-.95-.07-2.67,3.22.91.15,6.21-5-1.75v-9l6.76,1.86,0-1.32-7.25-2.08Z"/><path class="cls-5" d="M608.84,264.71l.19.12c.67.42,2.88.79,5.5,1.11,0-2.33,0-9.25,0-12l-4.21-1.26s.07,8.66,0,9.39l2.87.69-.1-6.28-.7,0-.14,4.64-1.25-.22v-6.45l2.91.56-.18,9.91-4.22-1.16V252.86l-.63-.13s0,7.43,0,11.86Z"/><path class="cls-5" d="M314.76,283.48c0-.22,0-.41.05-.58.17-2,0-8.66-.25-16.59-1.68.46-6.58,1.79-8.49,2.34v12.44s6-1.52,6.51-1.51l-.07-8.6-4.4,1.39.13,2.05,3.28-.36.09,3.72-4.49,1-.21-8.6,7-1.22,0,12.71-9.42,2.2,0,1.83,10.11-2.22Z"/><path class="cls-5" d="M304.91,268.8l-.26,0c-.93-.08-4,1-7.57,2.45,0,3.23,0,12.85.07,16.69l5.77-1.2s-.09-12.07,0-13.12l-3.95,1.1.15,8.68,1-.46.19-6.58,1.72-.59v9L298,286l.25-13.94,5.8-1.44v15.24l.88-.27s.05-10.44,0-16.64Z"/><path class="cls-5" d="M297.2,289.79c0,.2,0,.38-.05.54-.15,1.93,0,8.21.22,15.75,1.53-.25,6.16-1,8-1.33V292.34s-5.76,1.26-6.24,1.23l.06,8.26,4.17-1-.13-2-3.12.12-.08-3.6,4.29-.79.21,8.55-6.65.49,0-12.11,9-1.94,0-1.84-9.66,2.05Z"/><path class="cls-5" d="M306.57,304.72a1.8,1.8,0,0,0,.27.07c1,.2,4.13-.56,8-1.69,0-3.42,0-13.58-.07-17.63l-6.2,1.27s.1,12.28,0,13.35l4.19-.81-.15-9.07-1,.47-.2,6.8-1.82.49v-9.23l4.3-1.29-.28,14.62-6.14.89V287.57l-.89.26s-.05,10.49,0,16.73Z"/><path class="cls-5" d="M336.2,279c0-.23.05-.43.06-.61.19-2.18,0-9.22-.28-17.65-1.9.52-7.44,2-9.6,2.63v13.22s6.77-1.71,7.36-1.7l-.07-9.15-5,1.56.14,2.17,3.71-.44.1,3.95-5.07,1.17-.24-9.13,8-1.42,0,13.52-10.64,2.48.05,1.94,11.42-2.5Z"/><path class="cls-5" d="M325.08,263.59l-.29,0c-1.05-.08-4.49,1.12-8.52,2.72,0,3.43,0,13.63.07,17.7l6.5-1.35s-.11-12.81,0-13.93l-4.44,1.23.16,9.21,1.08-.51.21-7,1.93-.66v9.58l-4.5,1.4.28-14.79,6.53-1.61v16.17l1-.3s.06-11.08,0-17.67Z"/><path class="cls-5" d="M316.39,286c0,.21,0,.41-.05.58-.17,2.05,0,8.7.25,16.69,1.72-.27,6.93-1.11,9.06-1.49V288.57s-6.49,1.41-7,1.38l.07,8.76,4.69-1.07-.14-2.15-3.51.16-.1-3.82,4.84-.89.24,9.08-7.5.58,0-12.83,10.19-2.18-.05-1.95-10.88,2.3Z"/><path class="cls-5" d="M327,301.72l.3.06c1.07.2,4.67-.64,9.09-1.88,0-3.63,0-14.44-.08-18.75l-7,1.43s.11,13.06,0,14.19l4.73-.9-.17-9.65-1.17.51-.23,7.23-2.06.55v-9.82l4.87-1.42-.32,15.55-6.94,1V283.48l-1,.29s-.05,11.14,0,17.77Z"/><path class="cls-5" d="M278.76,290.94c0-.19,0-.36.05-.51.13-1.82,0-7.74-.2-14.82-1.34.37-5.26,1.44-6.79,1.88v11.14s4.79-1.24,5.21-1.21l-.06-7.69-3.52,1.14.1,1.84,2.63-.25.07,3.32-3.59.83-.17-7.7,5.63-.92,0,11.35-7.54,1.78,0,1.64,8.08-1.79Z"/><path class="cls-5" d="M270.89,277.6l-.21,0c-.74-.1-3.19.79-6.08,2,0,2.9,0,11.55,0,15l4.64-1s-.07-10.82,0-11.76l-3.17.9.11,7.8.77-.4.15-5.9,1.39-.49v8.08l-3.22,1.07.2-12.51,4.67-1.15v13.65l.7-.23s0-9.34,0-14.9Z"/><path class="cls-5" d="M264.69,296.26c0,.18,0,.34,0,.48-.12,1.73,0,7.37.18,14.14,1.23-.2,4.95-.8,6.47-1.08V298.69s-4.62,1-5,1l.05,7.42,3.36-.81-.1-1.82-2.51,0L267,301.3l3.45-.64.17,7.66-5.35.34V297.8l7.26-1.58,0-1.65-7.76,1.66Z"/><path class="cls-5" d="M272.22,309.8l.22.06c.76.19,3.3-.45,6.42-1.4,0-3,0-12.12-.05-15.74l-5,1s.08,11,0,11.95l3.35-.66-.12-8.1-.83.39-.16,6.08-1.46.41v-8.26l3.44-1.07-.22,13-4.91.71V294.46l-.72.22s0,9.38,0,15Z"/><path class="cls-5" d="M295.74,287.42c0-.2,0-.38.05-.54.15-1.93,0-8.17-.23-15.66-1.49.41-5.86,1.6-7.56,2.1v11.75s5.34-1.37,5.81-1.35l-.06-8.12-3.92,1.26.11,1.94,2.92-.31L293,282l-4,.93-.19-8.13,6.28-1.06,0,12-8.4,2,0,1.73,9-2Z"/><path class="cls-5" d="M287,273.44l-.24,0c-.83-.09-3.55.89-6.76,2.22,0,3.05,0,12.16,0,15.79l5.17-1.08s-.09-11.4,0-12.4l-3.53,1,.13,8.22.85-.43.17-6.22,1.54-.54v8.53l-3.58,1.16.22-13.19,5.19-1.28v14.4l.78-.24s.05-9.87,0-15.73Z"/><path class="cls-5" d="M280.07,293.2c0,.19,0,.36-.05.51-.13,1.83,0,7.77.21,14.9,1.36-.22,5.5-.89,7.18-1.19V295.69s-5.15,1.14-5.58,1.1l.05,7.81,3.73-.88-.11-1.92-2.79.09-.08-3.41,3.85-.7.18,8.08-6,.41,0-11.45,8.08-1.75,0-1.74-8.63,1.84Z"/><path class="cls-5" d="M288.45,307.4l.23.07c.85.19,3.69-.51,7.17-1.54,0-3.22,0-12.81-.06-16.63l-5.53,1.13s.09,11.6,0,12.61l3.74-.73-.14-8.56-.92.43-.18,6.42-1.63.45v-8.72l3.83-1.17L294.74,305l-5.47.8V291.2l-.8.24s0,9.91,0,15.8Z"/><path class="cls-5" d="M360.57,274c0-.24.06-.46.07-.66.22-2.32,0-9.84-.32-18.84-2.17.58-8.47,2.29-10.93,3v14.09s7.7-1.93,8.38-1.92l-.09-9.77L352,261.6l.17,2.32,4.22-.53.12,4.22-5.78,1.33-.27-9.74,9.06-1.65,0,14.44-12.12,2.8.06,2.07,13-2.84Z"/><path class="cls-5" d="M347.91,257.68l-.33,0c-1.2-.07-5.09,1.27-9.67,3.05,0,3.64,0,14.5.08,18.83l7.37-1.53s-.12-13.65,0-14.84l-5,1.38.18,9.81,1.22-.56.25-7.43,2.19-.74v10.2l-5.1,1.57.32-15.75,7.4-1.84V277l1.13-.33s.06-11.82,0-18.84Z"/><path class="cls-5" d="M338.05,281.66c0,.23,0,.43-.06.61-.19,2.19,0,9.27.29,17.77,1.94-.31,7.86-1.26,10.27-1.68V284.31s-7.36,1.59-8,1.56l.08,9.33L346,294l-.16-2.29-4,.21-.11-4.06,5.5-1,.27,9.67-8.51.7,0-13.66,11.55-2.45L350.5,279l-12.35,2.61Z"/><path class="cls-5" d="M350,298.31l.34.07c1.22.2,5.31-.74,10.36-2.11,0-3.88-.06-15.43-.1-20l-8,1.63s.13,13.93.05,15.14l5.39-1-.2-10.3-1.33.56L356.3,290l-2.35.61V280.11l5.54-1.59-.35,16.61-7.91,1.16V278.85l-1.15.32s-.06,11.88,0,18.95Z"/><path class="cls-5" d="M388.52,268.18c0-.26.05-.49.08-.7.25-2.5,0-10.57-.38-20.22-2.49.67-9.74,2.62-12.56,3.42v15.09s8.85-2.2,9.63-2.21l-.1-10.47-6.52,2,.19,2.48,4.85-.65.14,4.52-6.64,1.52-.31-10.42,10.42-2,0,15.49-13.92,3.21.06,2.21,14.95-3.25Z"/><path class="cls-5" d="M374,250.94l-.38,0c-1.37,0-5.83,1.46-11.06,3.45,0,3.9.06,15.5.1,20.13l8.42-1.75s-.13-14.6,0-15.88l-5.77,1.57.21,10.48,1.4-.62.27-8,2.52-.83v10.91l-5.84,1.76.36-16.84,8.47-2.11v18.45l1.3-.37s.07-12.65,0-20.17Z"/><path class="cls-5" d="M362.69,276.76c0,.24-.05.46-.07.66-.22,2.33,0,9.89.33,19,2.22-.36,9-1.43,11.75-1.91V279.44s-8.43,1.8-9.13,1.78l.09,10,6.09-1.35-.18-2.45-4.56.28-.13-4.35,6.29-1.15.31,10.35-9.73.85,0-14.6L377,276l-.07-2.24-14.13,3Z"/><path class="cls-5" d="M376.41,294.41l.38.08c1.4.2,6.11-.85,11.91-2.38,0-4.17-.06-16.56-.1-21.5l-9.19,1.87s.14,14.93,0,16.23l6.19-1.17-.22-11-1.54.62-.3,8.29-2.69.68,0-11.23,6.38-1.79-.41,17.83-9.09,1.34V273.55l-1.32.37s-.07,12.73-.05,20.29Z"/><path class="cls-5" d="M420.87,261.47c0-.28.07-.53.1-.76.29-2.7,0-11.4-.44-21.8-2.9.77-11.32,3-14.59,4l0,16.24s10.26-2.53,11.17-2.55l-.11-11.3-7.57,2.27.22,2.67,5.63-.8.16,4.87-7.7,1.77-.37-11.22,12.1-2.32,0,16.72-16.15,3.7.07,2.38,17.34-3.77Z"/><path class="cls-5" d="M404,243.18l-.45,0c-1.58,0-6.73,1.69-12.77,3.93,0,4.18.07,16.64.11,21.61l9.73-2s-.16-15.7-.06-17.08l-6.65,1.8.24,11.26,1.61-.69.32-8.55,2.9-.93v11.72l-6.74,2,.42-18.09,9.79-2.44v19.85l1.5-.42s.08-13.62.05-21.7Z"/><path class="cls-5" d="M391,271.14c0,.26-.06.49-.08.7-.25,2.51,0,10.63.38,20.38,2.56-.41,10.38-1.65,13.58-2.19v-16.2s-9.74,2.07-10.56,2.05l.1,10.72,7.05-1.53-.22-2.63-5.27.36-.15-4.66,7.28-1.34.35,11.13-11.24,1,0-15.68,15.3-3.21-.07-2.41-16.34,3.42Z"/><path class="cls-5" d="M406.81,289.92l.45.08c1.62.2,7.08-1,13.83-2.71,0-4.5-.07-17.87-.12-23.2l-10.68,2.18s.16,16.07,0,17.47l7.2-1.34-.26-11.9-1.78.69-.35,8.94-3.13.77,0-12.09,7.41-2L418.93,286l-10.55,1.56V267.44l-1.53.42s-.09,13.7-.06,21.84Z"/><path class="cls-5" d="M458.78,253.61c.05-.3.09-.58.11-.82.35-2.95.05-12.39-.51-23.67-3.42.91-13.31,3.56-17.15,4.63l0,17.58s12.06-2.94,13.12-3l-.13-12.25-8.9,2.63.26,2.88,6.61-1,.19,5.28-9,2.07-.43-12.14L457.15,233l0,18.14-19,4.32.08,2.58,20.39-4.41Z"/><path class="cls-5" d="M438.93,234.14a4.64,4.64,0,0,0-.52,0c-1.85,0-7.88,2-14.92,4.54,0,4.51.08,18,.13,23.32L435,259.63s-.19-17-.07-18.47l-7.77,2.1.27,12.15,1.88-.78.38-9.24,3.39-1.07,0,12.68-7.88,2.26.49-19.54,11.44-2.85v21.47l1.75-.48s.1-14.74.07-23.49Z"/><path class="cls-5" d="M423.71,264.62c0,.28-.07.54-.09.76-.3,2.72,0,11.47.44,22,3-.47,12.12-1.91,15.87-2.54l0-17.53s-11.39,2.39-12.34,2.39l.12,11.57,8.23-1.74-.25-2.85-6.16.47-.17-5,8.5-1.56.42,12-13.14,1.27,0-16.93,17.89-3.73-.09-2.6-19.1,4Z"/><path class="cls-5" d="M442.25,284.69c.19,0,.37.06.52.07,1.91.2,8.32-1.16,16.27-3.12,0-4.88-.09-19.4-.15-25.19L446.33,259s.19,17.41.07,18.93l8.46-1.55-.31-12.91-2.1.78L452,274l-3.68.89,0-13.11,8.72-2.34-.56,20.89-12.41,1.84v-21.8l-1.79.48s-.11,14.84-.07,23.65Z"/><g class="cls-4"><path d="M314.76,283.48c0-.22,0-.41.05-.58.17-2,0-8.66-.25-16.59-1.68.46-6.58,1.79-8.49,2.34v12.44s6-1.52,6.51-1.51l-.07-8.6-4.4,1.39.13,2.05,3.28-.36.09,3.72-4.49,1-.21-8.6,7-1.22,0,12.71-9.42,2.2,0,1.83,10.11-2.22Z"/><path d="M304.91,268.8l-.26,0c-.93-.08-4,1-7.57,2.45,0,3.23,0,12.85.07,16.69l5.77-1.2s-.09-12.07,0-13.12l-3.95,1.1.15,8.68,1-.46.19-6.58,1.72-.59v9L298,286l.25-13.94,5.8-1.44v15.24l.88-.27s.05-10.44,0-16.64Z"/><path d="M297.2,289.79c0,.2,0,.38-.05.54-.15,1.93,0,8.21.22,15.75,1.53-.25,6.16-1,8-1.33V292.34s-5.76,1.26-6.24,1.23l.06,8.26,4.17-1-.13-2-3.12.12-.08-3.6,4.29-.79.21,8.55-6.65.49,0-12.11,9-1.94,0-1.84-9.66,2.05Z"/><path d="M306.57,304.72a1.8,1.8,0,0,0,.27.07c1,.2,4.13-.56,8-1.69,0-3.42,0-13.58-.07-17.63l-6.2,1.27s.1,12.28,0,13.35l4.19-.81-.15-9.07-1,.47-.2,6.8-1.82.49v-9.23l4.3-1.29-.28,14.62-6.14.89V287.57l-.89.26s-.05,10.49,0,16.73Z"/><path d="M336.2,279c0-.23.05-.43.06-.61.19-2.18,0-9.22-.28-17.65-1.9.52-7.44,2-9.6,2.63v13.22s6.77-1.71,7.36-1.7l-.07-9.15-5,1.56.14,2.17,3.71-.44.1,3.95-5.07,1.17-.24-9.13,8-1.42,0,13.52-10.64,2.48.05,1.94,11.42-2.5Z"/><path d="M325.08,263.59l-.29,0c-1.05-.08-4.49,1.12-8.52,2.72,0,3.43,0,13.63.07,17.7l6.5-1.35s-.11-12.81,0-13.93l-4.44,1.23.16,9.21,1.08-.51.21-7,1.93-.66v9.58l-4.5,1.4.28-14.79,6.53-1.61v16.17l1-.3s.06-11.08,0-17.67Z"/><path d="M316.39,286c0,.21,0,.41-.05.58-.17,2.05,0,8.7.25,16.69,1.72-.27,6.93-1.11,9.06-1.49V288.57s-6.49,1.41-7,1.38l.07,8.76,4.69-1.07-.14-2.15-3.51.16-.1-3.82,4.84-.89.24,9.08-7.5.58,0-12.83,10.19-2.18-.05-1.95-10.88,2.3Z"/><path d="M327,301.72l.3.06c1.07.2,4.67-.64,9.09-1.88,0-3.63,0-14.44-.08-18.75l-7,1.43s.11,13.06,0,14.19l4.73-.9-.17-9.65-1.17.51-.23,7.23-2.06.55v-9.82l4.87-1.42-.32,15.55-6.94,1V283.48l-1,.29s-.05,11.14,0,17.77Z"/><path d="M278.76,290.94c0-.19,0-.36.05-.51.13-1.82,0-7.74-.2-14.82-1.34.37-5.26,1.44-6.79,1.88v11.14s4.79-1.24,5.21-1.21l-.06-7.69-3.52,1.14.1,1.84,2.63-.25.07,3.32-3.59.83-.17-7.7,5.63-.92,0,11.35-7.54,1.78,0,1.64,8.08-1.79Z"/><path d="M270.89,277.6l-.21,0c-.74-.1-3.19.79-6.08,2,0,2.9,0,11.55,0,15l4.64-1s-.07-10.82,0-11.76l-3.17.9.11,7.8.77-.4.15-5.9,1.39-.49v8.08l-3.22,1.07.2-12.51,4.67-1.15v13.65l.7-.23s0-9.34,0-14.9Z"/><path d="M264.69,296.26c0,.18,0,.34,0,.48-.12,1.73,0,7.37.18,14.14,1.23-.2,4.95-.8,6.47-1.08V298.69s-4.62,1-5,1l.05,7.42,3.36-.81-.1-1.82-2.51,0L267,301.3l3.45-.64.17,7.66-5.35.34V297.8l7.26-1.58,0-1.65-7.76,1.66Z"/><path d="M272.22,309.8l.22.06c.76.19,3.3-.45,6.42-1.4,0-3,0-12.12-.05-15.74l-5,1s.08,11,0,11.95l3.35-.66-.12-8.1-.83.39-.16,6.08-1.46.41v-8.26l3.44-1.07-.22,13-4.91.71V294.46l-.72.22s0,9.38,0,15Z"/><path d="M295.74,287.42c0-.2,0-.38.05-.54.15-1.93,0-8.17-.23-15.66-1.49.41-5.86,1.6-7.56,2.1v11.75s5.34-1.37,5.81-1.35l-.06-8.12-3.92,1.26.11,1.94,2.92-.31L293,282l-4,.93-.19-8.13,6.28-1.06,0,12-8.4,2,0,1.73,9-2Z"/><path d="M287,273.44l-.24,0c-.83-.09-3.55.89-6.76,2.22,0,3.05,0,12.16,0,15.79l5.17-1.08s-.09-11.4,0-12.4l-3.53,1,.13,8.22.85-.43.17-6.22,1.54-.54v8.53l-3.58,1.16.22-13.19,5.19-1.28v14.4l.78-.24s.05-9.87,0-15.73Z"/><path d="M280.07,293.2c0,.19,0,.36-.05.51-.13,1.83,0,7.77.21,14.9,1.36-.22,5.5-.89,7.18-1.19V295.69s-5.15,1.14-5.58,1.1l.05,7.81,3.73-.88-.11-1.92-2.79.09-.08-3.41,3.85-.7.18,8.08-6,.41,0-11.45,8.08-1.75,0-1.74-8.63,1.84Z"/><path d="M288.45,307.4l.23.07c.85.19,3.69-.51,7.17-1.54,0-3.22,0-12.81-.06-16.63l-5.53,1.13s.09,11.6,0,12.61l3.74-.73-.14-8.56-.92.43-.18,6.42-1.63.45v-8.72l3.83-1.17L294.74,305l-5.47.8V291.2l-.8.24s0,9.91,0,15.8Z"/><path d="M360.57,274c0-.24.06-.46.07-.66.22-2.32,0-9.84-.32-18.84-2.17.58-8.47,2.29-10.93,3v14.09s7.7-1.93,8.38-1.92l-.09-9.77L352,261.6l.17,2.32,4.22-.53.12,4.22-5.78,1.33-.27-9.74,9.06-1.65,0,14.44-12.12,2.8.06,2.07,13-2.84Z"/><path d="M347.91,257.68l-.33,0c-1.2-.07-5.09,1.27-9.67,3.05,0,3.64,0,14.5.08,18.83l7.37-1.53s-.12-13.65,0-14.84l-5,1.38.18,9.81,1.22-.56.25-7.43,2.19-.74v10.2l-5.1,1.57.32-15.75,7.4-1.84V277l1.13-.33s.06-11.82,0-18.84Z"/><path d="M338.05,281.66c0,.23,0,.43-.06.61-.19,2.19,0,9.27.29,17.77,1.94-.31,7.86-1.26,10.27-1.68V284.31s-7.36,1.59-8,1.56l.08,9.33L346,294l-.16-2.29-4,.21-.11-4.06,5.5-1,.27,9.67-8.51.7,0-13.66,11.55-2.45L350.5,279l-12.35,2.61Z"/><path d="M350,298.31l.34.07c1.22.2,5.31-.74,10.36-2.11,0-3.88-.06-15.43-.1-20l-8,1.63s.13,13.93.05,15.14l5.39-1-.2-10.3-1.33.56L356.3,290l-2.35.61V280.11l5.54-1.59-.35,16.61-7.91,1.16V278.85l-1.15.32s-.06,11.88,0,18.95Z"/><path d="M388.52,268.18c0-.26.05-.49.08-.7.25-2.5,0-10.57-.38-20.22-2.49.67-9.74,2.62-12.56,3.42v15.09s8.85-2.2,9.63-2.21l-.1-10.47-6.52,2,.19,2.48,4.85-.65.14,4.52-6.64,1.52-.31-10.42,10.42-2,0,15.49-13.92,3.21.06,2.21,14.95-3.25Z"/><path d="M374,250.94l-.38,0c-1.37,0-5.83,1.46-11.06,3.45,0,3.9.06,15.5.1,20.13l8.42-1.75s-.13-14.6,0-15.88l-5.77,1.57.21,10.48,1.4-.62.27-8,2.52-.83v10.91l-5.84,1.76.36-16.84,8.47-2.11v18.45l1.3-.37s.07-12.65,0-20.17Z"/><path d="M362.69,276.76c0,.24-.05.46-.07.66-.22,2.33,0,9.89.33,19,2.22-.36,9-1.43,11.75-1.91V279.44s-8.43,1.8-9.13,1.78l.09,10,6.09-1.35-.18-2.45-4.56.28-.13-4.35,6.29-1.15.31,10.35-9.73.85,0-14.6L377,276l-.07-2.24-14.13,3Z"/><path d="M376.41,294.41l.38.08c1.4.2,6.11-.85,11.91-2.38,0-4.17-.06-16.56-.1-21.5l-9.19,1.87s.14,14.93,0,16.23l6.19-1.17-.22-11-1.54.62-.3,8.29-2.69.68,0-11.23,6.38-1.79-.41,17.83-9.09,1.34V273.55l-1.32.37s-.07,12.73-.05,20.29Z"/><path d="M420.87,261.47c0-.28.07-.53.1-.76.29-2.7,0-11.4-.44-21.8-2.9.77-11.32,3-14.59,4l0,16.24s10.26-2.53,11.17-2.55l-.11-11.3-7.57,2.27.22,2.67,5.63-.8.16,4.87-7.7,1.77-.37-11.22,12.1-2.32,0,16.72-16.15,3.7.07,2.38,17.34-3.77Z"/><path d="M404,243.18l-.45,0c-1.58,0-6.73,1.69-12.77,3.93,0,4.18.07,16.64.11,21.61l9.73-2s-.16-15.7-.06-17.08l-6.65,1.8.24,11.26,1.61-.69.32-8.55,2.9-.93v11.72l-6.74,2,.42-18.09,9.79-2.44v19.85l1.5-.42s.08-13.62.05-21.7Z"/><path d="M391,271.14c0,.26-.06.49-.08.7-.25,2.51,0,10.63.38,20.38,2.56-.41,10.38-1.65,13.58-2.19v-16.2s-9.74,2.07-10.56,2.05l.1,10.72,7.05-1.53-.22-2.63-5.27.36-.15-4.66,7.28-1.34.35,11.13-11.24,1,0-15.68,15.3-3.21-.07-2.41-16.34,3.42Z"/><path d="M406.81,289.92l.45.08c1.62.2,7.08-1,13.83-2.71,0-4.5-.07-17.87-.12-23.2l-10.68,2.18s.16,16.07,0,17.47l7.2-1.34-.26-11.9-1.78.69-.35,8.94-3.13.77,0-12.09,7.41-2L418.93,286l-10.55,1.56V267.44l-1.53.42s-.09,13.7-.06,21.84Z"/><path d="M458.78,253.61c.05-.3.09-.58.11-.82.35-2.95.05-12.39-.51-23.67-3.42.91-13.31,3.56-17.15,4.63l0,17.58s12.06-2.94,13.12-3l-.13-12.25-8.9,2.63.26,2.88,6.61-1,.19,5.28-9,2.07-.43-12.14L457.15,233l0,18.14-19,4.32.08,2.58,20.39-4.41Z"/><path d="M438.93,234.14a4.64,4.64,0,0,0-.52,0c-1.85,0-7.88,2-14.92,4.54,0,4.51.08,18,.13,23.32L435,259.63s-.19-17-.07-18.47l-7.77,2.1.27,12.15,1.88-.78.38-9.24,3.39-1.07,0,12.68-7.88,2.26.49-19.54,11.44-2.85v21.47l1.75-.48s.1-14.74.07-23.49Z"/><path d="M423.71,264.62c0,.28-.07.54-.09.76-.3,2.72,0,11.47.44,22,3-.47,12.12-1.91,15.87-2.54l0-17.53s-11.39,2.39-12.34,2.39l.12,11.57,8.23-1.74-.25-2.85-6.16.47-.17-5,8.5-1.56.42,12-13.14,1.27,0-16.93,17.89-3.73-.09-2.6-19.1,4Z"/><path d="M442.25,284.69c.19,0,.37.06.52.07,1.91.2,8.32-1.16,16.27-3.12,0-4.88-.09-19.4-.15-25.19L446.33,259s.19,17.41.07,18.93l8.46-1.55-.31-12.91-2.1.78L452,274l-3.68.89,0-13.11,8.72-2.34-.56,20.89-12.41,1.84v-21.8l-1.79.48s-.11,14.84-.07,23.65Z"/></g><path class="cls-5" d="M555.39,273.49c0-.24.06-.44.07-.63.22-2.25,0-9.89-.33-19.11-2.22-.55-9-2.23-11.75-2.87v15.05s8.43,1.62,9.14,1.93l-.09-10-6.1-1.13.18,2.52,4.57,1.58.12,4.39-6.29-1.4-.31-10.47,9.73,3.1,0,14.59-13.23-2.58.06,2.26,14.13,2.77Z"/><path class="cls-5" d="M541.68,250.26l-.39-.23c-1.4-.77-6.11-1.63-11.91-2.46,0,4.17.06,16.58.11,21.54l9.18,1.86s-.14-15,0-16.24l-6.2-1.36.22,11.13h1.54l.3-8.16,2.69.41,0,11.23-6.38-.8.41-17.66,9.09,2.35v18.69l1.32.17s.07-12.7.05-20.27Z"/><path class="cls-5" d="M529.57,271.57c0,.25-.06.47-.08.67-.26,2.4,0,10.56.37,20.37,2.49.34,9.74,1.33,12.56,1.68V279.2s-8.85-1.4-9.63-1.7l.1,10.51,6.52.67-.19-2.56-4.85-1.32-.14-4.57,6.64,1.17.31,10.55-10.42-2.28,0-15.49,13.92,2.45-.06-2.23-14.95-2.82Z"/><path class="cls-5" d="M544.12,294.72l.38.19c1.37.6,5.83.9,11.06,1,0-3.9-.06-15.52-.1-20.16L547,274.11s.14,14.66,0,15.9l5.77.77-.21-10.56-1.39,0-.28,7.84-2.51-.2,0-10.91,5.84.62-.36,16.69L545.45,293V274.52l-1.3-.15s-.07,12.62,0,20.15Z"/><path class="cls-5" d="M580,278.59c0-.21,0-.41.06-.58.19-2.11,0-9.26-.29-17.89-1.94-.47-7.86-1.93-10.27-2.49v14.06s7.36,1.4,8,1.68l-.08-9.36-5.33-1,.16,2.36,4,1.4.11,4.11-5.5-1.22-.26-9.78,8.5,2.75,0,13.65-11.56-2.24.05,2.11,12.35,2.41Z"/><path class="cls-5" d="M568,257.08l-.34-.21c-1.22-.69-5.31-1.42-10.35-2.1,0,3.88,0,15.45.09,20.07l8,1.61s-.13-14,0-15.15L560,260.13l.2,10.37h1.33l.27-7.62,2.34.35v10.47L558.6,273l.36-16.47,7.9,2.05v17.45l1.15.14s.06-11.86,0-18.93Z"/><path class="cls-5" d="M557.51,277.13c0,.23,0,.44-.07.62-.22,2.24,0,9.84.32,19,2.17.3,8.47,1.15,10.93,1.45V284.09s-7.7-1.2-8.38-1.48l.09,9.81,5.67.55-.17-2.38-4.22-1.18-.12-4.27,5.78,1,.27,9.85-9.06-2,0-14.43,12.11,2.12,0-2.09-13-2.45Z"/><path class="cls-5" d="M570.17,298.57l.34.17c1.19.55,5.08.79,9.66.88,0-3.66,0-14.53-.08-18.87l-7.37-1.46s.12,13.69,0,14.85l5,.67-.18-9.88-1.22.06-.25,7.33-2.19-.15V282l5.11.51-.32,15.62-7.41-1.17V279.69l-1.13-.13s-.06,11.79,0,18.82Z"/><path class="cls-5" d="M494.37,260.83c0-.26.07-.51.09-.72.3-2.6,0-11.46-.44-22.17-3-.74-12.12-3-15.87-3.91l0,17.54s11.39,2.24,12.34,2.62l-.12-11.62-8.23-1.6.25,2.95,6.16,2,.17,5.11-8.5-1.9L479.82,237,493,241l0,16.91L475,254.41l.09,2.63,19.1,3.78Z"/><path class="cls-5" d="M475.84,233.23l-.53-.29c-1.9-1-8.32-2.21-16.27-3.48,0,4.89.09,19.44.15,25.25l12.56,2.54s-.19-17.49-.06-19l-8.47-1.88.31,13,2.1.07L466,240l3.68.61,0,13.11-8.72-1.2.56-20.66,12.41,3.2v21.8l1.8.25s.1-14.8.06-23.63Z"/><path class="cls-5" d="M459.3,257.59c-.05.29-.08.55-.11.78-.35,2.8-.05,12.37.51,23.88,3.42.47,13.31,1.84,17.15,2.33l0-17.58s-12.06-2-13.12-2.35l.13,12.31,8.9,1-.26-3-6.61-1.7-.19-5.36,9,1.6.43,12.31-14.22-3,0-18.13,19,3.39-.08-2.61-20.39-3.88Z"/><path class="cls-5" d="M479.15,285.13l.52.23c1.85.73,7.88,1.21,14.92,1.52,0-4.53-.08-18-.13-23.38l-11.36-2.26s.19,17.05.07,18.5l7.78,1.07-.28-12.27h-1.88l-.38,9.09-3.39-.3V264.65l7.87.93-.49,19.35L481,283.13V261.66l-1.75-.23s-.1,14.69-.06,23.46Z"/><path class="cls-5" d="M527.13,267.63c0-.25.06-.48.08-.68.25-2.4,0-10.61-.38-20.52-2.56-.64-10.38-2.58-13.58-3.33v16.2s9.74,1.89,10.56,2.23l-.1-10.75-7.05-1.34.22,2.72,5.27,1.78.15,4.73L515,257l-.36-11.27,11.24,3.53,0,15.67-15.3-3,.07,2.43L527,267.62Z"/><path class="cls-5" d="M511.27,242.4c-.16-.1-.31-.19-.45-.26-1.62-.86-7.08-1.89-13.83-2.91,0,4.5.08,17.9.12,23.25l10.68,2.16s-.16-16.14-.05-17.5l-7.2-1.59.26,12,1.78,0,.36-8.79,3.12.5,0,12.09-7.41-1,.48-19.05,10.55,2.73v20.13l1.53.2s.09-13.67.06-21.82Z"/><path class="cls-5" d="M497.21,265.13c0,.27-.07.51-.1.72-.29,2.59,0,11.39.44,22,2.9.4,11.32,1.56,14.59,2l0-16.24s-10.26-1.65-11.17-2l.12,11.34,7.57.81-.23-2.76-5.62-1.49-.16-4.94,7.69,1.36.37,11.37-12.1-2.6,0-16.7,16.15,2.87-.07-2.41-17.35-3.29Z"/><path class="cls-5" d="M514.1,290.29c.17.08.31.15.45.2,1.58.67,6.73,1.05,12.77,1.26,0-4.19-.07-16.67-.11-21.65l-9.73-1.94s.16,15.77.06,17.1l6.65.9L524,274.81l-1.62,0-.32,8.42-2.9-.25V271.29l6.74.76L525.43,290l-9.79-1.55V268.58l-1.49-.19s-.09,13.58-.06,21.68Z"/><path class="cls-5" d="M601.69,283.09c0-.21,0-.39,0-.56.17-2,0-8.69-.25-16.8-1.72-.42-6.93-1.7-9.06-2.19v13.19s6.49,1.22,7,1.48l-.07-8.8-4.69-.83.14,2.21,3.51,1.27.1,3.85-4.84-1.07-.24-9.18,7.5,2.46,0,12.83-10.18-2,0,2,10.88,2.12Z"/><path class="cls-5" d="M591.13,263.05l-.3-.19c-1.07-.63-4.67-1.25-9.09-1.81,0,3.63,0,14.46.08,18.79l7,1.41s-.11-13.1,0-14.21l-4.73-1,.17,9.71,1.17,0,.23-7.14,2.06.29v9.82l-4.86-.55.31-15.43,6.94,1.81v16.35l1,.12s.06-11.12,0-17.75Z"/><path class="cls-5" d="M581.88,282c0,.21,0,.41-.06.58-.19,2.1,0,9.21.28,17.77,1.9.25,7.44,1,9.6,1.26V288.38s-6.77-1.05-7.36-1.3l.07,9.18,5,.47-.14-2.24-3.71-1.06-.1-4,5.07.89.24,9.23-8-1.82,0-13.51,10.64,1.85-.05-2L582,282Z"/><path class="cls-5" d="M593,301.94l.3.16c1,.5,4.48.7,8.52.74,0-3.43-.05-13.65-.08-17.73l-6.5-1.29s.11,12.85,0,13.94l4.44.58-.16-9.28-1.07.07-.22,6.89-1.93-.12v-9.58l4.5.42-.28,14.68-6.53-1V284.21l-1-.11s-.06,11.07,0,17.66Z"/><path class="cls-5" d="M620.89,287.07c0-.2,0-.37,0-.53.16-1.87,0-8.2-.22-15.84-1.53-.37-6.16-1.5-8-1.93v12.41s5.75,1.08,6.24,1.31l-.07-8.29-4.17-.72.13,2.08,3.12,1.15.09,3.63-4.3-.95-.21-8.64,6.65,2.22v12.09l-9-1.73,0,1.86,9.66,1.87Z"/><path class="cls-5" d="M611.51,268.32a2.29,2.29,0,0,0-.27-.17c-1-.58-4.13-1.12-8-1.58,0,3.42,0,13.6.07,17.66l6.2,1.25s-.1-12.33,0-13.37l-4.19-.89.15,9.13,1,0,.2-6.72,1.82.25v9.23l-4.3-.46.28-14.5,6.14,1.6V285.1l.89.1s0-10.47,0-16.71Z"/><path class="cls-5" d="M603.32,286.24c0,.21,0,.39-.05.56-.17,2,0,8.65.25,16.69,1.68.23,6.58.88,8.49,1.11V292.16s-6-.91-6.52-1.14l.07,8.63,4.4.39-.13-2.1-3.27-1-.1-3.76L611,294l.22,8.69-7-1.65,0-12.7,9.42,1.63,0-1.85-10.11-1.88Z"/><path class="cls-5" d="M613.17,304.92l.26.14c.93.47,4,.63,7.57.63,0-3.23,0-12.87-.07-16.72l-5.77-1.14s.09,12.11,0,13.14l3.95.5-.14-8.75-1,.08-.19,6.5-1.72-.1v-9l4,.35-.25,13.85-5.8-.93V288.21l-.88-.09s-.05,10.42,0,16.63Z"/><path class="cls-5" d="M638,290.62c0-.19,0-.35,0-.5.13-1.77,0-7.76-.21-15-1.36-.33-5.5-1.34-7.18-1.73v11.74s5.14.94,5.57,1.16l0-7.84-3.73-.63.11,2,2.79,1,.08,3.44-3.84-.86-.19-8.15,6,2,0,11.44-8.07-1.54,0,1.76,8.64,1.67Z"/><path class="cls-5" d="M629.63,273l-.23-.16c-.85-.54-3.69-1-7.17-1.38,0,3.23,0,12.83.06,16.66l5.53,1.11s-.09-11.64,0-12.62l-3.74-.79.14,8.61.92-.05.18-6.34,1.63.21V287l-3.84-.39.25-13.69,5.47,1.43v14.54l.8.09s0-9.89,0-15.79Z"/><path class="cls-5" d="M622.34,290c0,.19,0,.36-.05.52-.15,1.86,0,8.16.23,15.74,1.49.2,5.86.79,7.57,1V295.52s-5.34-.8-5.81-1l.06,8.14,3.93.34-.12-2-2.92-.89-.09-3.54,4,.7.19,8.2L623.05,304l0-12,8.4,1.43,0-1.74-9-1.67Z"/><path class="cls-5" d="M631.12,307.57l.23.13c.83.44,3.55.56,6.77.54,0-3.06,0-12.18-.06-15.82l-5.17-1s.09,11.44,0,12.42l3.53.44-.13-8.27-.85.08-.17,6.15-1.54-.08v-8.53l3.58.29L637.11,307l-5.19-.82v-14.4l-.78-.07s0,9.84,0,15.71Z"/><path class="cls-5" d="M653.39,293.81c0-.18,0-.33,0-.47.12-1.68,0-7.37-.18-14.22-1.23-.3-5-1.2-6.46-1.54v11.11s4.63.85,5,1.05l0-7.44-3.36-.55.11,1.86,2.5,1,.07,3.26-3.45-.77-.17-7.73,5.35,1.83V292l-7.26-1.37,0,1.66,7.76,1.5Z"/><path class="cls-5" d="M645.86,277.2l-.21-.14c-.76-.5-3.31-.9-6.43-1.21,0,3,0,12.13,0,15.76l5,1s-.08-11,0-12l-3.35-.7.13,8.15.82-.06.16-6,1.46.18v8.26l-3.44-.32.22-13,4.91,1.28v13.78l.72.07s0-9.38,0-15Z"/><path class="cls-5" d="M639.32,293.4c0,.19,0,.35-.05.5-.13,1.76,0,7.73.21,14.9,1.33.18,5.25.7,6.78.87V298.53s-4.8-.71-5.21-.9l.05,7.71,3.52.29-.1-1.88-2.62-.82-.08-3.35,3.59.63.17,7.77L640,306.62V295.27l7.54,1.28,0-1.65-8.08-1.49Z"/><path class="cls-5" d="M647.19,309.94l.21.13c.75.4,3.19.5,6.08.46,0-2.91,0-11.56-.05-15l-4.64-.92s.07,10.85,0,11.77l3.17.39-.11-7.84-.77.09-.15,5.83-1.38-.07v-8.09l3.22.25-.2,12.42-4.66-.74V295l-.71-.06s0,9.33,0,14.89Z"/><path class="cls-5" d="M616.87,415.07c0-.39.07-.75.1-1.06.3-3.8,0-16.16-.45-31-3.06.33-12.52,1.34-16.46,1.82l0,25.07s11.86-2.38,12.84-2.29l-.12-16.37-8.53,1.61.26,4.08,6.39,0,.18,7.15-8.84,1.41-.43-17.23,13.6-.37,0,23.88-18.61,3.78.09,3.74,19.85-4.09Z"/><path class="cls-5" d="M597.63,384.73l-.56-.16c-2-.5-8.86.73-17.47,2.68,0,7.1.1,28.25.16,36.68l13.54-2.72s-.21-25.07-.07-27.24l-9.09,1.36.34,18.75,2.26-.95.45-14,3.94-.9,0,18.89-9.39,2.67.61-30.3,13.31-1.28v31.29l1.89-.54s.11-21.26.07-33.9Z"/><path class="cls-5" d="M579.88,428.07c0,.44-.09.84-.12,1.19-.37,4.27,0,18,.56,34.49,3.71-1.19,14.32-4.6,18.38-6l0-25.16s-12.86,3.42-14,3.42l.14,17.76,9.54-3.34-.28-4.16L587,447.35l-.21-7.65,9.66-2.41.45,17.44-15.24,3.37,0-26.37,20.24-4.86-.08-3.68L580.07,428Z"/><path class="cls-5" d="M601.12,457.33l.54.05c1.94.06,8.21-2.46,15.44-5.73,0-6.36-.08-25.31-.13-32.86l-11.72,2.43s.2,24.18.07,26.3l8-2.54-.29-17.2-1.93,1-.39,13.07-3.51,1.32,0-18,8.12-2.62-.51,27.55L603,453.52V422.89l-1.84.55s-.1,21.05-.07,33.56Z"/><path class="cls-5" d="M649.33,408.81c0-.35.06-.67.08-1,.24-3.41,0-14.52-.37-27.9-2.47.27-10.08,1.09-13.23,1.49l0,22.43s9.52-1.95,10.31-1.86l-.1-14.7-6.86,1.35.21,3.66,5.14,0,.14,6.42-7.1,1.14-.35-15.43,10.95-.2,0,21.47-15,3.07.07,3.34,16-3.31Z"/><path class="cls-5" d="M633.86,381.36a3.84,3.84,0,0,0-.44-.15c-1.61-.46-7.06.57-13.88,2.22,0,6.32.08,25.12.13,32.62l10.74-2.16s-.17-22.39-.06-24.33l-7.22,1.11.27,16.7,1.79-.81.36-12.45,3.13-.76,0,16.85-7.46,2.21.49-26.94,10.58-1v28l1.52-.45s.08-19,0-30.3Z"/><path class="cls-5" d="M619.76,419.73c0,.39-.07.74-.09,1.06-.3,3.78,0,16,.44,30.67,2.94-.95,11.37-3.67,14.61-4.77l0-22.51s-10.24,2.77-11.15,2.74l.12,15.82,7.57-2.72L631,436.3l-5.62.76-.17-6.82,7.69-1.93.36,15.59-12.12,2.57,0-23.45,16.12-3.91-.07-3.3-17.34,3.86Z"/><path class="cls-5" d="M636.65,446.35l.44.06c1.55.11,6.59-2,12.42-4.7,0-5.72-.06-22.76-.1-29.56l-9.44,2s.16,21.67,0,23.56l6.48-2.07-.23-15.45-1.56.82-.31,11.73-2.83,1.09V417.65l6.54-2.18-.41,24.74L638.17,443V415.57l-1.47.46s-.09,18.83-.06,30Z"/><path class="cls-5" d="M523.83,433c.07-.51.12-1,.16-1.38.5-4.91.07-20.82-.75-40-5.1.53-21.05,2.18-27.75,3l0,32.8s20.08-3.88,21.73-3.82L517,402.44l-14.38,2.48.44,5.31,10.8-.39.3,9.26-15,2.37L498.5,399l22.93-1,0,30.82L489.85,435l.15,4.9,33.58-6.82Z"/><path class="cls-5" d="M491.31,394.63c-.36-.08-.68-.15-1-.19-3.47-.58-15.38,1.31-30.55,4.24,0,9.47.17,37.67.28,48.9l23.76-4.75s-.36-33-.12-35.87l-15.89,2.26.6,24.87,4-1.42.78-18.56,6.89-1.41,0,24.92-16.49,4.29,1.08-40.35L488,399.28V440.4l3.26-.86s.19-27.89.12-44.46Z"/><path class="cls-5" d="M460.28,453.09c-.08.59-.15,1.13-.21,1.6-.67,5.72-.08,24,1,45.89,6.56-2.08,25.08-8,32.07-10.28l0-33s-22.33,5.78-24.36,5.89l.26,23.56,16.64-5.56-.48-5.45L472.84,478l-.35-10.11,16.79-4.19.78,22.84-26.63,6.37.08-35.1,35.19-8.27-.14-4.8L460.63,453Z"/><path class="cls-5" d="M497.29,489.41h.93c3.3-.16,13.9-4.2,26-9.27,0-8.2-.13-32.6-.22-42.33l-19.66,4.07s.33,31.46.12,34.23L518,471.93l-.47-22.21-3.25,1.42-.65,17-5.91,2.08,0-23.42,13.62-4-.84,35.6-20,5.87v-40l-3.13.88s-.18,27.53-.12,43.87Z"/><path class="cls-5" d="M576.22,422.91c0-.44.09-.85.12-1.2.39-4.29,0-18.2-.57-34.93-3.88.4-16,1.68-21,2.28l0,28.42s15.17-3,16.41-2.91l-.15-18.47-10.89,2,.33,4.62,8.17-.18.23,8.07-11.3,1.8L557,392.87l17.36-.62,0,26.9-23.81,4.78.11,4.24L576,423Z"/><path class="cls-5" d="M551.63,389l-.72-.17c-2.6-.54-11.46,1-22.66,3.31,0,8.11.13,32.28.21,41.92l17.59-3.52s-.28-28.5-.1-31l-11.78,1.72.44,21.38,2.94-1.14.58-16,5.11-1.11,0,21.5-12.2,3.32.79-34.61L549.12,393v35.54l2.44-.67s.14-24.13.09-38.47Z"/><path class="cls-5" d="M528.62,438.79c-.06.51-.12,1-.16,1.37-.49,4.89-.06,20.61.74,39.38,4.83-1.54,18.58-5.94,23.8-7.68l0-28.55s-16.63,4.37-18.12,4.41l.19,20.26,12.35-4.24L547,459l-9.16,1.5-.26-8.71,12.49-3.12.58,19.77L530.94,473l0-30.11,26.19-6.22-.11-4.17-28.2,6.19Z"/><path class="cls-5" d="M556.12,471.23l.7,0c2.48,0,10.49-3.16,19.69-7.17,0-7.16-.1-28.49-.17-37l-14.92,3.1s.25,27.34.09,29.74l10.26-3.2-.36-19.38-2.47,1.15-.49,14.77L564,454.9l0-20.37,10.34-3.2-.64,31.06-15.11,4.44V432.15l-2.36.68s-.13,23.86-.08,38Z"/><path class="cls-5" d="M675.85,403.7c0-.32,0-.61.06-.87.2-3.1,0-13.2-.3-25.35-2,.22-8.29.91-10.87,1.24V399s7.82-1.63,8.47-1.53l-.08-13.35-5.64,1.15.17,3.32,4.22.1.12,5.82-5.83.94-.29-14,9-.08,0,19.49-12.27,2.56.06,3,13.1-2.74Z"/><path class="cls-5" d="M663.14,378.63l-.36-.14c-1.31-.43-5.76.46-11.29,1.9,0,5.68.06,22.6.1,29.35l8.73-1.76s-.13-20.22,0-22l-5.88.93.22,15,1.46-.69.28-11.23,2.56-.65v15.22l-6.06,1.86.39-24.26,8.61-.82v25.27l1.24-.38s.07-17.18,0-27.39Z"/><path class="cls-5" d="M651.67,413.05c0,.36-.06.67-.08,1-.24,3.39,0,14.42.36,27.61,2.38-.77,9.24-3,11.89-3.9V417.36s-8.35,2.29-9.09,2.25l.1,14.26L661,431.6l-.18-3.37-4.59.55-.13-6.15,6.26-1.57.3,14.1-9.86,2,0-21.12L666,412.83l-.06-3L651.79,413Z"/><path class="cls-5" d="M665.43,437.47l.35.06c1.28.14,5.41-1.61,10.22-3.94,0-5.2,0-20.68-.09-26.85l-7.76,1.62s.12,19.62,0,21.34l5.32-1.72-.19-14-1.28.72-.26,10.62-2.32.93V411.58l5.38-1.86-.33,22.46-7.83,2.28V409.64l-1.21.39s-.07,17,0,27.16Z"/><path class="cls-5" d="M697.92,399.44c0-.29,0-.56.05-.79.17-2.84,0-12.09-.25-23.23-1.71.19-6.94.77-9.09,1.06V395s6.53-1.39,7.07-1.29l-.07-12.22-4.71,1,.14,3,3.53.13.1,5.33-4.87.79L689.59,379h7.52l0,17.85L686.84,399l0,2.75,11-2.3Z"/><path class="cls-5" d="M687.3,376.38l-.31-.13c-1.09-.4-4.78.38-9.36,1.64,0,5.17,0,20.55.09,26.69l7.23-1.46s-.11-18.43,0-20l-4.87.78.18,13.7,1.21-.61.24-10.22,2.11-.57V400l-5,1.61.33-22.07,7.14-.67v23l1-.32s.06-15.68,0-25Z"/><path class="cls-5" d="M677.78,407.59q0,.48-.06.87c-.2,3.08,0,13.11.29,25.11,2-.64,7.67-2.5,9.87-3.26V411.74s-6.93,1.93-7.55,1.87l.08,13,5.12-1.92-.15-3.08-3.8.4-.11-5.6,5.2-1.31L686.9,428l-8.18,1.59,0-19.21,10.91-2.7,0-2.72-11.73,2.64Z"/><path class="cls-5" d="M689.2,430.12l.3.07c1.06.16,4.52-1.34,8.54-3.36,0-4.76,0-18.95-.07-24.6l-6.5,1.36s.11,17.94,0,19.5l4.45-1.45-.16-12.85-1.07.63-.22,9.72-1.94.8V406.56l4.51-1.62-.29,20.57-6.55,1.9V404.73l-1,.34s-.06,15.56,0,24.8Z"/></g></g></svg>