<svg xmlns="http://www.w3.org/2000/svg" viewBox="0 0 789.07 606.26"><defs><style>.cls-1{isolation:isolate;}.cls-2{fill:#492a0e;}.cls-3{fill:#be901c;}.cls-4{fill:#d1f3ff;}.cls-5,.cls-8{opacity:0.2;mix-blend-mode:luminosity;}.cls-6{fill:#b08148;}.cls-7{fill:#f1b724;}</style></defs><g class="cls-1"><g id="final2"><path class="cls-2" d="M396.56,463a12,12,0,0,1-3.47-.51l-240.6-72.88A12,12,0,0,1,144,378.22l-.33-51.57a12,12,0,0,1,10.6-12l1.53-44.76a12,12,0,0,1,10.45-11.49l21.3-2.76.58-25.9a12,12,0,0,1,8.78-11.3L227,210.08V191.59a12,12,0,0,1,8.09-11.34L281,164.42l.72-46.82a12,12,0,0,1,6.57-10.52L389.11,55.94a12,12,0,0,1,10.86,0l100.6,51a12,12,0,0,1,6.57,10.62l.29,46.38,46.29,15.92a12,12,0,0,1,8.1,11.26L562,210l29.89,8a12,12,0,0,1,8.89,11.5l.19,25.14,20.51,3.51a12,12,0,0,1,10,11.95L631,313.86h2.21a12,12,0,0,1,12,11.92l.33,50.31a12,12,0,0,1-8.39,11.52l-237,74.86A12.09,12.09,0,0,1,396.56,463Z"/><g id="Perspective_Text" data-name="Perspective Text"><path class="cls-3" d="M185.58,281.44l-6.29.5v41.7l-5.75-.44V282.4l-5.78.47V270.31L185.58,268Z"/><path class="cls-3" d="M208.77,311.34v14.59l-17.69-1.37V267.29L208.44,265v14.57l-10.8.86v8.26l9.18-.46v13.46l-9.18,0V311Z"/><path class="cls-3" d="M238.6,328.24V292.89l-5.28,24.62-4.48-.21-5-23.95V327.1l-7.82-.61V264.05l8.56-1.11,6.45,30,6.77-31.71,9.81-1.27v69Z"/><path class="cls-3" d="M258.57,329.78V258.54l16.3-2.11a7,7,0,0,1,5.44,1.59,16.72,16.72,0,0,1,4.39,5.5,34,34,0,0,1,2.94,8.28,43.72,43.72,0,0,1,1.08,9.68,48.94,48.94,0,0,1-1,10,37.92,37.92,0,0,1-2.82,8.62,18.06,18.06,0,0,1-4.31,5.91,7.91,7.91,0,0,1-5.42,2.11l-6.37-.09v22.53Zm10.21-39.29,5.65-.21c.67,0,1.29-.62,1.87-1.8s.87-3.3.87-6.33-.33-5.19-1-6.27-1.34-1.58-2-1.53l-5.37.43Z"/><path class="cls-3" d="M299.74,333V253.2l12.85-1.66v62.69l23.2.65v20.89Z"/><path class="cls-3" d="M394.32,316.51V340.3L349,336.79v-90l44.43-5.76v23.75l-28,2.24V280.2L389.13,279v21.87l-23.72.12v14.73Z"/><path class="cls-4" d="M185.58,281.44l-6.29.5v41.7l-5.75-.44V282.4l-5.78.47V270.31L185.58,268Z"/><path class="cls-4" d="M208.77,311.34v14.59l-17.69-1.37V267.29L208.44,265v14.57l-10.8.86v8.26l9.18-.46v13.46l-9.18,0V311Z"/><path class="cls-4" d="M238.6,328.24V292.89l-5.28,24.62-4.48-.21-5-23.95V327.1l-7.82-.61V264.05l8.56-1.11,6.45,30,6.77-31.71,9.81-1.27v69Z"/><path class="cls-4" d="M258.57,329.78V258.54l16.3-2.11a7,7,0,0,1,5.44,1.59,16.72,16.72,0,0,1,4.39,5.5,34,34,0,0,1,2.94,8.28,43.72,43.72,0,0,1,1.08,9.68,48.94,48.94,0,0,1-1,10,37.92,37.92,0,0,1-2.82,8.62,18.06,18.06,0,0,1-4.31,5.91,7.91,7.91,0,0,1-5.42,2.11l-6.37-.09v22.53Zm10.21-39.29,5.65-.21c.67,0,1.29-.62,1.87-1.8s.87-3.3.87-6.33-.33-5.19-1-6.27-1.34-1.58-2-1.53l-5.37.43Z"/><path class="cls-4" d="M299.74,333V253.2l12.85-1.66v62.69l23.2.65v20.89Z"/><path class="cls-4" d="M394.32,316.51V340.3L349,336.79v-90l44.43-5.76v23.75l-28,2.24V280.2L389.13,279v21.87l-23.72.12v14.73Z"/><g class="cls-5"><path d="M185.58,281.44l-6.29.5v41.7l-5.75-.44V282.4l-5.78.47V270.31L185.58,268Z"/><path d="M208.77,311.34v14.59l-17.69-1.37V267.29L208.44,265v14.57l-10.8.86v8.26l9.18-.46v13.46l-9.18,0V311Z"/><path d="M238.6,328.24V292.89l-5.28,24.62-4.48-.21-5-23.95V327.1l-7.82-.61V264.05l8.56-1.11,6.45,30,6.77-31.71,9.81-1.27v69Z"/><path d="M258.57,329.78V258.54l16.3-2.11a7,7,0,0,1,5.44,1.59,16.72,16.72,0,0,1,4.39,5.5,34,34,0,0,1,2.94,8.28,43.72,43.72,0,0,1,1.08,9.68,48.94,48.94,0,0,1-1,10,37.92,37.92,0,0,1-2.82,8.62,18.06,18.06,0,0,1-4.31,5.91,7.91,7.91,0,0,1-5.42,2.11l-6.37-.09v22.53Zm10.21-39.29,5.65-.21c.67,0,1.29-.62,1.87-1.8s.87-3.3.87-6.33-.33-5.19-1-6.27-1.34-1.58-2-1.53l-5.37.43Z"/><path d="M299.74,333V253.2l12.85-1.66v62.69l23.2.65v20.89Z"/><path d="M394.32,316.51V340.3L349,336.79v-90l44.43-5.76v23.75l-28,2.24V280.2L389.13,279v21.87l-23.72.12v14.73Z"/></g></g><g id="Perspective_Text-2" data-name="Perspective Text"><path d="M454,331.36a23.83,23.83,0,0,1-6,4,20.25,20.25,0,0,1-7,1.79,19.4,19.4,0,0,1-12.21-3,32.67,32.67,0,0,1-9.86-10.08,54.62,54.62,0,0,1-6.6-15.27,68.39,68.39,0,0,1-2.4-18.13,65.13,65.13,0,0,1,2.49-18.13,50,50,0,0,1,6.82-14.82,30,30,0,0,1,10-9.33,19.22,19.22,0,0,1,12.07-2.25,21.23,21.23,0,0,1,11.54,5.4,39.09,39.09,0,0,1,8.46,11,58.85,58.85,0,0,1,5.25,14.32,70,70,0,0,1,1.82,15.87,65.68,65.68,0,0,1-1.68,15,53.37,53.37,0,0,1-4.81,13.12l7.76,13.48-13.24,1Zm-12.85-16.08a7.92,7.92,0,0,0,3-.58l-9.52-16.17,14.63.15,3,5.33a36.08,36.08,0,0,0,1.23-5.9,51.42,51.42,0,0,0,.38-6.25,48.1,48.1,0,0,0-.76-8.57,29.4,29.4,0,0,0-2.35-7.46,16.69,16.69,0,0,0-4-5.44A9.51,9.51,0,0,0,441,268a8.3,8.3,0,0,0-5.93,1.63,15,15,0,0,0-4.23,5.24,28.29,28.29,0,0,0-2.51,7.65,48.27,48.27,0,0,0-.81,8.89,47.14,47.14,0,0,0,.85,9.07,29.58,29.58,0,0,0,2.55,7.71,15,15,0,0,0,4.23,5.27A9,9,0,0,0,441.11,315.28Z"/><path d="M506.44,313.56a4.41,4.41,0,0,0,3.35-1.69,12.48,12.48,0,0,0,2.21-4.23,30.27,30.27,0,0,0,1.24-6,61.43,61.43,0,0,0,.39-7.05V256.2l10.6,1.37v37.3a94.15,94.15,0,0,1-1,14.16,46.3,46.3,0,0,1-3.16,11.59,23.1,23.1,0,0,1-5.51,8,13.23,13.23,0,0,1-8.11,3.47,12.1,12.1,0,0,1-8.67-2.45,21.68,21.68,0,0,1-6.17-8.11A47,47,0,0,1,488,309.18a95.41,95.41,0,0,1-1.16-15.2V252.71L499,254.3v40a63.24,63.24,0,0,0,.42,7.4,30.88,30.88,0,0,0,1.33,6.22,11.76,11.76,0,0,0,2.29,4.19A4.27,4.27,0,0,0,506.44,313.56Z"/><path d="M562.63,311.69v15.47l-22.69,1.75V259.62l22.31,2.9V278l-13.19-1.06v9.49l11.34.59v14.47l-11.34-.06v10.64Z"/><path d="M590.11,285.39a25,25,0,0,0-2.17-2.81,18.29,18.29,0,0,0-2.15-2.05,4.28,4.28,0,0,0-2.37-1.08,1.76,1.76,0,0,0-1.52.56,3.44,3.44,0,0,0-.57,2.26,5.17,5.17,0,0,0,.33,2,5.1,5.1,0,0,0,1,1.47,10,10,0,0,0,1.51,1.32c.59.42,1.26.94,2,1.54a22.83,22.83,0,0,1,3.13,2.9,15.51,15.51,0,0,1,2.34,3.6,19.84,19.84,0,0,1,1.47,4.93,40.67,40.67,0,0,1,.51,7,41.84,41.84,0,0,1-.8,8.85,20.33,20.33,0,0,1-2.13,5.85,9.65,9.65,0,0,1-3,3.33,7.54,7.54,0,0,1-3.49,1.25,9,9,0,0,1-2.93-.28,13.61,13.61,0,0,1-3-1.24,18.54,18.54,0,0,1-5.67-4.87l3.25-15.08a26.58,26.58,0,0,0,2.78,3.35,15.13,15.13,0,0,0,2.7,2.26,5.13,5.13,0,0,0,3,.94,1.77,1.77,0,0,0,1.6-.76,3.56,3.56,0,0,0,.45-1.9,4.67,4.67,0,0,0-.45-2.14,5,5,0,0,0-1.24-1.55,18.13,18.13,0,0,0-1.83-1.35,27.26,27.26,0,0,1-2.23-1.62,18.79,18.79,0,0,1-3-3,15.11,15.11,0,0,1-2.14-3.7,21.06,21.06,0,0,1-1.26-4.72,40.62,40.62,0,0,1-.4-6.07,43.14,43.14,0,0,1,.83-9.05,21.69,21.69,0,0,1,2.25-6.31,9.87,9.87,0,0,1,3.18-3.55,5.49,5.49,0,0,1,3.7-.84,7,7,0,0,1,2.74,1,16,16,0,0,1,2.53,1.91,24.82,24.82,0,0,1,2.24,2.35c.69.82,1.31,1.59,1.85,2.31Z"/><path d="M619.42,282.6l-5.84-.47v41.1l-5.83.45v-42l-6.42-.51V267.6L619.42,270Z"/><path class="cls-4" d="M454,331.36a23.83,23.83,0,0,1-6,4,20.25,20.25,0,0,1-7,1.79,19.4,19.4,0,0,1-12.21-3,32.67,32.67,0,0,1-9.86-10.08,54.62,54.62,0,0,1-6.6-15.27,68.39,68.39,0,0,1-2.4-18.13,65.13,65.13,0,0,1,2.49-18.13,50,50,0,0,1,6.82-14.82,30,30,0,0,1,10-9.33,19.22,19.22,0,0,1,12.07-2.25,21.23,21.23,0,0,1,11.54,5.4,39.09,39.09,0,0,1,8.46,11,58.85,58.85,0,0,1,5.25,14.32,70,70,0,0,1,1.82,15.87,65.68,65.68,0,0,1-1.68,15,53.37,53.37,0,0,1-4.81,13.12l7.76,13.48-13.24,1Zm-12.85-16.08a7.92,7.92,0,0,0,3-.58l-9.52-16.17,14.63.15,3,5.33a36.08,36.08,0,0,0,1.23-5.9,51.42,51.42,0,0,0,.38-6.25,48.1,48.1,0,0,0-.76-8.57,29.4,29.4,0,0,0-2.35-7.46,16.69,16.69,0,0,0-4-5.44A9.51,9.51,0,0,0,441,268a8.3,8.3,0,0,0-5.93,1.63,15,15,0,0,0-4.23,5.24,28.29,28.29,0,0,0-2.51,7.65,48.27,48.27,0,0,0-.81,8.89,47.14,47.14,0,0,0,.85,9.07,29.58,29.58,0,0,0,2.55,7.71,15,15,0,0,0,4.23,5.27A9,9,0,0,0,441.11,315.28Z"/><path class="cls-4" d="M506.44,313.56a4.41,4.41,0,0,0,3.35-1.69,12.48,12.48,0,0,0,2.21-4.23,30.27,30.27,0,0,0,1.24-6,61.43,61.43,0,0,0,.39-7.05V256.2l10.6,1.37v37.3a94.15,94.15,0,0,1-1,14.16,46.3,46.3,0,0,1-3.16,11.59,23.1,23.1,0,0,1-5.51,8,13.23,13.23,0,0,1-8.11,3.47,12.1,12.1,0,0,1-8.67-2.45,21.68,21.68,0,0,1-6.17-8.11A47,47,0,0,1,488,309.18a95.41,95.41,0,0,1-1.16-15.2V252.71L499,254.3v40a63.24,63.24,0,0,0,.42,7.4,30.88,30.88,0,0,0,1.33,6.22,11.76,11.76,0,0,0,2.29,4.19A4.27,4.27,0,0,0,506.44,313.56Z"/><path class="cls-4" d="M562.63,311.69v15.47l-22.69,1.75V259.62l22.31,2.9V278l-13.19-1.06v9.49l11.34.59v14.47l-11.34-.06v10.64Z"/><path class="cls-4" d="M590.11,285.39a25,25,0,0,0-2.17-2.81,18.29,18.29,0,0,0-2.15-2.05,4.28,4.28,0,0,0-2.37-1.08,1.76,1.76,0,0,0-1.52.56,3.44,3.44,0,0,0-.57,2.26,5.17,5.17,0,0,0,.33,2,5.1,5.1,0,0,0,1,1.47,10,10,0,0,0,1.51,1.32c.59.42,1.26.94,2,1.54a22.83,22.83,0,0,1,3.13,2.9,15.51,15.51,0,0,1,2.34,3.6,19.84,19.84,0,0,1,1.47,4.93,40.67,40.67,0,0,1,.51,7,41.84,41.84,0,0,1-.8,8.85,20.33,20.33,0,0,1-2.13,5.85,9.65,9.65,0,0,1-3,3.33,7.54,7.54,0,0,1-3.49,1.25,9,9,0,0,1-2.93-.28,13.61,13.61,0,0,1-3-1.24,18.54,18.54,0,0,1-5.67-4.87l3.25-15.08a26.58,26.58,0,0,0,2.78,3.35,15.13,15.13,0,0,0,2.7,2.26,5.13,5.13,0,0,0,3,.94,1.77,1.77,0,0,0,1.6-.76,3.56,3.56,0,0,0,.45-1.9,4.67,4.67,0,0,0-.45-2.14,5,5,0,0,0-1.24-1.55,18.13,18.13,0,0,0-1.83-1.35,27.26,27.26,0,0,1-2.23-1.62,18.79,18.79,0,0,1-3-3,15.11,15.11,0,0,1-2.14-3.7,21.06,21.06,0,0,1-1.26-4.72,40.62,40.62,0,0,1-.4-6.07,43.14,43.14,0,0,1,.83-9.05,21.69,21.69,0,0,1,2.25-6.31,9.87,9.87,0,0,1,3.18-3.55,5.49,5.49,0,0,1,3.7-.84,7,7,0,0,1,2.74,1,16,16,0,0,1,2.53,1.91,24.82,24.82,0,0,1,2.24,2.35c.69.82,1.31,1.59,1.85,2.31Z"/><path class="cls-4" d="M619.42,282.6l-5.84-.47v41.1l-5.83.45v-42l-6.42-.51V267.6L619.42,270Z"/></g><polygon class="cls-6" points="394.54 74.62 394.54 104.62 414.24 113.05 394.54 104.62 394.54 134.71 414.62 142.05 414.62 113.22 433.52 121.31 433.52 148.87 466.64 160.98 466.64 135.49 481.41 141.81 481.41 166.35 495.14 171.37 495.14 147.69 495.14 123.98 394.54 74.62"/><polygon class="cls-7" points="394.54 66.64 394.54 71.24 495.14 121.31 495.14 117.67 394.54 66.64"/><polygon class="cls-6" points="307.67 117.24 293.71 124.09 293.71 171.37 307.67 166.27 307.67 141.81 347.64 124.7 322.01 135.67 322.01 161.13 355.56 148.87 355.56 121.31 394.54 104.62 394.54 74.62 307.67 117.24"/><polygon class="cls-6" points="374.22 142.05 394.54 134.62 394.54 104.62 374.22 113.32 374.22 142.05"/><polygon class="cls-7" points="293.71 117.78 293.71 121.42 394.54 71.24 394.54 66.64 293.71 117.78"/><polygon class="cls-8" points="293.71 117.78 293.71 121.42 394.54 71.24 394.54 66.64 293.71 117.78"/><path class="cls-6" d="M175.93,354c0-.3,0-.58.06-.83.2-3,0-13.11-.3-25.25-2-.15-7.67-.59-9.87-.71v18.59s6.94.86,7.55,1.16l-.07-13-5.13-.14.15,3.14,3.81,1.12.11,5.66-5.21-.79-.24-13,8.19,1.71,0,19.21L164,349.16l.05,2.74L175.83,354Z"/><path class="cls-6" d="M164.5,326.84l-.3-.19c-1.06-.59-4.52-.47-8.56-.07,0,4.76.05,19,.08,24.64l6.51,1.26s-.11-18,0-19.53l-4.46-.34.16,12.92,1.08-.2.21-9.64,1.95,0v13.4l-4.52-.2.29-20.46,6.55.73v22.69l1,.06s.06-15.54,0-24.8Z"/><path class="cls-6" d="M155.77,354c0,.28,0,.54-.05.77-.17,2.77,0,12.09.25,23.34,1.71.5,6.95,2,9.1,2.6V362.21s-6.53-1.24-7.08-1.56l.07,12.25,4.72.89-.15-3.09-3.53-1.55-.1-5.37,4.88,1.17.24,12.86-7.53-3,0-17.85,10.26,2-.05-2.78L155.86,354Z"/><path class="cls-6" d="M166.4,381.37a2.83,2.83,0,0,0,.31.25c1.09.84,4.78,1.55,9.37,2.13,0-5.17-.05-20.58-.09-26.73l-7.24-1.45s.11,18.48,0,20.05l4.88,1.18L173.49,363l-1.21.13L172,373.28l-2.12-.29V359.11l5,.42-.32,21.94-7.15-2.2V356.21l-1-.08s-.06,15.65,0,25Z"/><path class="cls-6" d="M202.07,359c0-.34.05-.65.07-.93.24-3.3,0-14.41-.36-27.77-2.38-.19-9.25-.72-11.9-.88v20.37s8.36,1.07,9.1,1.41l-.09-14.3-6.18-.22.18,3.44,4.59,1.3.13,6.21-6.27-.95-.3-14.23,9.88,2,0,21.13-13.15-2.07.06,3L201.94,359Z"/><path class="cls-6" d="M188.29,329.05l-.35-.2c-1.28-.66-5.42-.57-10.23-.17,0,5.21,0,20.71.09,26.9l7.77,1.51s-.13-19.69,0-21.37l-5.33-.43.19,14.12,1.29-.2.25-10.53h2.33v14.65l-5.39-.3.34-22.34,7.83.87V356.4l1.21.09s.07-17,0-27.16Z"/><path class="cls-6" d="M177.86,358.65c0,.31-.05.59-.06.84-.2,3,0,13.2.3,25.49,2,.59,8.3,2.42,10.88,3.13v-20.3s-7.82-1.52-8.47-1.88l.08,13.39,5.64,1.11-.17-3.39-4.23-1.79-.11-5.88,5.83,1.41.29,14.09-9-3.54,0-19.49,12.28,2.38,0-3L178,358.65Z"/><path class="cls-6" d="M190.58,388.84l.37.29c1.31.95,5.76,1.85,11.3,2.64,0-5.69-.07-22.64-.11-29.41l-8.74-1.75s.14,20.28,0,22l5.88,1.44-.22-15.15-1.46.12-.28,11.11-2.56-.38V364.53l6.06.57-.39,24.11-8.62-2.64V361.29l-1.23-.12s-.07,17.16-.05,27.39Z"/><path class="cls-6" d="M234,365.18c0-.38.07-.72.1-1,.3-3.67,0-16-.45-30.87-2.94-.24-11.38-.91-14.62-1.11l0,22.53s10.25,1.35,11.16,1.74l-.12-15.87-7.58-.33.22,3.81,5.63,1.51.16,6.89-7.69-1.17-.36-15.74,12.13,2.3,0,23.46-16.13-2.58.07,3.33,17.35,3.11Z"/><path class="cls-6" d="M217.1,331.74l-.44-.23c-1.55-.74-6.59-.69-12.43-.3,0,5.73.06,22.8.1,29.61l9.45,1.84s-.16-21.75-.05-23.6l-6.49-.54.23,15.56,1.56-.2.32-11.6,2.82,0,0,16.17-6.55-.45.41-24.6,9.53,1.05v27.44l1.48.13s.08-18.81.05-30Z"/><path class="cls-6" d="M204.41,364.2c0,.34-.06.65-.08.93-.25,3.31,0,14.52.37,28.06,2.47.73,10.09,3,13.24,3.84V374.58s-9.54-1.88-10.33-2.29l.1,14.75,6.87,1.41-.21-3.74-5.15-2.12-.14-6.48,7.11,1.72.35,15.58-11-4.21,0-21.46,15,2.94-.07-3.37-16-3.11Z"/><path class="cls-6" d="M219.89,397.9l.45.33c1.61,1.1,7.07,2.26,13.89,3.35,0-6.32-.07-25.16-.12-32.68l-10.76-2.16s.17,22.46.06,24.36l7.23,1.8-.27-16.82-1.8.08-.35,12.33-3.14-.51V371.11l7.46.79L232,398.67l-10.59-3.24v-28l-1.51-.16s-.09,19-.06,30.29Z"/><path class="cls-6" d="M274,372.88c0-.43.08-.81.11-1.15.38-4.11.05-18-.56-34.73-3.71-.3-14.33-1.16-18.39-1.43l0,25.2s12.87,1.74,14,2.21L269,345.14l-9.55-.49.28,4.28,7.08,1.79.2,7.73L257.35,357l-.45-17.64,15.27,2.76-.05,26.38-20.27-3.29.09,3.72,21.81,3.95Z"/><path class="cls-6" d="M252.68,335.05c-.2-.1-.38-.19-.55-.26-1.94-.85-8.21-.84-15.45-.48,0,6.37.08,25.35.13,32.93l11.73,2.28s-.2-24.27-.07-26.34l-8.05-.69.28,17.32,1.94-.19L243,346.7l3.51.09,0,18-8.13-.65.51-27.36,11.85,1.29v30.65l1.84.18s.1-21,.07-33.55Z"/><path class="cls-6" d="M236.9,371c0,.38-.07.72-.09,1-.3,3.68,0,16.15.45,31.22,3.06.91,12.54,3.7,16.47,4.81l0-25.1s-11.87-2.39-12.85-2.87l.12,16.43,8.54,1.82-.26-4.19-6.4-2.53-.18-7.23,8.85,2.15L252,404l-13.62-5.11,0-23.87,18.64,3.7-.08-3.77L237.06,371Z"/><path class="cls-6" d="M256.17,409.1c.21.15.4.29.56.39,2,1.31,8.88,2.84,17.49,4.35,0-7.12-.09-28.31-.16-36.77l-13.55-2.73s.21,25.17.07,27.29l9.1,2.3-.34-18.9-2.26,0-.45,13.82-3.95-.68,0-18.91,9.41,1.11-.62,30.07-13.32-4.07V375.09l-1.9-.23s-.11,21.24-.07,33.89Z"/><path class="cls-6" d="M325.29,382.78c.06-.48.11-.92.15-1.31.49-4.69.06-20.6-.73-39.7-4.85-.4-18.61-1.54-23.85-1.9l0,28.58s16.65,2.32,18.15,2.88L318.85,351l-12.38-.74.36,4.87L316,357.3l.27,8.82-12.51-1.9-.59-20,19.79,3.4,0,30.12-26.23-4.32.11,4.22L325,382.76Z"/><path class="cls-6" d="M297.74,339.25c-.26-.12-.49-.23-.7-.31-2.49-1-10.51-1.06-19.72-.75,0,7.17.1,28.55.17,37.09l14.94,2.91s-.25-27.46-.08-29.8l-10.28-.93.36,19.54,2.47-.16.49-14.58,4.49.17,0,20.4-10.35-1,.64-30.83,15.13,1.64v34.71l2.36.26s.13-23.82.08-38Z"/><path class="cls-6" d="M277.61,379.51c-.05.43-.09.82-.12,1.16-.39,4.13-.05,18.19.57,35.19,3.89,1.15,16,4.74,21,6.17l0-28.45s-15.19-3.12-16.44-3.7l.16,18.54,10.9,2.42-.33-4.76L285.18,403,285,394.8l11.31,2.75.56,19.75-17.39-6.36.05-26.91,23.84,4.8-.11-4.29-25.41-5Z"/><path class="cls-6" d="M302.24,423.33c.26.18.5.34.72.47,2.6,1.58,11.47,3.65,22.69,5.81,0-8.14-.13-32.36-.21-42L307.83,384s.27,28.62.09,31l11.8,3-.44-21.57-2.94-.05-.58,15.74-5.12-.95,0-21.52,12.22,1.59-.8,34.31-17.28-5.26V384.79l-2.44-.31s-.14,24.09-.09,38.46Z"/><path class="cls-6" d="M393.74,396c.08-.56.15-1.07.21-1.52.67-5.45.08-24-1-46.34-6.57-.55-25.13-2.11-32.13-2.61l0,33s22.37,3.21,24.4,3.91L385,358.75l-16.66-1.13.47,5.64L381.15,366l.36,10.26-16.82-2.57-.78-23.17,26.67,4.34L390.5,390l-35.25-5.88.15,4.86,38,7Z"/><path class="cls-6" d="M356.67,344.73l-.94-.36c-3.31-1.18-13.92-1.4-26-1.18,0,8.21.13,32.67.22,42.45l19.69,3.84s-.33-31.62-.11-34.31l-13.57-1.28.47,22.42,3.25-.11.65-16.73,5.93.3,0,23.45-13.64-1.42.84-35.3,20,2.15v40l3.13.38s.18-27.48.12-43.86Z"/><path class="cls-6" d="M330.08,390.49c-.07.49-.12.93-.16,1.32-.51,4.71-.07,20.81.75,40.3,5.1,1.52,21.08,6.29,27.8,8.21l0-32.84s-20.12-4.21-21.77-4.93l.21,21.27,14.4,3.31-.44-5.49-10.81-4-.3-9.38,15,3.64.74,22.8-23-8.2.06-30.82,31.58,6.44-.15-5-33.64-6.69Z"/><path class="cls-6" d="M362.66,442l1,.58c3.48,2,15.41,4.89,30.61,8.06,0-9.5-.17-37.77-.28-49.06l-23.8-4.81s.36,33.17.12,36l15.91,4.13-.59-25.13-4-.18-.78,18.26-6.9-1.36,0-25,16.52,2.35-1.08,39.95L366,438.7V397.55l-3.27-.46s-.18,27.84-.12,44.45Z"/><g class="cls-5"><path d="M175.93,354c0-.3,0-.58.06-.83.2-3,0-13.11-.3-25.25-2-.15-7.67-.59-9.87-.71v18.59s6.94.86,7.55,1.16l-.07-13-5.13-.14.15,3.14,3.81,1.12.11,5.66-5.21-.79-.24-13,8.19,1.71,0,19.21L164,349.16l.05,2.74L175.83,354Z"/><path d="M164.5,326.84l-.3-.19c-1.06-.59-4.52-.47-8.56-.07,0,4.76.05,19,.08,24.64l6.51,1.26s-.11-18,0-19.53l-4.46-.34.16,12.92,1.08-.2.21-9.64,1.95,0v13.4l-4.52-.2.29-20.46,6.55.73v22.69l1,.06s.06-15.54,0-24.8Z"/><path d="M155.77,354c0,.28,0,.54-.05.77-.17,2.77,0,12.09.25,23.34,1.71.5,6.95,2,9.1,2.6V362.21s-6.53-1.24-7.08-1.56l.07,12.25,4.72.89-.15-3.09-3.53-1.55-.1-5.37,4.88,1.17.24,12.86-7.53-3,0-17.85,10.26,2-.05-2.78L155.86,354Z"/><path d="M166.4,381.37a2.83,2.83,0,0,0,.31.25c1.09.84,4.78,1.55,9.37,2.13,0-5.17-.05-20.58-.09-26.73l-7.24-1.45s.11,18.48,0,20.05l4.88,1.18L173.49,363l-1.21.13L172,373.28l-2.12-.29V359.11l5,.42-.32,21.94-7.15-2.2V356.21l-1-.08s-.06,15.65,0,25Z"/><path d="M202.07,359c0-.34.05-.65.07-.93.24-3.3,0-14.41-.36-27.77-2.38-.19-9.25-.72-11.9-.88v20.37s8.36,1.07,9.1,1.41l-.09-14.3-6.18-.22.18,3.44,4.59,1.3.13,6.21-6.27-.95-.3-14.23,9.88,2,0,21.13-13.15-2.07.06,3L201.94,359Z"/><path d="M188.29,329.05l-.35-.2c-1.28-.66-5.42-.57-10.23-.17,0,5.21,0,20.71.09,26.9l7.77,1.51s-.13-19.69,0-21.37l-5.33-.43.19,14.12,1.29-.2.25-10.53h2.33v14.65l-5.39-.3.34-22.34,7.83.87V356.4l1.21.09s.07-17,0-27.16Z"/><path d="M177.86,358.65c0,.31-.05.59-.06.84-.2,3,0,13.2.3,25.49,2,.59,8.3,2.42,10.88,3.13v-20.3s-7.82-1.52-8.47-1.88l.08,13.39,5.64,1.11-.17-3.39-4.23-1.79-.11-5.88,5.83,1.41.29,14.09-9-3.54,0-19.49,12.28,2.38,0-3L178,358.65Z"/><path d="M190.58,388.84l.37.29c1.31.95,5.76,1.85,11.3,2.64,0-5.69-.07-22.64-.11-29.41l-8.74-1.75s.14,20.28,0,22l5.88,1.44-.22-15.15-1.46.12-.28,11.11-2.56-.38V364.53l6.06.57-.39,24.11-8.62-2.64V361.29l-1.23-.12s-.07,17.16-.05,27.39Z"/><path d="M234,365.18c0-.38.07-.72.1-1,.3-3.67,0-16-.45-30.87-2.94-.24-11.38-.91-14.62-1.11l0,22.53s10.25,1.35,11.16,1.74l-.12-15.87-7.58-.33.22,3.81,5.63,1.51.16,6.89-7.69-1.17-.36-15.74,12.13,2.3,0,23.46-16.13-2.58.07,3.33,17.35,3.11Z"/><path d="M217.1,331.74l-.44-.23c-1.55-.74-6.59-.69-12.43-.3,0,5.73.06,22.8.1,29.61l9.45,1.84s-.16-21.75-.05-23.6l-6.49-.54.23,15.56,1.56-.2.32-11.6,2.82,0,0,16.17-6.55-.45.41-24.6,9.53,1.05v27.44l1.48.13s.08-18.81.05-30Z"/><path d="M204.41,364.2c0,.34-.06.65-.08.93-.25,3.31,0,14.52.37,28.06,2.47.73,10.09,3,13.24,3.84V374.58s-9.54-1.88-10.33-2.29l.1,14.75,6.87,1.41-.21-3.74-5.15-2.12-.14-6.48,7.11,1.72.35,15.58-11-4.21,0-21.46,15,2.94-.07-3.37-16-3.11Z"/><path d="M219.89,397.9l.45.33c1.61,1.1,7.07,2.26,13.89,3.35,0-6.32-.07-25.16-.12-32.68l-10.76-2.16s.17,22.46.06,24.36l7.23,1.8-.27-16.82-1.8.08-.35,12.33-3.14-.51V371.11l7.46.79L232,398.67l-10.59-3.24v-28l-1.51-.16s-.09,19-.06,30.29Z"/><path d="M274,372.88c0-.43.08-.81.11-1.15.38-4.11.05-18-.56-34.73-3.71-.3-14.33-1.16-18.39-1.43l0,25.2s12.87,1.74,14,2.21L269,345.14l-9.55-.49.28,4.28,7.08,1.79.2,7.73L257.35,357l-.45-17.64,15.27,2.76-.05,26.38-20.27-3.29.09,3.72,21.81,3.95Z"/><path d="M252.68,335.05c-.2-.1-.38-.19-.55-.26-1.94-.85-8.21-.84-15.45-.48,0,6.37.08,25.35.13,32.93l11.73,2.28s-.2-24.27-.07-26.34l-8.05-.69.28,17.32,1.94-.19L243,346.7l3.51.09,0,18-8.13-.65.51-27.36,11.85,1.29v30.65l1.84.18s.1-21,.07-33.55Z"/><path d="M236.9,371c0,.38-.07.72-.09,1-.3,3.68,0,16.15.45,31.22,3.06.91,12.54,3.7,16.47,4.81l0-25.1s-11.87-2.39-12.85-2.87l.12,16.43,8.54,1.82-.26-4.19-6.4-2.53-.18-7.23,8.85,2.15L252,404l-13.62-5.11,0-23.87,18.64,3.7-.08-3.77L237.06,371Z"/><path d="M256.17,409.1c.21.15.4.29.56.39,2,1.31,8.88,2.84,17.49,4.35,0-7.12-.09-28.31-.16-36.77l-13.55-2.73s.21,25.17.07,27.29l9.1,2.3-.34-18.9-2.26,0-.45,13.82-3.95-.68,0-18.91,9.41,1.11-.62,30.07-13.32-4.07V375.09l-1.9-.23s-.11,21.24-.07,33.89Z"/><path d="M325.29,382.78c.06-.48.11-.92.15-1.31.49-4.69.06-20.6-.73-39.7-4.85-.4-18.61-1.54-23.85-1.9l0,28.58s16.65,2.32,18.15,2.88L318.85,351l-12.38-.74.36,4.87L316,357.3l.27,8.82-12.51-1.9-.59-20,19.79,3.4,0,30.12-26.23-4.32.11,4.22L325,382.76Z"/><path d="M297.74,339.25c-.26-.12-.49-.23-.7-.31-2.49-1-10.51-1.06-19.72-.75,0,7.17.1,28.55.17,37.09l14.94,2.91s-.25-27.46-.08-29.8l-10.28-.93.36,19.54,2.47-.16.49-14.58,4.49.17,0,20.4-10.35-1,.64-30.83,15.13,1.64v34.71l2.36.26s.13-23.82.08-38Z"/><path d="M277.61,379.51c-.05.43-.09.82-.12,1.16-.39,4.13-.05,18.19.57,35.19,3.89,1.15,16,4.74,21,6.17l0-28.45s-15.19-3.12-16.44-3.7l.16,18.54,10.9,2.42-.33-4.76L285.18,403,285,394.8l11.31,2.75.56,19.75-17.39-6.36.05-26.91,23.84,4.8-.11-4.29-25.41-5Z"/><path d="M302.24,423.33c.26.18.5.34.72.47,2.6,1.58,11.47,3.65,22.69,5.81,0-8.14-.13-32.36-.21-42L307.83,384s.27,28.62.09,31l11.8,3-.44-21.57-2.94-.05-.58,15.74-5.12-.95,0-21.52,12.22,1.59-.8,34.31-17.28-5.26V384.79l-2.44-.31s-.14,24.09-.09,38.46Z"/><path d="M393.74,396c.08-.56.15-1.07.21-1.52.67-5.45.08-24-1-46.34-6.57-.55-25.13-2.11-32.13-2.61l0,33s22.37,3.21,24.4,3.91L385,358.75l-16.66-1.13.47,5.64L381.15,366l.36,10.26-16.82-2.57-.78-23.17,26.67,4.34L390.5,390l-35.25-5.88.15,4.86,38,7Z"/><path d="M356.67,344.73l-.94-.36c-3.31-1.18-13.92-1.4-26-1.18,0,8.21.13,32.67.22,42.45l19.69,3.84s-.33-31.62-.11-34.31l-13.57-1.28.47,22.42,3.25-.11.65-16.73,5.93.3,0,23.45-13.64-1.42.84-35.3,20,2.15v40l3.13.38s.18-27.48.12-43.86Z"/><path d="M330.08,390.49c-.07.49-.12.93-.16,1.32-.51,4.71-.07,20.81.75,40.3,5.1,1.52,21.08,6.29,27.8,8.21l0-32.84s-20.12-4.21-21.77-4.93l.21,21.27,14.4,3.31-.44-5.49-10.81-4-.3-9.38,15,3.64.74,22.8-23-8.2.06-30.82,31.58,6.44-.15-5-33.64-6.69Z"/><path d="M362.66,442l1,.58c3.48,2,15.41,4.89,30.61,8.06,0-9.5-.17-37.77-.28-49.06l-23.8-4.81s.36,33.17.12,36l15.91,4.13-.59-25.13-4-.18-.78,18.26-6.9-1.36,0-25,16.52,2.35-1.08,39.95L366,438.7V397.55l-3.27-.46s-.18,27.84-.12,44.45Z"/></g><path class="cls-6" d="M283.08,189.55c0-.16,0-.31,0-.44.14-1.6,0-6.7-.21-12.8-1.43.51-5.61,2-7.25,2.59v9.67s5.12-1.77,5.57-1.81l-.06-6.65-3.76,1.49.11,1.58,2.8-.6.08,2.87-3.84,1.24-.18-6.65,6-1.6,0,9.82-8.05,2.65,0,1.42,8.63-2.74Z"/><path class="cls-6" d="M274.67,179.13h-.22c-.8,0-3.43,1.15-6.54,2.62,0,2.53,0,10,0,13l5-1.54s-.08-9.39,0-10.22l-3.41,1.24.12,6.77.83-.46.17-5.15,1.48-.63v7l-3.46,1.4.21-10.92,5-1.66V192.5l.76-.3s0-8.12,0-12.94Z"/><path class="cls-6" d="M268,196.26c0,.16,0,.3,0,.43-.13,1.52,0,6.42.2,12.28,1.32-.36,5.32-1.47,6.94-1.94v-9.65s-5,1.6-5.39,1.62l.06,6.44,3.6-1.22-.11-1.56-2.69.43-.08-2.8,3.71-1.07.18,6.63L268.63,207l0-9.46,7.79-2.46,0-1.43-8.33,2.61Z"/><path class="cls-6" d="M276.1,206.88l.22,0c.82,0,3.54-.9,6.86-2.2,0-2.64,0-10.49-.06-13.61l-5.28,1.61s.08,9.52,0,10.35l3.57-1.08-.13-7-.88.47-.17,5.28-1.56.58v-7.15l3.66-1.44L282.12,204l-5.23,1.37V193.46l-.77.29s0,8.16,0,13Z"/><path class="cls-6" d="M301,184.07c0-.18,0-.33.05-.47.16-1.68,0-7-.23-13.41-1.57.55-6.16,2.17-8,2.83v10.13s5.62-1.94,6.11-2l-.06-7-4.13,1.63.12,1.65,3.07-.67.09,3-4.21,1.36-.2-7,6.6-1.78,0,10.31-8.84,2.9,0,1.48,9.48-3Z"/><path class="cls-6" d="M291.77,173.28h-.25c-.88,0-3.76,1.25-7.17,2.85,0,2.64,0,10.51.07,13.65l5.47-1.68s-.09-9.84,0-10.7l-3.74,1.35.14,7.08.91-.49.18-5.4,1.62-.68v7.36l-3.79,1.52.24-11.43,5.49-1.83v12.41l.83-.32s0-8.51,0-13.56Z"/><path class="cls-6" d="M284.46,191.32c0,.16,0,.31,0,.45-.15,1.6,0,6.71.21,12.85,1.45-.4,5.84-1.61,7.61-2.12V192.39s-5.45,1.74-5.91,1.77l.06,6.75,3.95-1.33-.12-1.64-3,.49-.08-2.92,4.06-1.18.2,6.94-6.3,1.25v-9.9l8.55-2.69,0-1.49-9.13,2.84Z"/><path class="cls-6" d="M293.33,202.33l.25,0c.9,0,3.88-1,7.54-2.41,0-2.76,0-11-.07-14.27l-5.8,1.77s.09,10,0,10.86l3.92-1.19-.14-7.33-1,.5-.19,5.54-1.7.63V189l4-1.56L300,199.27l-5.75,1.51V188.25l-.84.33s-.05,8.54,0,13.61Z"/><path class="cls-6" d="M251.79,199.13c0-.15,0-.29,0-.41.12-1.45,0-6.12-.18-11.71-1.2.42-4.7,1.67-6.08,2.18v8.86s4.29-1.5,4.67-1.52l-.05-6.09-3.15,1.27.09,1.45,2.35-.48.07,2.63-3.22,1.05-.16-6.11,5-1.31v9l-6.76,2.24,0,1.3,7.25-2.31Z"/><path class="cls-6" d="M244.74,189.37h-.19c-.67,0-2.89,1-5.51,2.23,0,2.32,0,9.23.05,12l4.21-1.3s-.07-8.61,0-9.37L240.4,194l.11,6.22.69-.41.14-4.72,1.25-.54V201l-2.92,1.2.19-10,4.21-1.4v10.87l.64-.25s0-7.45,0-11.87Z"/><path class="cls-6" d="M239.12,204.93q0,.21,0,.39c-.11,1.4,0,5.89.17,11.29,1.11-.31,4.48-1.25,5.84-1.65v-8.85s-4.17,1.36-4.53,1.37l.05,5.92,3-1.05-.09-1.44-2.27.35-.06-2.57,3.12-.91.15,6.08-4.84.92,0-8.69,6.55-2.08,0-1.31-7,2.2Z"/><path class="cls-6" d="M245.94,214.84l.19,0c.68.06,3-.75,5.75-1.88,0-2.41,0-9.59,0-12.45l-4.43,1.35s.07,8.72,0,9.49l3-.92-.11-6.41-.74.41-.14,4.83-1.31.5v-6.56l3.07-1.23-.2,10.37-4.39,1.14V202.56l-.65.25s0,7.48,0,11.91Z"/><path class="cls-6" d="M266.74,194.56c0-.16,0-.31,0-.43.13-1.52,0-6.4-.19-12.23-1.31.46-5.13,1.82-6.63,2.37v9.24s4.68-1.62,5.09-1.65L265,185.5l-3.44,1.38.1,1.51,2.56-.53.07,2.74-3.5,1.14-.17-6.38,5.49-1.44,0,9.39-7.36,2.43,0,1.36,7.89-2.51Z"/><path class="cls-6" d="M259.06,184.47h-.21c-.73,0-3.14,1-6,2.42,0,2.42,0,9.62,0,12.49l4.58-1.41s-.08-9,0-9.77l-3.12,1.13.11,6.48.76-.43.15-4.92,1.36-.59v6.73l-3.17,1.3.2-10.45,4.58-1.53v11.34l.7-.27s0-7.77,0-12.38Z"/><path class="cls-6" d="M253,200.78c0,.15,0,.29,0,.41-.12,1.46,0,6.14.18,11.76,1.21-.33,4.88-1.35,6.36-1.78v-9.23s-4.54,1.46-4.92,1.48l0,6.17,3.3-1.13-.1-1.5-2.46.39-.07-2.68,3.39-1,.17,6.35-5.27,1,0-9,7.13-2.26,0-1.37L253,200.75Z"/><path class="cls-6" d="M260.36,211l.21,0c.74.05,3.23-.82,6.27-2,0-2.52,0-10-.06-13L262,197.49s.08,9.11,0,9.91l3.27-1-.12-6.69-.81.44-.16,5-1.42.53v-6.84l3.34-1.33-.21,10.83-4.79,1.25V198.21l-.7.27s0,7.8,0,12.43Z"/><path class="cls-6" d="M320.76,178c0-.18,0-.35.06-.5.17-1.76,0-7.38-.26-14.09-1.73.61-6.8,2.4-8.79,3.13v10.63s6.2-2.13,6.75-2.19l-.07-7.32-4.56,1.78.13,1.73,3.4-.75.09,3.15-4.64,1.51-.23-7.32,7.29-2,0,10.83-9.76,3.19,0,1.56,10.47-3.31Z"/><path class="cls-6" d="M310.57,166.84h-.27c-1,0-4.14,1.38-7.89,3.11,0,2.78,0,11,.06,14.32l6-1.85s-.1-10.32,0-11.23l-4.12,1.48.15,7.43,1-.53.2-5.66,1.79-.75v7.72l-4.18,1.66.27-12,6-2v13l.92-.35s.05-8.93,0-14.24Z"/><path class="cls-6" d="M302.53,185.89c0,.18,0,.34,0,.48-.16,1.68,0,7,.23,13.48,1.6-.44,6.43-1.77,8.39-2.34V186.9s-6,1.91-6.5,1.95l.06,7.07,4.35-1.44-.13-1.72-3.25.56-.1-3.07L310,189l.22,7.28-6.94,1.4,0-10.38,9.41-3,0-1.56-10.06,3.13Z"/><path class="cls-6" d="M312.3,197.32l.27,0c1,0,4.28-1.1,8.32-2.63,0-2.91-.05-11.56-.07-15l-6.41,1.95s.1,10.48,0,11.4l4.33-1.3-.15-7.71-1.07.54-.21,5.83-1.89.68v-7.87l4.45-1.71L319.6,194l-6.35,1.67V182.53l-.93.35s-.05,9,0,14.3Z"/><path class="cls-6" d="M342.65,171.32c0-.19,0-.37.06-.52.19-1.87,0-7.78-.29-14.85-1.92.67-7.54,2.66-9.74,3.46V170.6s6.88-2.35,7.48-2.42l-.08-7.72-5,2,.14,1.82,3.77-.86.11,3.32-5.16,1.67-.25-7.7,8.08-2.23,0,11.41-10.82,3.53.05,1.64,11.61-3.67Z"/><path class="cls-6" d="M331.35,159.73h-.3c-1.07.07-4.59,1.53-8.74,3.43,0,2.91.05,11.59.08,15.05l6.67-2.05s-.11-10.85,0-11.81L324.47,166l.16,7.81,1.1-.58.22-5.95,2-.82v8.12l-4.62,1.82.29-12.62,6.69-2.23v13.71l1-.38s.06-9.41,0-15Z"/><path class="cls-6" d="M322.44,179.92c0,.18,0,.35-.05.49-.18,1.77,0,7.41.26,14.17,1.76-.48,7.11-2,9.28-2.58V180.83s-6.64,2.11-7.2,2.16l.07,7.44,4.81-1.59-.14-1.8-3.6.63-.1-3.22,5-1.44.24,7.66-7.68,1.58,0-10.92,10.42-3.26-.05-1.66-11.14,3.47Z"/><path class="cls-6" d="M333.26,191.78l.3,0c1.09,0,4.75-1.22,9.23-2.9,0-3.06-.05-12.17-.08-15.8l-7.11,2.16s.11,11,0,12l4.8-1.43-.17-8.12-1.19.59-.23,6.14-2.09.75v-8.3l4.93-1.87-.32,13.17-7,1.85V176.19l-1,.39s-.06,9.45,0,15Z"/><path class="cls-6" d="M367,163.86c0-.21.05-.39.07-.56.21-2,0-8.22-.32-15.69-2.15.76-8.42,3-10.87,3.86v11.81s7.67-2.61,8.34-2.7l-.09-8.15-5.64,2.18.17,1.92,4.2-1,.12,3.51-5.75,1.85-.28-8.12,9-2.52,0,12.06-12.06,3.93L354,168l12.95-4.09Z"/><path class="cls-6" d="M354.43,151.84h-.34c-1.19.1-5.1,1.71-9.72,3.79,0,3.07.05,12.22.09,15.86l7.41-2.27s-.12-11.45,0-12.47l-5.06,1.81.18,8.24,1.23-.63.24-6.29,2.21-.9v8.57l-5.14,2,.32-13.3,7.44-2.49v14.47l1.13-.42s.07-9.93,0-15.82Z"/><path class="cls-6" d="M344.52,173.29c0,.19,0,.37-.06.52-.2,1.87,0,7.81.29,14.93,2-.53,7.9-2.16,10.32-2.86V174.09s-7.39,2.34-8,2.4l.08,7.84,5.35-1.75-.16-1.9-4,.73-.11-3.4,5.51-1.6.27,8.08-8.54,1.78,0-11.51,11.6-3.62L357,169.4l-12.39,3.84Z"/><path class="cls-6" d="M356.55,185.63h.34c1.22,0,5.3-1.35,10.3-3.2,0-3.24-.06-12.87-.09-16.71l-7.94,2.42s.13,11.64,0,12.67l5.36-1.59-.2-8.58-1.32.65-.26,6.49-2.33.83,0-8.77,5.51-2.06-.35,13.92-7.87,2.07V169.16l-1.14.42s-.07,10,0,15.89Z"/><path class="cls-6" d="M394.36,155.49c0-.22.05-.41.07-.59.25-2.09,0-8.72-.36-16.63-2.41.85-9.45,3.33-12.2,4.32V155.1s8.61-2.92,9.36-3l-.09-8.64-6.34,2.42.19,2,4.71-1.12.14,3.71-6.46,2.09-.3-8.6,10.12-2.86,0,12.79-13.54,4.39.06,1.83,14.53-4.58Z"/><path class="cls-6" d="M380.21,143l-.38,0c-1.34.12-5.72,1.91-10.87,4.21,0,3.24.05,12.91.09,16.77l8.3-2.55s-.14-12.11-.05-13.19l-5.67,2,.21,8.71,1.37-.7.27-6.65,2.47-1,0,9.07-5.75,2.21.36-14.08,8.33-2.78v15.31l1.26-.47s.07-10.51.05-16.74Z"/><path class="cls-6" d="M369.12,165.9c0,.21-.05.4-.07.56-.22,2,0,8.26.33,15.78,2.19-.6,8.84-2.42,11.55-3.19V166.57s-8.27,2.6-9,2.67l.09,8.3,6-1.94-.18-2-4.48.85-.13-3.6,6.18-1.79.3,8.55-9.56,2,0-12.17,13-4-.06-1.84-13.88,4.3Z"/><path class="cls-6" d="M382.59,178.75H383c1.37,0,5.94-1.52,11.57-3.57,0-3.43-.07-13.64-.11-17.71l-8.91,2.71s.14,12.34.05,13.43l6-1.79-.22-9.08-1.49.7-.29,6.89-2.62.92V162l6.18-2.29-.4,14.77-8.82,2.32V161.29l-1.29.47s-.07,10.56-.05,16.83Z"/><g class="cls-5"><path d="M283.08,189.55c0-.16,0-.31,0-.44.14-1.6,0-6.7-.21-12.8-1.43.51-5.61,2-7.25,2.59v9.67s5.12-1.77,5.57-1.81l-.06-6.65-3.76,1.49.11,1.58,2.8-.6.08,2.87-3.84,1.24-.18-6.65,6-1.6,0,9.82-8.05,2.65,0,1.42,8.63-2.74Z"/><path d="M274.67,179.13h-.22c-.8,0-3.43,1.15-6.54,2.62,0,2.53,0,10,0,13l5-1.54s-.08-9.39,0-10.22l-3.41,1.24.12,6.77.83-.46.17-5.15,1.48-.63v7l-3.46,1.4.21-10.92,5-1.66V192.5l.76-.3s0-8.12,0-12.94Z"/><path d="M268,196.26c0,.16,0,.3,0,.43-.13,1.52,0,6.42.2,12.28,1.32-.36,5.32-1.47,6.94-1.94v-9.65s-5,1.6-5.39,1.62l.06,6.44,3.6-1.22-.11-1.56-2.69.43-.08-2.8,3.71-1.07.18,6.63L268.63,207l0-9.46,7.79-2.46,0-1.43-8.33,2.61Z"/><path d="M276.1,206.88l.22,0c.82,0,3.54-.9,6.86-2.2,0-2.64,0-10.49-.06-13.61l-5.28,1.61s.08,9.52,0,10.35l3.57-1.08-.13-7-.88.47-.17,5.28-1.56.58v-7.15l3.66-1.44L282.12,204l-5.23,1.37V193.46l-.77.29s0,8.16,0,13Z"/><path d="M301,184.07c0-.18,0-.33.05-.47.16-1.68,0-7-.23-13.41-1.57.55-6.16,2.17-8,2.83v10.13s5.62-1.94,6.11-2l-.06-7-4.13,1.63.12,1.65,3.07-.67.09,3-4.21,1.36-.2-7,6.6-1.78,0,10.31-8.84,2.9,0,1.48,9.48-3Z"/><path d="M291.77,173.28h-.25c-.88,0-3.76,1.25-7.17,2.85,0,2.64,0,10.51.07,13.65l5.47-1.68s-.09-9.84,0-10.7l-3.74,1.35.14,7.08.91-.49.18-5.4,1.62-.68v7.36l-3.79,1.52.24-11.43,5.49-1.83v12.41l.83-.32s0-8.51,0-13.56Z"/><path d="M284.46,191.32c0,.16,0,.31,0,.45-.15,1.6,0,6.71.21,12.85,1.45-.4,5.84-1.61,7.61-2.12V192.39s-5.45,1.74-5.91,1.77l.06,6.75,3.95-1.33-.12-1.64-3,.49-.08-2.92,4.06-1.18.2,6.94-6.3,1.25v-9.9l8.55-2.69,0-1.49-9.13,2.84Z"/><path d="M293.33,202.33l.25,0c.9,0,3.88-1,7.54-2.41,0-2.76,0-11-.07-14.27l-5.8,1.77s.09,10,0,10.86l3.92-1.19-.14-7.33-1,.5-.19,5.54-1.7.63V189l4-1.56L300,199.27l-5.75,1.51V188.25l-.84.33s-.05,8.54,0,13.61Z"/><path d="M251.79,199.13c0-.15,0-.29,0-.41.12-1.45,0-6.12-.18-11.71-1.2.42-4.7,1.67-6.08,2.18v8.86s4.29-1.5,4.67-1.52l-.05-6.09-3.15,1.27.09,1.45,2.35-.48.07,2.63-3.22,1.05-.16-6.11,5-1.31v9l-6.76,2.24,0,1.3,7.25-2.31Z"/><path d="M244.74,189.37h-.19c-.67,0-2.89,1-5.51,2.23,0,2.32,0,9.23.05,12l4.21-1.3s-.07-8.61,0-9.37L240.4,194l.11,6.22.69-.41.14-4.72,1.25-.54V201l-2.92,1.2.19-10,4.21-1.4v10.87l.64-.25s0-7.45,0-11.87Z"/><path d="M239.12,204.93q0,.21,0,.39c-.11,1.4,0,5.89.17,11.29,1.11-.31,4.48-1.25,5.84-1.65v-8.85s-4.17,1.36-4.53,1.37l.05,5.92,3-1.05-.09-1.44-2.27.35-.06-2.57,3.12-.91.15,6.08-4.84.92,0-8.69,6.55-2.08,0-1.31-7,2.2Z"/><path d="M245.94,214.84l.19,0c.68.06,3-.75,5.75-1.88,0-2.41,0-9.59,0-12.45l-4.43,1.35s.07,8.72,0,9.49l3-.92-.11-6.41-.74.41-.14,4.83-1.31.5v-6.56l3.07-1.23-.2,10.37-4.39,1.14V202.56l-.65.25s0,7.48,0,11.91Z"/><path d="M266.74,194.56c0-.16,0-.31,0-.43.13-1.52,0-6.4-.19-12.23-1.31.46-5.13,1.82-6.63,2.37v9.24s4.68-1.62,5.09-1.65L265,185.5l-3.44,1.38.1,1.51,2.56-.53.07,2.74-3.5,1.14-.17-6.38,5.49-1.44,0,9.39-7.36,2.43,0,1.36,7.89-2.51Z"/><path d="M259.06,184.47h-.21c-.73,0-3.14,1-6,2.42,0,2.42,0,9.62,0,12.49l4.58-1.41s-.08-9,0-9.77l-3.12,1.13.11,6.48.76-.43.15-4.92,1.36-.59v6.73l-3.17,1.3.2-10.45,4.58-1.53v11.34l.7-.27s0-7.77,0-12.38Z"/><path d="M253,200.78c0,.15,0,.29,0,.41-.12,1.46,0,6.14.18,11.76,1.21-.33,4.88-1.35,6.36-1.78v-9.23s-4.54,1.46-4.92,1.48l0,6.17,3.3-1.13-.1-1.5-2.46.39-.07-2.68,3.39-1,.17,6.35-5.27,1,0-9,7.13-2.26,0-1.37L253,200.75Z"/><path d="M260.36,211l.21,0c.74.05,3.23-.82,6.27-2,0-2.52,0-10-.06-13L262,197.49s.08,9.11,0,9.91l3.27-1-.12-6.69-.81.44-.16,5-1.42.53v-6.84l3.34-1.33-.21,10.83-4.79,1.25V198.21l-.7.27s0,7.8,0,12.43Z"/><path d="M320.76,178c0-.18,0-.35.06-.5.17-1.76,0-7.38-.26-14.09-1.73.61-6.8,2.4-8.79,3.13v10.63s6.2-2.13,6.75-2.19l-.07-7.32-4.56,1.78.13,1.73,3.4-.75.09,3.15-4.64,1.51-.23-7.32,7.29-2,0,10.83-9.76,3.19,0,1.56,10.47-3.31Z"/><path d="M310.57,166.84h-.27c-1,0-4.14,1.38-7.89,3.11,0,2.78,0,11,.06,14.32l6-1.85s-.1-10.32,0-11.23l-4.12,1.48.15,7.43,1-.53.2-5.66,1.79-.75v7.72l-4.18,1.66.27-12,6-2v13l.92-.35s.05-8.93,0-14.24Z"/><path d="M302.53,185.89c0,.18,0,.34,0,.48-.16,1.68,0,7,.23,13.48,1.6-.44,6.43-1.77,8.39-2.34V186.9s-6,1.91-6.5,1.95l.06,7.07,4.35-1.44-.13-1.72-3.25.56-.1-3.07L310,189l.22,7.28-6.94,1.4,0-10.38,9.41-3,0-1.56-10.06,3.13Z"/><path d="M312.3,197.32l.27,0c1,0,4.28-1.1,8.32-2.63,0-2.91-.05-11.56-.07-15l-6.41,1.95s.1,10.48,0,11.4l4.33-1.3-.15-7.71-1.07.54-.21,5.83-1.89.68v-7.87l4.45-1.71L319.6,194l-6.35,1.67V182.53l-.93.35s-.05,9,0,14.3Z"/><path d="M342.65,171.32c0-.19,0-.37.06-.52.19-1.87,0-7.78-.29-14.85-1.92.67-7.54,2.66-9.74,3.46V170.6s6.88-2.35,7.48-2.42l-.08-7.72-5,2,.14,1.82,3.77-.86.11,3.32-5.16,1.67-.25-7.7,8.08-2.23,0,11.41-10.82,3.53.05,1.64,11.61-3.67Z"/><path d="M331.35,159.73h-.3c-1.07.07-4.59,1.53-8.74,3.43,0,2.91.05,11.59.08,15.05l6.67-2.05s-.11-10.85,0-11.81L324.47,166l.16,7.81,1.1-.58.22-5.95,2-.82v8.12l-4.62,1.82.29-12.62,6.69-2.23v13.71l1-.38s.06-9.41,0-15Z"/><path d="M322.44,179.92c0,.18,0,.35-.05.49-.18,1.77,0,7.41.26,14.17,1.76-.48,7.11-2,9.28-2.58V180.83s-6.64,2.11-7.2,2.16l.07,7.44,4.81-1.59-.14-1.8-3.6.63-.1-3.22,5-1.44.24,7.66-7.68,1.58,0-10.92,10.42-3.26-.05-1.66-11.14,3.47Z"/><path d="M333.26,191.78l.3,0c1.09,0,4.75-1.22,9.23-2.9,0-3.06-.05-12.17-.08-15.8l-7.11,2.16s.11,11,0,12l4.8-1.43-.17-8.12-1.19.59-.23,6.14-2.09.75v-8.3l4.93-1.87-.32,13.17-7,1.85V176.19l-1,.39s-.06,9.45,0,15Z"/><path d="M367,163.86c0-.21.05-.39.07-.56.21-2,0-8.22-.32-15.69-2.15.76-8.42,3-10.87,3.86v11.81s7.67-2.61,8.34-2.7l-.09-8.15-5.64,2.18.17,1.92,4.2-1,.12,3.51-5.75,1.85-.28-8.12,9-2.52,0,12.06-12.06,3.93L354,168l12.95-4.09Z"/><path d="M354.43,151.84h-.34c-1.19.1-5.1,1.71-9.72,3.79,0,3.07.05,12.22.09,15.86l7.41-2.27s-.12-11.45,0-12.47l-5.06,1.81.18,8.24,1.23-.63.24-6.29,2.21-.9v8.57l-5.14,2,.32-13.3,7.44-2.49v14.47l1.13-.42s.07-9.93,0-15.82Z"/><path d="M344.52,173.29c0,.19,0,.37-.06.52-.2,1.87,0,7.81.29,14.93,2-.53,7.9-2.16,10.32-2.86V174.09s-7.39,2.34-8,2.4l.08,7.84,5.35-1.75-.16-1.9-4,.73-.11-3.4,5.51-1.6.27,8.08-8.54,1.78,0-11.51,11.6-3.62L357,169.4l-12.39,3.84Z"/><path d="M356.55,185.63h.34c1.22,0,5.3-1.35,10.3-3.2,0-3.24-.06-12.87-.09-16.71l-7.94,2.42s.13,11.64,0,12.67l5.36-1.59-.2-8.58-1.32.65-.26,6.49-2.33.83,0-8.77,5.51-2.06-.35,13.92-7.87,2.07V169.16l-1.14.42s-.07,10,0,15.89Z"/><path d="M394.36,155.49c0-.22.05-.41.07-.59.25-2.09,0-8.72-.36-16.63-2.41.85-9.45,3.33-12.2,4.32V155.1s8.61-2.92,9.36-3l-.09-8.64-6.34,2.42.19,2,4.71-1.12.14,3.71-6.46,2.09-.3-8.6,10.12-2.86,0,12.79-13.54,4.39.06,1.83,14.53-4.58Z"/><path d="M380.21,143l-.38,0c-1.34.12-5.72,1.91-10.87,4.21,0,3.24.05,12.91.09,16.77l8.3-2.55s-.14-12.11-.05-13.19l-5.67,2,.21,8.71,1.37-.7.27-6.65,2.47-1,0,9.07-5.75,2.21.36-14.08,8.33-2.78v15.31l1.26-.47s.07-10.51.05-16.74Z"/><path d="M369.12,165.9c0,.21-.05.4-.07.56-.22,2,0,8.26.33,15.78,2.19-.6,8.84-2.42,11.55-3.19V166.57s-8.27,2.6-9,2.67l.09,8.3,6-1.94-.18-2-4.48.85-.13-3.6,6.18-1.79.3,8.55-9.56,2,0-12.17,13-4-.06-1.84-13.88,4.3Z"/><path d="M382.59,178.75H383c1.37,0,5.94-1.52,11.57-3.57,0-3.43-.07-13.64-.11-17.71l-8.91,2.71s.14,12.34.05,13.43l6-1.79-.22-9.08-1.49.7-.29,6.89-2.62.92V162l6.18-2.29-.4,14.77-8.82,2.32V161.29l-1.29.47s-.07,10.56-.05,16.83Z"/></g><path class="cls-6" d="M466.63,177.49c0-.17,0-.32.05-.46.18-1.66,0-7.4-.26-14.33-1.76-.58-7.1-2.36-9.28-3v11.18s6.64,1.91,7.2,2.21l-.07-7.49-4.81-1.33.14,1.9,3.6,1.54.1,3.29-5-1.57-.24-7.81,7.68,3.08,0,10.91-10.42-3.06,0,1.68,11.14,3.3Z"/><path class="cls-6" d="M455.81,159.07a3.11,3.11,0,0,0-.3-.2c-1.09-.68-4.75-1.67-9.23-2.71,0,3.07.05,12.21.08,15.86l7.11,2.15s-.11-11.1,0-12l-4.8-1.48.17,8.23L450,169l.23-6,2.09.51v8.31l-4.93-1.12.32-13,7,2.43V174l1,.24s.06-9.41,0-15Z"/><path class="cls-6" d="M446.42,173.84q0,.27-.06.48c-.19,1.75,0,7.77.29,15,1.92.48,7.54,1.91,9.74,2.44v-11.2s-6.87-1.82-7.48-2.11l.08,7.76,5.06,1.1-.15-1.91L450.12,184l-.1-3.39,5.15,1.46.25,7.85-8.08-2.67,0-11.4,10.82,3-.05-1.67-11.61-3.37Z"/><path class="cls-6" d="M457.72,192.27l.3.18c1.08.58,4.59,1.25,8.74,1.87,0-2.92-.05-11.62-.08-15.1l-6.66-2s.11,10.92,0,11.84l4.56,1.13-.17-7.91-1.1-.09-.22,5.82-2-.38V179.5l4.63,1-.3,12.45-6.68-1.83V177.39l-1-.23s-.06,9.37,0,15Z"/><path class="cls-6" d="M486.55,183.59c0-.16,0-.31.05-.44.16-1.59,0-7-.24-13.63-1.59-.53-6.42-2.12-8.38-2.74v10.61s6,1.72,6.5,2l-.07-7.11-4.35-1.19.14,1.8,3.25,1.41.09,3.13L479.07,176l-.22-7.41,6.94,2.8,0,10.37L476.36,179l0,1.6,10.07,3Z"/><path class="cls-6" d="M476.77,166.24l-.27-.19c-1-.62-4.28-1.5-8.32-2.41,0,2.91.05,11.58.08,15.05l6.4,1.93s-.1-10.54,0-11.42l-4.33-1.33.16,7.81,1.06.1.21-5.7,1.89.46v7.88l-4.45-1,.29-12.32,6.35,2.19v13.15l.93.21s.05-8.94,0-14.27Z"/><path class="cls-6" d="M468.31,180.41c0,.17,0,.32-.05.46-.18,1.66,0,7.37.26,14.25,1.73.44,6.79,1.72,8.78,2.2V186.68s-6.2-1.63-6.74-1.9l.06,7.36,4.56,1-.13-1.81-3.4-1.3-.09-3.22,4.65,1.32.22,7.46-7.28-2.44,0-10.81,9.75,2.72,0-1.59-10.47-3Z"/><path class="cls-6" d="M478.5,197.76l.27.16c1,.54,4.14,1.13,7.89,1.67,0-2.78,0-11.05-.06-14.36l-6-1.8s.1,10.37,0,11.25l4.12,1-.15-7.52-1-.07-.2,5.54-1.79-.34v-7.73l4.18.88-.26,11.83-6.05-1.65v-13l-.91-.2s-.06,8.9,0,14.21Z"/><path class="cls-6" d="M420,163.2c0-.19.05-.36.07-.51.22-1.85,0-8.24-.32-16-2.2-.73-8.85-2.94-11.56-3.81l0,12.49s8.26,2.41,9,2.76L417,149.8l-6-1.69.18,2.12,4.48,1.87.13,3.68-6.18-2-.3-8.73,9.57,3.77,0,12.16-13-3.83.06,1.88,13.88,4.11Z"/><path class="cls-6" d="M406.48,142.18l-.38-.23c-1.37-.81-5.94-2.08-11.56-3.45,0,3.44.06,13.68.1,17.78l8.91,2.69s-.14-12.42-.05-13.45l-6-1.87.23,9.22,1.48.19.29-6.7,2.62.67v9.29l-6.18-1.46.4-14.52,8.83,3v15.48l1.28.31s.08-10.52.05-16.8Z"/><path class="cls-6" d="M394.72,158.31c0,.2-.06.38-.08.55-.24,1.94,0,8.7.36,16.84,2.41.62,9.45,2.41,12.21,3.09l0-12.52s-8.61-2.3-9.36-2.65l.1,8.69,6.33,1.42-.19-2.15-4.71-1.72-.13-3.8,6.45,1.83.31,8.78-10.12-3.28,0-12.77,13.54,3.82-.05-1.87-14.54-4.23Z"/><path class="cls-6" d="M408.86,179.37l.38.21c1.34.68,5.72,1.55,10.87,2.38,0-3.26-.05-13-.09-16.83l-8.29-2.48s.13,12.19,0,13.21l5.67,1.42-.2-8.83-1.38-.14-.27,6.49-2.47-.5v-9.07l5.75,1.27-.36,13.86-8.33-2.26V162.78l-1.27-.29s-.07,10.46,0,16.71Z"/><path class="cls-6" d="M444.55,170.73q0-.27.06-.48c.2-1.75,0-7.8-.29-15.11-2-.65-7.9-2.63-10.32-3.4v11.8s7.39,2.14,8,2.46l-.08-7.9-5.35-1.49.16,2,4,1.7.12,3.47L435.35,162l-.27-8.24,8.55,3.39,0,11.5L432,165.27l.06,1.77,12.39,3.68Z"/><path class="cls-6" d="M432.52,151.09l-.34-.21c-1.22-.74-5.3-1.86-10.3-3,0,3.24.06,12.9.09,16.76l7.94,2.39s-.13-11.72,0-12.7l-5.37-1.65.2,8.69,1.32.16.27-6.33,2.33.58v8.77l-5.51-1.27.36-13.71,7.86,2.7v14.62l1.15.27s.06-9.93,0-15.86Z"/><path class="cls-6" d="M422,166.52c0,.19-.05.36-.07.51-.21,1.84,0,8.21.33,15.88,2.14.55,8.41,2.14,10.87,2.74l0-11.82s-7.67-2-8.34-2.36l.09,8.2,5.64,1.25-.17-2-4.2-1.56-.12-3.58,5.75,1.63.28,8.29-9-2.95,0-12,12.06,3.38,0-1.76-13-3.76Z"/><path class="cls-6" d="M434.65,186.18l.33.19c1.2.63,5.11,1.38,9.72,2.1,0-3.08-.05-12.25-.09-15.91l-7.41-2.22s.12,11.52,0,12.48l5.07,1.26-.19-8.34-1.23-.11-.24,6.14-2.21-.44v-8.58l5.14,1.12L443.25,187l-7.44-2V170.49l-1.13-.26s-.07,9.88,0,15.79Z"/><path class="cls-6" d="M504.61,189.12c0-.16,0-.3.05-.42.14-1.52,0-6.71-.22-13-1.45-.48-5.83-1.93-7.61-2.49v10.11s5.44,1.56,5.9,1.81l-.06-6.78-3.95-1.07.12,1.71,2.95,1.3.09,3L497.82,182l-.2-7.06,6.3,2.57v9.89l-8.55-2.49,0,1.51,9.14,2.7Z"/><path class="cls-6" d="M495.74,172.73l-.25-.17c-.89-.58-3.88-1.37-7.54-2.17,0,2.77,0,11,.07,14.31l5.8,1.75s-.09-10,0-10.87l-3.92-1.2.14,7.43,1,.08.19-5.43,1.71.41v7.51l-4-.88.26-11.73,5.75,2v12.53l.84.18s.05-8.51,0-13.59Z"/><path class="cls-6" d="M488.07,186.34c0,.16,0,.31-.05.44-.16,1.58,0,7,.24,13.55,1.56.4,6.15,1.56,7.95,2V192.19s-5.63-1.47-6.12-1.72l.06,7,4.14.87-.13-1.72-3.07-1.2-.09-3.06,4.21,1.2.2,7.09-6.59-2.22,0-10.3,8.84,2.46,0-1.51-9.49-2.74Z"/><path class="cls-6" d="M497.3,202.73l.25.15c.88.5,3.76,1,7.17,1.49,0-2.65,0-10.53-.06-13.69l-5.48-1.63s.09,9.88,0,10.71l3.74.92-.14-7.17-.9,0-.18,5.28-1.63-.3v-7.36l3.8.77-.24,11.29-5.49-1.5V189.23l-.83-.18s-.05,8.48,0,13.54Z"/><path class="cls-6" d="M521.07,194.15c0-.14,0-.28,0-.4.13-1.44,0-6.41-.2-12.4-1.32-.44-5.32-1.76-6.94-2.27v9.65s5,1.42,5.38,1.65l-.05-6.48-3.61-1,.11,1.63,2.69,1.2.08,2.84-3.71-1.17-.18-6.74,5.75,2.36v9.45l-7.8-2.26,0,1.44,8.33,2.46Z"/><path class="cls-6" d="M513,178.63l-.23-.16c-.81-.54-3.54-1.25-6.86-2,0,2.64,0,10.51.06,13.65l5.28,1.59s-.08-9.57,0-10.37l-3.57-1.09.13,7.08.88.07.18-5.18,1.55.36v7.16l-3.67-.78.24-11.19,5.24,1.81v11.95l.76.17s0-8.13,0-13Z"/><path class="cls-6" d="M506,191.72c0,.15,0,.29-.05.42-.14,1.51,0,6.68.21,12.92,1.43.36,5.61,1.42,7.25,1.81V197.2s-5.12-1.34-5.56-1.57l.05,6.68,3.76.79-.11-1.64-2.8-1.1-.08-2.92,3.84,1.08.18,6.77-6-2,0-9.82,8.05,2.23,0-1.44-8.64-2.49Z"/><path class="cls-6" d="M514.4,207.24a2,2,0,0,0,.23.14c.8.47,3.43.94,6.54,1.35,0-2.53,0-10.07-.06-13.08l-5-1.49s.09,9.44,0,10.23l3.41.83-.12-6.84-.83,0-.17,5-1.48-.26v-7l3.47.7-.22,10.79-5-1.37V194.34l-.76-.16s0,8.1,0,12.93Z"/><path class="cls-6" d="M536.12,198.76c0-.14,0-.27,0-.38.12-1.39,0-6.14-.18-11.88-1.21-.4-4.88-1.6-6.36-2.07v9.24s4.54,1.28,4.93,1.5l0-6.2-3.3-.87.1,1.56,2.46,1.11.07,2.72-3.39-1.07-.17-6.45,5.27,2.18,0,9-7.13-2.07,0,1.39,7.63,2.23Z"/><path class="cls-6" d="M528.71,184c-.07,0-.14-.11-.21-.15-.74-.5-3.23-1.14-6.26-1.77,0,2.53,0,10,0,13l4.83,1.46s-.08-9.15,0-9.92l-3.26-1,.12,6.77.8.05.16-5,1.42.33v6.85L523,194l.21-10.7L528,185V196.4l.7.15s0-7.77,0-12.41Z"/><path class="cls-6" d="M522.33,196.62c0,.15,0,.29,0,.41-.13,1.44,0,6.38.2,12.34,1.3.33,5.12,1.29,6.62,1.65v-9.25s-4.68-1.21-5.09-1.43l0,6.39,3.44.71-.1-1.58-2.56-1-.07-2.78,3.51,1,.16,6.47L523,207.63l0-9.38,7.36,2,0-1.38-7.9-2.28Z"/><path class="cls-6" d="M530,211.37l.2.13c.74.44,3.14.86,6,1.22,0-2.43,0-9.64-.05-12.53l-4.58-1.36s.08,9,0,9.79l3.12.75-.11-6.55-.76,0-.15,4.83-1.36-.24v-6.73l3.18.62-.2,10.33-4.59-1.25V199l-.69-.15s0,7.75,0,12.37Z"/><path class="cls-6" d="M550,203c0-.14,0-.27,0-.38.11-1.33,0-5.88-.16-11.38-1.12-.37-4.49-1.48-5.85-1.9v8.85s4.17,1.17,4.53,1.38l0-5.95-3-.79.09,1.49,2.27,1,.06,2.6-3.12-1-.15-6.17,4.84,2v8.67l-6.56-1.89,0,1.32,7,2.06Z"/><path class="cls-6" d="M543.14,189l-.19-.14a23.37,23.37,0,0,0-5.76-1.61c0,2.41,0,9.61,0,12.48l4.43,1.34s-.07-8.77,0-9.51l-3-.9.11,6.48.74,0,.15-4.75,1.3.3v6.56l-3.07-.63.2-10.25,4.39,1.52v11l.65.14s0-7.45,0-11.9Z"/><path class="cls-6" d="M537.28,201.11c0,.14,0,.27,0,.39-.12,1.38,0,6.11.18,11.82,1.2.3,4.7,1.18,6.08,1.5V206s-4.29-1.11-4.67-1.31l0,6.12,3.16.64-.1-1.51-2.35-1-.06-2.67,3.22.91.15,6.21-5-1.75,0-9,6.75,1.86,0-1.32-7.25-2.08Z"/><path class="cls-6" d="M544.33,215.15l.19.12c.68.42,2.89.79,5.51,1.11,0-2.33,0-9.25,0-12l-4.2-1.26s.06,8.66,0,9.39l2.87.69-.1-6.28-.7,0-.14,4.64-1.25-.22v-6.45l2.92.56-.18,9.91L545,214.17V203.3l-.64-.13s0,7.43,0,11.86Z"/><path class="cls-6" d="M250.25,233.92c0-.22,0-.41.06-.58.16-2,0-8.66-.26-16.59-1.67.46-6.57,1.79-8.49,2.34v12.44s6-1.52,6.52-1.51l-.07-8.6-4.41,1.39.13,2.05,3.28-.36.09,3.72-4.49,1-.21-8.6,7-1.22,0,12.71-9.42,2.2,0,1.83L250.17,234Z"/><path class="cls-6" d="M240.41,219.24l-.26,0c-.93-.08-4,1-7.57,2.45,0,3.23,0,12.85.06,16.69l5.78-1.2s-.1-12.07,0-13.12l-3.94,1.1.14,8.68,1-.46.19-6.58,1.72-.59v9l-4,1.27.26-13.94,5.79-1.44v15.24l.88-.27s.05-10.44,0-16.64Z"/><path class="cls-6" d="M232.69,240.23c0,.2,0,.38-.05.54-.15,1.93,0,8.21.23,15.75,1.52-.25,6.16-1,8-1.33V242.78s-5.75,1.26-6.24,1.23l.06,8.26,4.17-1-.12-2-3.12.12-.09-3.6,4.3-.79.21,8.55-6.66.49,0-12.11,9-1.94,0-1.84-9.66,2Z"/><path class="cls-6" d="M242.07,255.16a1.71,1.71,0,0,0,.26.07c.95.2,4.14-.56,8-1.69,0-3.42,0-13.58-.07-17.63l-6.21,1.27s.1,12.28,0,13.35l4.19-.81-.16-9.07-1,.47-.21,6.8-1.82.49v-9.23l4.31-1.29-.28,14.62-6.14.89V238l-.9.26s-.05,10.49,0,16.73Z"/><path class="cls-6" d="M271.7,229.47c0-.23,0-.43.06-.61.19-2.18,0-9.22-.29-17.65-1.9.52-7.43,2-9.59,2.63v13.22s6.76-1.71,7.36-1.7l-.08-9.15-5,1.56.15,2.17,3.7-.44.11,3.95-5.07,1.17-.24-9.13,8-1.42,0,13.52-10.64,2.48.05,1.94,11.42-2.5Z"/><path class="cls-6" d="M260.58,214l-.3,0c-1-.08-4.48,1.12-8.52,2.72,0,3.43,0,13.63.07,17.7l6.5-1.35s-.1-12.81,0-13.93l-4.45,1.23.16,9.21,1.08-.51.21-7,1.94-.66V231l-4.5,1.4.28-14.79,6.52-1.61v16.17l1-.3s.05-11.08,0-17.67Z"/><path class="cls-6" d="M251.89,236.41c0,.21,0,.41-.06.58-.17,2,0,8.7.26,16.69,1.71-.27,6.93-1.11,9-1.49V239s-6.48,1.41-7,1.38l.07,8.76,4.7-1.07-.14-2.15-3.52.16-.09-3.82,4.84-.89.23,9.08-7.49.58,0-12.83L262.9,236l0-1.95L252,236.38Z"/><path class="cls-6" d="M262.45,252.16l.3.06c1.07.2,4.67-.64,9.09-1.88,0-3.63,0-14.44-.08-18.75l-7,1.43s.11,13.06,0,14.19l4.73-.9-.18-9.65-1.16.51L268,244.4l-2.06.55v-9.82l4.86-1.42-.31,15.55-6.94,1V233.92l-1,.29s-.06,11.14,0,17.77Z"/><path class="cls-6" d="M214.26,241.38c0-.19,0-.36,0-.51.14-1.82,0-7.74-.2-14.82-1.34.37-5.25,1.44-6.79,1.88v11.14s4.79-1.24,5.21-1.21l-.05-7.69L209,231.31l.1,1.84,2.62-.25.08,3.32-3.6.83-.17-7.7,5.63-.92v11.35l-7.54,1.78,0,1.64,8.09-1.79Z"/><path class="cls-6" d="M206.39,228l-.21,0c-.75-.1-3.2.79-6.09,2,0,2.9,0,11.55,0,15l4.65-1s-.08-10.82,0-11.76l-3.17.9.12,7.8.77-.4.15-5.9,1.38-.49v8.08l-3.22,1.07.2-12.51,4.66-1.15v13.65l.71-.23s0-9.34,0-14.9Z"/><path class="cls-6" d="M200.18,246.7c0,.18,0,.34,0,.48-.12,1.73,0,7.37.19,14.14,1.23-.2,4.95-.8,6.46-1.08V249.13s-4.62,1-5,1l0,7.42,3.35-.81-.1-1.82-2.51.05-.07-3.22,3.46-.64.17,7.66-5.36.34,0-10.86,7.26-1.58,0-1.65-7.76,1.66Z"/><path class="cls-6" d="M207.72,260.24l.21.06c.76.19,3.31-.45,6.43-1.4,0-3,0-12.12-.06-15.74l-5,1s.08,11,0,12l3.34-.66-.12-8.1-.82.39-.17,6.08-1.45.41V246l3.44-1.07-.23,13-4.9.71V244.9l-.72.22s0,9.38,0,15Z"/><path class="cls-6" d="M231.24,237.86c0-.2,0-.38,0-.54.15-1.93,0-8.17-.22-15.66-1.49.41-5.86,1.6-7.57,2.1v11.75s5.34-1.37,5.81-1.35l-.06-8.12-3.93,1.26.12,1.94,2.92-.31.08,3.51-4,.93-.19-8.13,6.27-1.06v12l-8.4,2,0,1.73,9-2Z"/><path class="cls-6" d="M222.46,223.88l-.23,0c-.83-.09-3.56.89-6.77,2.22,0,3.05,0,12.16.06,15.79l5.16-1.08s-.08-11.4,0-12.4l-3.52,1,.12,8.22.86-.43.17-6.22,1.54-.54v8.53l-3.58,1.16.23-13.19,5.18-1.28V240l.79-.24s0-9.87,0-15.73Z"/><path class="cls-6" d="M215.56,243.64c0,.19,0,.36,0,.51-.14,1.83,0,7.77.2,14.9,1.37-.22,5.51-.89,7.19-1.19V246.13s-5.14,1.14-5.57,1.1l0,7.81,3.73-.88-.11-1.92-2.79.09-.08-3.41,3.84-.7.19,8.08-5.95.41V245.26l8.08-1.75,0-1.74-8.63,1.84Z"/><path class="cls-6" d="M223.94,257.84l.24.07c.85.19,3.69-.51,7.17-1.54,0-3.22,0-12.81-.07-16.63l-5.52,1.13s.09,11.6,0,12.61l3.73-.73-.13-8.56-.93.43-.18,6.42-1.62.45v-8.72l3.83-1.17-.24,13.79-5.48.8V241.64l-.79.24s-.05,9.91,0,15.8Z"/><path class="cls-6" d="M296.07,224.42c0-.24.05-.46.07-.66.22-2.32,0-9.84-.33-18.84-2.16.58-8.47,2.29-10.93,3l0,14.09s7.7-1.93,8.37-1.92l-.08-9.77L287.52,212l.16,2.32,4.22-.53.12,4.22-5.77,1.33-.28-9.74L295,208l0,14.44-12.11,2.8.05,2.07,13-2.84Z"/><path class="cls-6" d="M283.41,208.12l-.34,0c-1.19-.07-5.09,1.27-9.66,3,0,3.64,0,14.5.08,18.83l7.37-1.53s-.12-13.65-.05-14.84l-5,1.38.18,9.81,1.22-.56.24-7.43,2.2-.74v10.2l-5.11,1.57.32-15.75,7.41-1.84v17.24l1.13-.33s.07-11.82,0-18.84Z"/><path class="cls-6" d="M273.55,232.1c0,.23-.05.43-.06.61-.2,2.19,0,9.27.29,17.77,1.94-.31,7.85-1.26,10.27-1.68V234.75s-7.36,1.59-8,1.56l.08,9.33,5.33-1.2-.17-2.29-4,.21-.11-4.06,5.49-1L283,247l-8.5.7,0-13.66,11.56-2.45-.05-2.09-12.35,2.61Z"/><path class="cls-6" d="M285.53,248.75l.34.07c1.22.2,5.32-.74,10.36-2.11,0-3.88-.05-15.43-.09-20l-8,1.63s.12,13.93,0,15.14l5.39-1-.19-10.3-1.34.56-.26,7.72-2.34.61V230.55L295,229l-.36,16.61-7.9,1.16V229.29l-1.15.32s-.07,11.88,0,18.95Z"/><path class="cls-6" d="M324,218.62c0-.26.06-.49.08-.7.25-2.5,0-10.57-.37-20.22-2.5.67-9.74,2.62-12.56,3.42v15.09S320,214,320.79,214l-.1-10.47-6.51,2,.19,2.48,4.85-.65.13,4.52-6.63,1.52L312.41,203l10.41-2,0,15.49-13.91,3.21.06,2.21,14.94-3.25Z"/><path class="cls-6" d="M309.46,201.38l-.38,0c-1.37,0-5.83,1.46-11.06,3.45,0,3.9.06,15.5.09,20.13l8.43-1.75s-.14-14.6-.05-15.88l-5.76,1.57.2,10.48,1.4-.62.28-7.95,2.51-.83v10.91l-5.84,1.76.37-16.84,8.47-2.11v18.45l1.29-.37s.08-12.65.05-20.17Z"/><path class="cls-6" d="M298.18,227.2c0,.24-.05.46-.07.66-.22,2.33,0,9.89.33,19,2.22-.36,9-1.43,11.76-1.91l0-15.05s-8.42,1.8-9.13,1.78l.09,10,6.1-1.35-.19-2.45-4.56.28-.13-4.35,6.29-1.15L309,243l-9.73.85,0-14.6,13.23-2.79-.06-2.24-14.13,3Z"/><path class="cls-6" d="M311.9,244.85l.39.08c1.4.2,6.1-.85,11.91-2.38,0-4.17-.07-16.56-.11-21.5l-9.19,1.87s.15,14.93.05,16.23l6.2-1.17-.23-11-1.53.62-.3,8.29-2.7.68V225.3l6.37-1.79-.41,17.83-9.08,1.34V224l-1.32.37s-.08,12.73-.05,20.29Z"/><path class="cls-6" d="M356.37,211.91c0-.28.07-.53.09-.76.3-2.7,0-11.4-.44-21.8-2.9.77-11.31,3-14.58,4l0,16.24S351.72,207,352.63,207l-.12-11.3L344.94,198l.22,2.67,5.63-.8.16,4.87-7.7,1.77-.36-11.22L355,192.93l0,16.72-16.15,3.7.07,2.38L356.22,212Z"/><path class="cls-6" d="M339.47,193.62l-.44,0c-1.58,0-6.74,1.69-12.77,3.93,0,4.18.06,16.64.11,21.61l9.73-2s-.16-15.7-.06-17.08l-6.66,1.8.24,11.26,1.61-.69.32-8.55,2.9-.93,0,11.72-6.74,2,.42-18.09,9.79-2.44V216l1.49-.42s.09-13.62.06-21.7Z"/><path class="cls-6" d="M326.45,221.58c0,.26-.06.49-.08.7-.26,2.51,0,10.63.38,20.38,2.56-.41,10.38-1.65,13.58-2.19l0-16.2s-9.74,2.07-10.56,2l.11,10.72,7-1.53-.21-2.63-5.27.36-.15-4.66,7.27-1.34.36,11.13-11.24,1,0-15.68,15.3-3.21-.07-2.41-16.34,3.42Z"/><path class="cls-6" d="M342.3,240.36l.45.08c1.62.2,7.09-1,13.84-2.71,0-4.5-.08-17.87-.13-23.2l-10.68,2.18s.17,16.07.06,17.47l7.2-1.34-.27-11.9-1.78.69-.35,8.94-3.13.77V219.25l7.41-2-.48,19.24L343.87,238V217.88l-1.52.42s-.09,13.7-.06,21.84Z"/><path class="cls-6" d="M394.28,204.05c0-.3.08-.58.11-.82.35-2.95,0-12.39-.52-23.67-3.41.91-13.31,3.56-17.14,4.63l0,17.58s12.05-2.94,13.12-3l-.14-12.25-8.89,2.63.26,2.88,6.61-1,.19,5.28-9,2.07-.42-12.14,14.22-2.79,0,18.14-19,4.32.08,2.58,20.38-4.41Z"/><path class="cls-6" d="M374.43,184.58a4.72,4.72,0,0,0-.52,0c-1.85,0-7.88,2-14.92,4.54,0,4.51.07,18,.12,23.32l11.36-2.36s-.19-17-.06-18.47l-7.78,2.1.28,12.15,1.88-.78.37-9.24,3.39-1.07,0,12.68-7.87,2.26.49-19.54,11.43-2.85v21.47l1.76-.48s.1-14.74.06-23.49Z"/><path class="cls-6" d="M359.21,215.06c0,.28-.07.54-.1.76-.29,2.72,0,11.47.45,22,3-.47,12.12-1.91,15.87-2.54l0-17.53s-11.39,2.39-12.35,2.39l.12,11.57,8.24-1.74-.25-2.85-6.17.47-.17-5,8.5-1.56.42,12-13.13,1.27,0-16.93,17.89-3.73-.08-2.6-19.1,4Z"/><path class="cls-6" d="M377.74,235.13c.2,0,.37.06.53.07,1.9.2,8.32-1.16,16.27-3.12,0-4.88-.09-19.4-.15-25.19l-12.57,2.56s.2,17.41.07,18.93l8.47-1.55L390,213.92l-2.09.78-.42,9.69-3.67.89,0-13.11,8.72-2.34L392,230.72l-12.41,1.84v-21.8l-1.79.48s-.1,14.84-.06,23.65Z"/><g class="cls-5"><path d="M250.25,233.92c0-.22,0-.41.06-.58.16-2,0-8.66-.26-16.59-1.67.46-6.57,1.79-8.49,2.34v12.44s6-1.52,6.52-1.51l-.07-8.6-4.41,1.39.13,2.05,3.28-.36.09,3.72-4.49,1-.21-8.6,7-1.22,0,12.71-9.42,2.2,0,1.83L250.17,234Z"/><path d="M240.41,219.24l-.26,0c-.93-.08-4,1-7.57,2.45,0,3.23,0,12.85.06,16.69l5.78-1.2s-.1-12.07,0-13.12l-3.94,1.1.14,8.68,1-.46.19-6.58,1.72-.59v9l-4,1.27.26-13.94,5.79-1.44v15.24l.88-.27s.05-10.44,0-16.64Z"/><path d="M232.69,240.23c0,.2,0,.38-.05.54-.15,1.93,0,8.21.23,15.75,1.52-.25,6.16-1,8-1.33V242.78s-5.75,1.26-6.24,1.23l.06,8.26,4.17-1-.12-2-3.12.12-.09-3.6,4.3-.79.21,8.55-6.66.49,0-12.11,9-1.94,0-1.84-9.66,2Z"/><path d="M242.07,255.16a1.71,1.71,0,0,0,.26.07c.95.2,4.14-.56,8-1.69,0-3.42,0-13.58-.07-17.63l-6.21,1.27s.1,12.28,0,13.35l4.19-.81-.16-9.07-1,.47-.21,6.8-1.82.49v-9.23l4.31-1.29-.28,14.62-6.14.89V238l-.9.26s-.05,10.49,0,16.73Z"/><path d="M271.7,229.47c0-.23,0-.43.06-.61.19-2.18,0-9.22-.29-17.65-1.9.52-7.43,2-9.59,2.63v13.22s6.76-1.71,7.36-1.7l-.08-9.15-5,1.56.15,2.17,3.7-.44.11,3.95-5.07,1.17-.24-9.13,8-1.42,0,13.52-10.64,2.48.05,1.94,11.42-2.5Z"/><path d="M260.58,214l-.3,0c-1-.08-4.48,1.12-8.52,2.72,0,3.43,0,13.63.07,17.7l6.5-1.35s-.1-12.81,0-13.93l-4.45,1.23.16,9.21,1.08-.51.21-7,1.94-.66V231l-4.5,1.4.28-14.79,6.52-1.61v16.17l1-.3s.05-11.08,0-17.67Z"/><path d="M251.89,236.41c0,.21,0,.41-.06.58-.17,2,0,8.7.26,16.69,1.71-.27,6.93-1.11,9-1.49V239s-6.48,1.41-7,1.38l.07,8.76,4.7-1.07-.14-2.15-3.52.16-.09-3.82,4.84-.89.23,9.08-7.49.58,0-12.83L262.9,236l0-1.95L252,236.38Z"/><path d="M262.45,252.16l.3.06c1.07.2,4.67-.64,9.09-1.88,0-3.63,0-14.44-.08-18.75l-7,1.43s.11,13.06,0,14.19l4.73-.9-.18-9.65-1.16.51L268,244.4l-2.06.55v-9.82l4.86-1.42-.31,15.55-6.94,1V233.92l-1,.29s-.06,11.14,0,17.77Z"/><path d="M214.26,241.38c0-.19,0-.36,0-.51.14-1.82,0-7.74-.2-14.82-1.34.37-5.25,1.44-6.79,1.88v11.14s4.79-1.24,5.21-1.21l-.05-7.69L209,231.31l.1,1.84,2.62-.25.08,3.32-3.6.83-.17-7.7,5.63-.92v11.35l-7.54,1.78,0,1.64,8.09-1.79Z"/><path d="M206.39,228l-.21,0c-.75-.1-3.2.79-6.09,2,0,2.9,0,11.55,0,15l4.65-1s-.08-10.82,0-11.76l-3.17.9.12,7.8.77-.4.15-5.9,1.38-.49v8.08l-3.22,1.07.2-12.51,4.66-1.15v13.65l.71-.23s0-9.34,0-14.9Z"/><path d="M200.18,246.7c0,.18,0,.34,0,.48-.12,1.73,0,7.37.19,14.14,1.23-.2,4.95-.8,6.46-1.08V249.13s-4.62,1-5,1l0,7.42,3.35-.81-.1-1.82-2.51.05-.07-3.22,3.46-.64.17,7.66-5.36.34,0-10.86,7.26-1.58,0-1.65-7.76,1.66Z"/><path d="M207.72,260.24l.21.06c.76.19,3.31-.45,6.43-1.4,0-3,0-12.12-.06-15.74l-5,1s.08,11,0,12l3.34-.66-.12-8.1-.82.39-.17,6.08-1.45.41V246l3.44-1.07-.23,13-4.9.71V244.9l-.72.22s0,9.38,0,15Z"/><path d="M231.24,237.86c0-.2,0-.38,0-.54.15-1.93,0-8.17-.22-15.66-1.49.41-5.86,1.6-7.57,2.1v11.75s5.34-1.37,5.81-1.35l-.06-8.12-3.93,1.26.12,1.94,2.92-.31.08,3.51-4,.93-.19-8.13,6.27-1.06v12l-8.4,2,0,1.73,9-2Z"/><path d="M222.46,223.88l-.23,0c-.83-.09-3.56.89-6.77,2.22,0,3.05,0,12.16.06,15.79l5.16-1.08s-.08-11.4,0-12.4l-3.52,1,.12,8.22.86-.43.17-6.22,1.54-.54v8.53l-3.58,1.16.23-13.19,5.18-1.28V240l.79-.24s0-9.87,0-15.73Z"/><path d="M215.56,243.64c0,.19,0,.36,0,.51-.14,1.83,0,7.77.2,14.9,1.37-.22,5.51-.89,7.19-1.19V246.13s-5.14,1.14-5.57,1.1l0,7.81,3.73-.88-.11-1.92-2.79.09-.08-3.41,3.84-.7.19,8.08-5.95.41V245.26l8.08-1.75,0-1.74-8.63,1.84Z"/><path d="M223.94,257.84l.24.07c.85.19,3.69-.51,7.17-1.54,0-3.22,0-12.81-.07-16.63l-5.52,1.13s.09,11.6,0,12.61l3.73-.73-.13-8.56-.93.43-.18,6.42-1.62.45v-8.72l3.83-1.17-.24,13.79-5.48.8V241.64l-.79.24s-.05,9.91,0,15.8Z"/><path d="M296.07,224.42c0-.24.05-.46.07-.66.22-2.32,0-9.84-.33-18.84-2.16.58-8.47,2.29-10.93,3l0,14.09s7.7-1.93,8.37-1.92l-.08-9.77L287.52,212l.16,2.32,4.22-.53.12,4.22-5.77,1.33-.28-9.74L295,208l0,14.44-12.11,2.8.05,2.07,13-2.84Z"/><path d="M283.41,208.12l-.34,0c-1.19-.07-5.09,1.27-9.66,3,0,3.64,0,14.5.08,18.83l7.37-1.53s-.12-13.65-.05-14.84l-5,1.38.18,9.81,1.22-.56.24-7.43,2.2-.74v10.2l-5.11,1.57.32-15.75,7.41-1.84v17.24l1.13-.33s.07-11.82,0-18.84Z"/><path d="M273.55,232.1c0,.23-.05.43-.06.61-.2,2.19,0,9.27.29,17.77,1.94-.31,7.85-1.26,10.27-1.68V234.75s-7.36,1.59-8,1.56l.08,9.33,5.33-1.2-.17-2.29-4,.21-.11-4.06,5.49-1L283,247l-8.5.7,0-13.66,11.56-2.45-.05-2.09-12.35,2.61Z"/><path d="M285.53,248.75l.34.07c1.22.2,5.32-.74,10.36-2.11,0-3.88-.05-15.43-.09-20l-8,1.63s.12,13.93,0,15.14l5.39-1-.19-10.3-1.34.56-.26,7.72-2.34.61V230.55L295,229l-.36,16.61-7.9,1.16V229.29l-1.15.32s-.07,11.88,0,18.95Z"/><path d="M324,218.62c0-.26.06-.49.08-.7.25-2.5,0-10.57-.37-20.22-2.5.67-9.74,2.62-12.56,3.42v15.09S320,214,320.79,214l-.1-10.47-6.51,2,.19,2.48,4.85-.65.13,4.52-6.63,1.52L312.41,203l10.41-2,0,15.49-13.91,3.21.06,2.21,14.94-3.25Z"/><path d="M309.46,201.38l-.38,0c-1.37,0-5.83,1.46-11.06,3.45,0,3.9.06,15.5.09,20.13l8.43-1.75s-.14-14.6-.05-15.88l-5.76,1.57.2,10.48,1.4-.62.28-7.95,2.51-.83v10.91l-5.84,1.76.37-16.84,8.47-2.11v18.45l1.29-.37s.08-12.65.05-20.17Z"/><path d="M298.18,227.2c0,.24-.05.46-.07.66-.22,2.33,0,9.89.33,19,2.22-.36,9-1.43,11.76-1.91l0-15.05s-8.42,1.8-9.13,1.78l.09,10,6.1-1.35-.19-2.45-4.56.28-.13-4.35,6.29-1.15L309,243l-9.73.85,0-14.6,13.23-2.79-.06-2.24-14.13,3Z"/><path d="M311.9,244.85l.39.08c1.4.2,6.1-.85,11.91-2.38,0-4.17-.07-16.56-.11-21.5l-9.19,1.87s.15,14.93.05,16.23l6.2-1.17-.23-11-1.53.62-.3,8.29-2.7.68V225.3l6.37-1.79-.41,17.83-9.08,1.34V224l-1.32.37s-.08,12.73-.05,20.29Z"/><path d="M356.37,211.91c0-.28.07-.53.09-.76.3-2.7,0-11.4-.44-21.8-2.9.77-11.31,3-14.58,4l0,16.24S351.72,207,352.63,207l-.12-11.3L344.94,198l.22,2.67,5.63-.8.16,4.87-7.7,1.77-.36-11.22L355,192.93l0,16.72-16.15,3.7.07,2.38L356.22,212Z"/><path d="M339.47,193.62l-.44,0c-1.58,0-6.74,1.69-12.77,3.93,0,4.18.06,16.64.11,21.61l9.73-2s-.16-15.7-.06-17.08l-6.66,1.8.24,11.26,1.61-.69.32-8.55,2.9-.93,0,11.72-6.74,2,.42-18.09,9.79-2.44V216l1.49-.42s.09-13.62.06-21.7Z"/><path d="M326.45,221.58c0,.26-.06.49-.08.7-.26,2.51,0,10.63.38,20.38,2.56-.41,10.38-1.65,13.58-2.19l0-16.2s-9.74,2.07-10.56,2l.11,10.72,7-1.53-.21-2.63-5.27.36-.15-4.66,7.27-1.34.36,11.13-11.24,1,0-15.68,15.3-3.21-.07-2.41-16.34,3.42Z"/><path d="M342.3,240.36l.45.08c1.62.2,7.09-1,13.84-2.71,0-4.5-.08-17.87-.13-23.2l-10.68,2.18s.17,16.07.06,17.47l7.2-1.34-.27-11.9-1.78.69-.35,8.94-3.13.77V219.25l7.41-2-.48,19.24L343.87,238V217.88l-1.52.42s-.09,13.7-.06,21.84Z"/><path d="M394.28,204.05c0-.3.08-.58.11-.82.35-2.95,0-12.39-.52-23.67-3.41.91-13.31,3.56-17.14,4.63l0,17.58s12.05-2.94,13.12-3l-.14-12.25-8.89,2.63.26,2.88,6.61-1,.19,5.28-9,2.07-.42-12.14,14.22-2.79,0,18.14-19,4.32.08,2.58,20.38-4.41Z"/><path d="M374.43,184.58a4.72,4.72,0,0,0-.52,0c-1.85,0-7.88,2-14.92,4.54,0,4.51.07,18,.12,23.32l11.36-2.36s-.19-17-.06-18.47l-7.78,2.1.28,12.15,1.88-.78.37-9.24,3.39-1.07,0,12.68-7.87,2.26.49-19.54,11.43-2.85v21.47l1.76-.48s.1-14.74.06-23.49Z"/><path d="M359.21,215.06c0,.28-.07.54-.1.76-.29,2.72,0,11.47.45,22,3-.47,12.12-1.91,15.87-2.54l0-17.53s-11.39,2.39-12.35,2.39l.12,11.57,8.24-1.74-.25-2.85-6.17.47-.17-5,8.5-1.56.42,12-13.13,1.27,0-16.93,17.89-3.73-.08-2.6-19.1,4Z"/><path d="M377.74,235.13c.2,0,.37.06.53.07,1.9.2,8.32-1.16,16.27-3.12,0-4.88-.09-19.4-.15-25.19l-12.57,2.56s.2,17.41.07,18.93l8.47-1.55L390,213.92l-2.09.78-.42,9.69-3.67.89,0-13.11,8.72-2.34L392,230.72l-12.41,1.84v-21.8l-1.79.48s-.1,14.84-.06,23.65Z"/></g><path class="cls-6" d="M490.89,223.93c0-.24.05-.44.07-.63.22-2.25,0-9.89-.33-19.11-2.22-.55-9-2.23-11.76-2.87l0,15.05s8.42,1.62,9.13,1.93l-.09-10-6.1-1.13.19,2.52,4.56,1.58.13,4.39-6.29-1.4-.31-10.47,9.73,3.1,0,14.59-13.23-2.58.06,2.26,14.14,2.77Z"/><path class="cls-6" d="M477.17,200.7a4.35,4.35,0,0,0-.39-.23c-1.4-.77-6.1-1.63-11.91-2.46,0,4.17.07,16.58.11,21.54l9.19,1.86s-.14-15-.05-16.24l-6.2-1.36.23,11.13h1.53l.31-8.16,2.69.41v11.23l-6.37-.8.41-17.66,9.09,2.35V221l1.31.17s.08-12.7.05-20.27Z"/><path class="cls-6" d="M465.06,222c0,.25-.06.47-.08.67-.25,2.4,0,10.56.38,20.37,2.49.34,9.74,1.33,12.56,1.68l0-15.09s-8.84-1.4-9.62-1.7l.1,10.51,6.52.67-.2-2.56-4.84-1.32-.14-4.57,6.63,1.17.32,10.55-10.42-2.28,0-15.49,13.91,2.45-.06-2.23L465.19,222Z"/><path class="cls-6" d="M479.61,245.16l.39.19c1.36.6,5.82.9,11.05,1,0-3.9-.05-15.52-.09-20.16l-8.43-1.68s.14,14.66.05,15.9l5.76.77-.2-10.56-1.4.05-.28,7.84-2.51-.2V227.44l5.84.62-.37,16.69-8.47-1.34V225l-1.29-.15s-.07,12.62,0,20.15Z"/><path class="cls-6" d="M515.52,229c0-.21.05-.41.06-.58.2-2.11,0-9.26-.28-17.89-1.95-.47-7.86-1.93-10.28-2.49v14.06s7.36,1.4,8,1.68l-.08-9.36-5.32-1,.16,2.36,4,1.4.11,4.11-5.49-1.22-.27-9.78,8.5,2.75,0,13.65L503,224.51l.06,2.11L515.42,229Z"/><path class="cls-6" d="M503.54,207.52l-.34-.21c-1.22-.69-5.32-1.42-10.36-2.1,0,3.88.06,15.45.09,20.07l8,1.61s-.12-14,0-15.15l-5.39-1.17.2,10.37H497l.26-7.62,2.35.35v10.47l-5.55-.66.36-16.47,7.91,2.05V226.5l1.15.14s.06-11.86,0-18.93Z"/><path class="cls-6" d="M493,227.57c0,.23-.05.44-.07.62-.22,2.24,0,9.84.33,19,2.16.3,8.47,1.15,10.93,1.45V234.53s-7.71-1.2-8.38-1.48l.08,9.81,5.67.55-.16-2.38-4.22-1.18-.12-4.27,5.77,1,.28,9.85-9.06-2,0-14.43,12.11,2.12-.05-2.09-13-2.45Z"/><path class="cls-6" d="M505.67,249l.33.17c1.19.55,5.09.79,9.67.88,0-3.66,0-14.53-.09-18.87l-7.36-1.46s.12,13.69,0,14.85l5,.67-.18-9.88-1.22.06-.24,7.33-2.2-.15V232.4l5.11.51-.32,15.62-7.4-1.17V230.13L505.7,230s-.07,11.79,0,18.82Z"/><path class="cls-6" d="M429.87,211.27c0-.26.07-.51.09-.72.3-2.6,0-11.46-.44-22.17-3-.74-12.13-3-15.88-3.91l0,17.54s11.39,2.24,12.35,2.62L425.89,193l-8.23-1.6.25,3,6.16,2,.17,5.11-8.5-1.9-.42-12.21,13.13,4.07,0,16.91-17.89-3.53.08,2.63,19.1,3.78Z"/><path class="cls-6" d="M411.33,183.67l-.53-.29c-1.9-1-8.31-2.21-16.26-3.48,0,4.89.08,19.44.14,25.25l12.57,2.54s-.2-17.49-.07-19l-8.46-1.88.31,13,2.09.07.42-9.53,3.68.61v13.11l-8.71-1.2.56-20.66,12.41,3.2v21.8l1.79.25s.1-14.8.07-23.63Z"/><path class="cls-6" d="M394.79,208c0,.29-.08.55-.11.78-.34,2.8,0,12.37.52,23.88,3.41.47,13.31,1.84,17.14,2.33l0-17.58s-12.05-2-13.12-2.35l.14,12.31,8.9,1-.26-3-6.62-1.7-.19-5.36,9.05,1.6.42,12.31-14.22-3,0-18.13,19,3.39-.08-2.61L395,208Z"/><path class="cls-6" d="M414.65,235.57l.52.23c1.85.73,7.88,1.21,14.92,1.52,0-4.53-.08-18-.13-23.38l-11.36-2.26s.19,17,.06,18.5l7.78,1.07L426.16,219h-1.88l-.37,9.09-3.39-.3,0-12.69,7.87.93-.49,19.35-11.43-1.8V212.1l-1.75-.23s-.1,14.69-.07,23.46Z"/><path class="cls-6" d="M462.63,218.07c0-.25.05-.48.08-.68.25-2.4,0-10.61-.38-20.52-2.56-.64-10.38-2.58-13.59-3.33l0,16.2s9.74,1.89,10.56,2.23l-.11-10.75-7-1.34.21,2.72,5.28,1.78.14,4.73-7.27-1.63-.36-11.27,11.24,3.53,0,15.67-15.29-3,.07,2.43,16.33,3.22Z"/><path class="cls-6" d="M446.77,192.84l-.45-.26c-1.62-.86-7.08-1.89-13.83-2.91,0,4.5.07,17.9.12,23.25l10.68,2.16s-.17-16.14-.06-17.5L436,196l.27,12,1.78,0,.35-8.79,3.13.5,0,12.09-7.41-1,.47-19.05,10.56,2.73v20.13l1.53.2s.08-13.67,0-21.82Z"/><path class="cls-6" d="M432.7,215.57c0,.27-.07.51-.09.72-.29,2.59,0,11.39.44,22,2.9.4,11.31,1.56,14.58,2V224s-10.27-1.65-11.17-2l.11,11.34,7.57.81-.22-2.76-5.63-1.49-.16-4.94,7.7,1.36.36,11.37-12.09-2.6,0-16.7,16.15,2.87-.07-2.41-17.35-3.29Z"/><path class="cls-6" d="M449.6,240.73l.44.2c1.58.67,6.74,1,12.77,1.26,0-4.19-.06-16.67-.1-21.65L453,218.6s.16,15.77,0,17.1l6.66.9-.24-11.35-1.61,0-.32,8.42-2.9-.25,0-11.73,6.75.76-.43,17.92-9.78-1.55V219l-1.5-.19s-.08,13.58-.05,21.68Z"/><path class="cls-6" d="M537.18,233.53c0-.21,0-.39.06-.56.17-2,0-8.69-.26-16.8-1.71-.42-6.93-1.7-9.05-2.19v13.19s6.48,1.22,7,1.48l-.07-8.8-4.7-.83.15,2.21,3.51,1.27.1,3.85-4.85-1.07-.23-9.18,7.49,2.46,0,12.83-10.18-2,.05,2,10.88,2.12Z"/><path class="cls-6" d="M526.62,213.49l-.3-.19c-1.07-.63-4.66-1.25-9.09-1.81,0,3.63,0,14.46.08,18.79l7,1.41s-.11-13.1,0-14.21l-4.74-1,.18,9.71,1.17,0,.23-7.14,2,.29v9.82l-4.86-.55.31-15.43,6.94,1.81V231.3l1,.12s.06-11.12,0-17.75Z"/><path class="cls-6" d="M517.37,232.42c0,.21,0,.41-.06.58-.19,2.1,0,9.21.29,17.77,1.9.25,7.43,1,9.59,1.26V238.82s-6.76-1-7.35-1.3l.07,9.18,5,.47-.15-2.24-3.7-1.06-.11-4,5.08.89.24,9.23-8-1.82,0-13.51,10.64,1.85,0-2-11.43-2.14Z"/><path class="cls-6" d="M528.5,252.38l.29.16c1.05.5,4.48.7,8.52.74,0-3.43,0-13.65-.07-17.73l-6.5-1.29s.11,12.85,0,13.94l4.44.58-.16-9.28-1.08.07-.21,6.89-1.94-.12v-9.58l4.51.42L536,251.86l-6.52-1V234.65l-1-.11s0,11.07,0,17.66Z"/><path class="cls-6" d="M556.38,237.51c0-.2,0-.37,0-.53.15-1.87,0-8.2-.23-15.84-1.52-.37-6.15-1.5-8-1.93v12.41s5.76,1.08,6.24,1.31l-.06-8.29-4.17-.72.12,2.08,3.12,1.15.09,3.63-4.3-.95-.21-8.64,6.66,2.22,0,12.09-9-1.73,0,1.86,9.66,1.87Z"/><path class="cls-6" d="M547,218.76a1.64,1.64,0,0,0-.26-.17c-1-.58-4.13-1.12-8-1.58,0,3.42,0,13.6.08,17.66l6.2,1.25s-.1-12.33,0-13.37l-4.18-.89.15,9.13,1,0,.21-6.72,1.82.25v9.23l-4.3-.46.27-14.5,6.14,1.6v15.39l.9.1s0-10.47,0-16.71Z"/><path class="cls-6" d="M538.82,236.68c0,.21,0,.39-.05.56-.17,2,0,8.65.25,16.69,1.68.23,6.58.88,8.49,1.11V242.6s-6-.91-6.51-1.14l.06,8.63,4.41.39-.13-2.1-3.28-1-.09-3.76,4.49.79.21,8.69-7-1.65,0-12.7,9.42,1.63,0-1.85-10.11-1.88Z"/><path class="cls-6" d="M548.66,255.36l.27.14c.93.47,4,.63,7.56.63,0-3.23,0-12.87-.06-16.72l-5.78-1.14s.1,12.11,0,13.14l3.94.5-.14-8.75-1,.08-.19,6.5-1.72-.1v-9l4,.35-.25,13.85-5.8-.93V238.65l-.88-.09s-.05,10.42,0,16.63Z"/><path class="cls-6" d="M573.51,241.06c0-.19,0-.35,0-.5.14-1.77,0-7.76-.2-15-1.36-.33-5.5-1.34-7.19-1.73v11.74s5.14.94,5.58,1.16l-.06-7.84-3.73-.63.12,2,2.78,1,.08,3.44-3.84-.86-.19-8.15,6,2v11.44l-8.08-1.54,0,1.76,8.63,1.67Z"/><path class="cls-6" d="M565.13,223.45l-.24-.16c-.84-.54-3.68-1-7.17-1.38,0,3.23,0,12.83.07,16.66l5.52,1.11s-.08-11.64,0-12.62l-3.73-.79.14,8.61.92,0,.18-6.34,1.62.21v8.72l-3.83-.39.24-13.69,5.48,1.43v14.54l.8.09s0-9.89,0-15.79Z"/><path class="cls-6" d="M557.84,240.47c0,.19,0,.36-.05.52-.15,1.86,0,8.16.22,15.74,1.5.2,5.86.79,7.57,1V246s-5.34-.8-5.81-1l.06,8.14,3.93.34-.11-2-2.93-.89-.08-3.54,4,.7.19,8.2-6.27-1.49,0-12,8.39,1.43,0-1.74-9-1.67Z"/><path class="cls-6" d="M566.61,258l.23.13c.84.44,3.56.56,6.77.54,0-3.06,0-12.18-.06-15.82l-5.16-1s.08,11.44,0,12.42l3.52.44-.12-8.27-.86.08-.17,6.15-1.53-.08v-8.53l3.58.29-.23,13.09-5.18-.82v-14.4l-.79-.07s0,9.84,0,15.71Z"/><path class="cls-6" d="M588.89,244.25c0-.18,0-.33,0-.47.12-1.68,0-7.37-.19-14.22-1.22-.3-5-1.2-6.46-1.54v11.11s4.62.85,5,1.05l0-7.44-3.35-.55.1,1.86,2.51,1,.07,3.26-3.46-.77-.16-7.73,5.35,1.83,0,10.86L581,241.09l0,1.66,7.76,1.5Z"/><path class="cls-6" d="M581.35,227.64l-.21-.14c-.76-.5-3.31-.9-6.43-1.21,0,3.05,0,12.13.06,15.76l5,1s-.08-11,0-12l-3.35-.7.12,8.15.83-.06.16-6,1.45.18v8.26l-3.43-.32.22-13,4.91,1.28v13.78l.71.07s0-9.38,0-15Z"/><path class="cls-6" d="M574.81,243.84c0,.19,0,.35,0,.5-.13,1.76,0,7.73.2,14.9,1.34.18,5.25.7,6.79.87V249s-4.79-.71-5.21-.9l.05,7.71,3.53.29-.11-1.88-2.62-.82-.07-3.35,3.59.63.17,7.77-5.63-1.36,0-11.35L583,247l0-1.65-8.09-1.49Z"/><path class="cls-6" d="M582.68,260.38l.21.13c.75.4,3.2.5,6.09.46,0-2.91,0-11.56-.05-15l-4.65-.92s.08,10.85,0,11.77l3.17.39-.11-7.84-.77.09-.16,5.83-1.38-.07v-8.09l3.22.25-.2,12.42-4.66-.74V245.4l-.71-.06s0,9.33,0,14.89Z"/><path class="cls-6" d="M552.37,365.51c0-.39.07-.75.09-1.06.31-3.8,0-16.16-.45-31-3.06.33-12.52,1.34-16.45,1.82l0,25.07s11.86-2.38,12.84-2.29l-.13-16.37-8.52,1.61.26,4.08,6.39,0,.18,7.15-8.84,1.41-.44-17.23,13.61-.37,0,23.88-18.62,3.78.09,3.74,19.85-4.09Z"/><path class="cls-6" d="M533.12,335.17l-.56-.16c-2-.5-8.86.73-17.46,2.68,0,7.1.09,28.25.16,36.68l13.53-2.72s-.21-25.07-.07-27.24l-9.08,1.36.33,18.75,2.27-.95.44-14,4-.9,0,18.89-9.4,2.67.61-30.3,13.31-1.28V370l1.9-.54s.11-21.26.07-33.9Z"/><path class="cls-6" d="M515.38,378.51c0,.44-.09.84-.12,1.19-.38,4.27,0,18,.56,34.49,3.71-1.19,14.31-4.6,18.37-6l0-25.16s-12.86,3.42-14,3.42l.15,17.76,9.53-3.34-.27-4.16-7.08,1.05-.2-7.65,9.66-2.41.45,17.44-15.25,3.37.05-26.37,20.24-4.86-.09-3.68-21.78,4.81Z"/><path class="cls-6" d="M536.61,407.77l.55.05c1.94.06,8.2-2.46,15.43-5.73,0-6.36-.08-25.31-.13-32.86l-11.71,2.43s.19,24.18.07,26.3l8-2.54-.28-17.2-1.94,1-.39,13.07-3.5,1.32,0-18,8.11-2.62-.5,27.55L538.5,404V373.33l-1.83.55s-.11,21.05-.07,33.56Z"/><path class="cls-6" d="M584.83,359.25c0-.35,0-.67.07-1,.25-3.41,0-14.52-.36-27.9-2.47.27-10.08,1.09-13.23,1.49v22.43s9.52-1.95,10.32-1.86l-.1-14.7-6.86,1.35.2,3.66,5.15,0,.14,6.42-7.1,1.14-.35-15.43,10.94-.2,0,21.47-15,3.07.07,3.34,16-3.31Z"/><path class="cls-6" d="M569.36,331.8a4.72,4.72,0,0,0-.45-.15c-1.61-.46-7.06.57-13.87,2.22,0,6.32.07,25.12.12,32.62l10.74-2.16s-.16-22.39,0-24.33l-7.22,1.11.26,16.7,1.8-.81.35-12.45,3.14-.76v16.85l-7.45,2.21.48-26.94,10.58-1v28l1.51-.45s.09-19,.06-30.3Z"/><path class="cls-6" d="M555.26,370.17c0,.39-.07.74-.1,1.06-.3,3.78,0,16,.45,30.67,2.93-.95,11.36-3.67,14.6-4.77V374.62S560,377.39,559,377.36l.12,15.82,7.58-2.72-.22-3.72-5.63.76-.16-6.82,7.69-1.93.36,15.59-12.12,2.57,0-23.45,16.12-3.91-.07-3.3-17.33,3.86Z"/><path class="cls-6" d="M572.15,396.79l.44.06c1.55.11,6.58-2,12.42-4.7,0-5.72-.06-22.76-.11-29.56l-9.43,2s.15,21.67,0,23.56l6.48-2.07-.23-15.45-1.57.82-.31,11.73-2.82,1.09,0-16.15,6.54-2.18-.4,24.74-9.53,2.78V366l-1.47.46s-.08,18.83-.05,30Z"/><path class="cls-6" d="M459.33,383.45c.06-.51.12-1,.16-1.38.5-4.91.06-20.82-.75-40-5.1.53-21.05,2.18-27.76,3l0,32.8s20.08-3.88,21.72-3.82l-.2-21.17-14.38,2.48.44,5.31,10.79-.39.3,9.26-14.95,2.37L434,349.43l22.94-1-.06,30.82-31.53,6.25.15,4.9,33.58-6.82Z"/><path class="cls-6" d="M426.8,345.07c-.35-.08-.67-.15-1-.19-3.47-.58-15.38,1.31-30.56,4.24.05,9.47.18,37.67.29,48.9l23.76-4.75s-.37-33-.13-35.87l-15.88,2.26.59,24.87,4-1.42.78-18.56,6.89-1.41,0,24.92-16.49,4.29L400.19,352l23.25-2.28v41.12l3.27-.86s.18-27.89.12-44.46Z"/><path class="cls-6" d="M395.78,403.53c-.08.59-.16,1.13-.21,1.6-.67,5.72-.09,24,1,45.89,6.56-2.08,25.08-8,32.07-10.28l0-33s-22.33,5.78-24.35,5.89l.25,23.56,16.64-5.56-.47-5.45-12.33,2.2L408,418.3l16.79-4.19.78,22.84-26.62,6.37.08-35.1L434.2,400l-.15-4.8-37.93,8.27Z"/><path class="cls-6" d="M432.78,439.85h.94c3.3-.16,13.9-4.2,26-9.27,0-8.2-.13-32.6-.21-42.33l-19.66,4.07s.33,31.46.11,34.23l13.55-4.17L453,400.16l-3.24,1.42-.65,17-5.91,2.08,0-23.42,13.61-4-.84,35.6L436,434.63v-40l-3.14.88s-.17,27.53-.11,43.87Z"/><path class="cls-6" d="M511.72,373.35c0-.44.09-.85.12-1.2.38-4.29.05-18.2-.57-34.93-3.89.4-16,1.68-21,2.28l0,28.42s15.17-3,16.42-2.91l-.16-18.47-10.89,2,.34,4.62,8.17-.18.22,8.07-11.3,1.8-.56-19.51,17.37-.62-.05,26.9L486,374.37l.12,4.24,25.37-5.19Z"/><path class="cls-6" d="M487.12,339.45c-.26-.07-.5-.13-.72-.17-2.59-.54-11.45,1-22.65,3.31,0,8.11.13,32.28.21,41.92L481.54,381s-.27-28.5-.09-31l-11.78,1.72.44,21.38,2.94-1.14.57-16,5.12-1.11,0,21.5-12.2,3.32.8-34.61,17.25-1.68V379l2.45-.67s.13-24.13.08-38.47Z"/><path class="cls-6" d="M464.11,389.23c-.06.51-.11,1-.15,1.37-.49,4.89-.06,20.61.73,39.38,4.83-1.54,18.58-5.94,23.81-7.68l0-28.55s-16.62,4.37-18.12,4.41l.19,20.26,12.36-4.24-.36-4.71-9.16,1.5-.27-8.71,12.5-3.12.58,19.77-19.76,4.55.06-30.11,26.18-6.22-.11-4.17-28.2,6.19Z"/><path class="cls-6" d="M491.61,421.67l.7,0c2.49,0,10.5-3.16,19.69-7.17,0-7.16-.1-28.49-.16-37l-14.92,3.1s.24,27.34.08,29.74l10.27-3.2-.37-19.38-2.46,1.15L504,403.71l-4.48,1.63,0-20.37,10.34-3.2-.64,31.06L494,417.27V382.59l-2.36.68s-.14,23.86-.09,38Z"/><path class="cls-6" d="M611.34,354.14c0-.32,0-.61.07-.87.2-3.1,0-13.2-.3-25.35-2,.22-8.3.91-10.88,1.24l0,20.29s7.81-1.63,8.46-1.53l-.08-13.35L603,335.72l.17,3.32,4.23.1.11,5.82-5.83.94-.28-14,9-.08,0,19.49-12.27,2.56,0,3,13.1-2.74Z"/><path class="cls-6" d="M598.64,329.07l-.37-.14c-1.31-.43-5.75.46-11.28,1.9,0,5.68.06,22.6.1,29.35l8.73-1.76s-.14-20.22-.05-22l-5.87.93.22,15,1.45-.69.29-11.23,2.55-.65v15.22l-6,1.86.39-24.26,8.61-.82v25.27l1.23-.38s.07-17.18,0-27.39Z"/><path class="cls-6" d="M587.16,363.49c0,.36,0,.67-.07,1-.24,3.39,0,14.42.36,27.61,2.38-.77,9.24-3,11.89-3.9l0-20.36s-8.34,2.29-9.08,2.25l.09,14.26L596.5,382l-.18-3.37-4.58.55-.13-6.15,6.26-1.57.3,14.1-9.87,2,0-21.12,13.13-3.21-.05-3-14.12,3.16Z"/><path class="cls-6" d="M600.92,387.91l.36.06c1.27.14,5.41-1.61,10.21-3.94,0-5.2,0-20.68-.08-26.85l-7.77,1.62s.13,19.62.05,21.34l5.32-1.72-.19-14-1.29.72-.25,10.62-2.32.93,0-14.64,5.39-1.86L610,382.62l-7.83,2.28V360.08l-1.2.39s-.07,17-.05,27.16Z"/><path class="cls-6" d="M633.41,349.88c0-.29,0-.56.06-.79.17-2.84,0-12.09-.26-23.23-1.7.19-6.94.77-9.09,1.06v18.52s6.53-1.39,7.08-1.29l-.07-12.22-4.72,1,.15,3,3.53.13.1,5.33-4.88.79-.24-12.76h7.53l0,17.85-10.26,2.16,0,2.75,11-2.3Z"/><path class="cls-6" d="M622.79,326.82l-.3-.13c-1.09-.4-4.78.38-9.36,1.64,0,5.17,0,20.55.08,26.69l7.24-1.46s-.12-18.43,0-20l-4.87.78.18,13.7,1.2-.61.24-10.22,2.12-.57v13.87l-5,1.61.32-22.07,7.14-.67v23l1-.32s.06-15.68,0-25Z"/><path class="cls-6" d="M613.27,358q0,.48-.06.87c-.2,3.08,0,13.11.3,25.11,2-.64,7.66-2.5,9.86-3.26V362.18s-6.93,1.93-7.54,1.87l.07,13,5.12-1.92-.14-3.08-3.81.4-.11-5.6,5.2-1.31.25,12.87L614.22,380l0-19.21,10.91-2.7,0-2.72L613.38,358Z"/><path class="cls-6" d="M624.7,380.56l.29.07c1.07.16,4.52-1.34,8.55-3.36,0-4.76,0-18.95-.07-24.6L627,354s.11,17.94,0,19.5l4.46-1.45-.16-12.85-1.08.63-.21,9.72-2,.8V357l4.51-1.62L632.28,376l-6.55,1.9V355.17l-1,.34s-.05,15.56,0,24.8Z"/></g></g></svg>