<svg xmlns="http://www.w3.org/2000/svg" viewBox="0 0 792 612"><defs><style>.cls-1{fill:#fff;}.cls-2{fill:aqua;}.cls-3{fill:red;}</style></defs><title>Team Logo</title><g id="Not_Found" data-name="Not Found"><polygon class="cls-1" points="100.53 470.39 116.39 470.39 116.39 446.99 100.53 447 100.53 470.39"/><path class="cls-1" d="M131.6,447c1,1.14,1.94,2.28,2.88,3.44q8,9.87,14.94,20h13.49V447Z"/><path class="cls-1" d="M167.91,411.48H152v34.77q-3.72-4.59-7.93-9.57t-8.5-9.6q-4.28-4.63-8.39-8.71t-7.52-6.89H106.53V447h15.86V431.8Q129.85,439,136.6,447l31.31,0Z"/><path class="cls-1" d="M194.27,440.89a22.56,22.56,0,0,1,1.29-7.78,16.4,16.4,0,0,1,9.63-9.94,21.35,21.35,0,0,1,8-1.4,22.17,22.17,0,0,1,8,1.36,16.26,16.26,0,0,1,6,3.86,17.1,17.1,0,0,1,3.71,6,23,23,0,0,1,1.28,7.86,23.8,23.8,0,0,1-.72,6h16.82a35.93,35.93,0,0,0,.48-6,30.06,30.06,0,0,0-2.78-13.3,27.75,27.75,0,0,0-7.62-9.65A33,33,0,0,0,227,412.08a47.31,47.31,0,0,0-13.8-2,46.14,46.14,0,0,0-13.54,2,33.61,33.61,0,0,0-11.33,5.86,28.62,28.62,0,0,0-7.77,9.65,29.14,29.14,0,0,0-2.89,13.3,35.42,35.42,0,0,0,.51,6.05H195A24,24,0,0,1,194.27,440.89Z"/><path class="cls-1" d="M226.45,446.9c-.16.62-.35,1.23-.56,1.81a17,17,0,0,1-3.71,6,16.15,16.15,0,0,1-6,3.87,24.27,24.27,0,0,1-16,0,16.12,16.12,0,0,1-5.92-3.87,16.84,16.84,0,0,1-3.71-6c-.21-.57-.4-1.17-.56-1.78H173.2a27.06,27.06,0,0,0,2.27,7.25,27.56,27.56,0,0,0,7.62,9.61,33.33,33.33,0,0,0,11.33,5.82,47.75,47.75,0,0,0,13.8,2,49,49,0,0,0,14.06-2,32.11,32.11,0,0,0,11.28-5.82,27.26,27.26,0,0,0,7.46-9.61,27.65,27.65,0,0,0,2.25-7.3Z"/><polygon class="cls-1" points="287.58 422.79 309.1 422.79 309.1 411.48 249.99 411.48 249.99 422.79 271.51 422.79 271.51 446.87 287.58 446.86 287.58 422.79"/><polygon class="cls-1" points="266.51 446.87 266.51 470.39 282.58 470.39 282.58 446.86 266.51 446.87"/><polygon class="cls-1" points="352.98 446.08 381.19 446.08 381.19 434.94 352.98 434.94 352.98 422.62 384.7 422.62 384.7 411.48 336.91 411.48 336.91 446.82 352.98 446.81 352.98 446.08"/><polygon class="cls-1" points="331.91 446.82 331.91 470.39 347.98 470.39 347.98 446.81 331.91 446.82"/><path class="cls-1" d="M437.3,446.74a19.65,19.65,0,0,1-.6,2,17,17,0,0,1-3.71,6,16,16,0,0,1-6,3.87,24.27,24.27,0,0,1-16,0,16.12,16.12,0,0,1-5.92-3.87,17,17,0,0,1-3.71-6,19.06,19.06,0,0,1-.59-1.94H384a27,27,0,0,0,2.31,7.41,27.33,27.33,0,0,0,7.62,9.61,33.15,33.15,0,0,0,11.33,5.82,47.65,47.65,0,0,0,13.8,2,48.93,48.93,0,0,0,14-2,32.11,32.11,0,0,0,11.28-5.82,27.5,27.5,0,0,0,9.74-17.07Z"/><path class="cls-1" d="M405.09,440.89a22.56,22.56,0,0,1,1.28-7.78,17,17,0,0,1,3.71-6,16.73,16.73,0,0,1,5.92-3.91,21.4,21.4,0,0,1,8-1.4,22.12,22.12,0,0,1,8,1.36,16.09,16.09,0,0,1,6,3.86,17.1,17.1,0,0,1,3.71,6,22.74,22.74,0,0,1,1.29,7.86,24.06,24.06,0,0,1-.69,5.85h16.81a36.38,36.38,0,0,0,.46-5.84,30.19,30.19,0,0,0-2.78-13.3,28,28,0,0,0-7.62-9.65,33.06,33.06,0,0,0-11.33-5.86,47.41,47.41,0,0,0-13.8-2,46.16,46.16,0,0,0-13.55,2,33.47,33.47,0,0,0-11.32,5.86,28.53,28.53,0,0,0-7.78,9.65,29.26,29.26,0,0,0-2.88,13.3,35.77,35.77,0,0,0,.47,5.89h16.8A23.82,23.82,0,0,1,405.09,440.89Z"/><polygon class="cls-1" points="484.39 411.48 468.32 411.48 468.32 446.73 484.39 446.71 484.39 411.48"/><polygon class="cls-1" points="526.71 411.48 510.65 411.48 510.65 446.69 526.71 446.68 526.71 411.48"/><path class="cls-1" d="M505.65,446.69V447q0,7.14-3.66,10.12a14.63,14.63,0,0,1-9.52,3,19.29,19.29,0,0,1-5.31-.68,9.91,9.91,0,0,1-4.12-2.25,10.82,10.82,0,0,1-2.67-4.08,16.59,16.59,0,0,1-1-6.08v-.3H463.32v1.4a25.57,25.57,0,0,0,1.7,9.47,18.89,18.89,0,0,0,5.25,7.4,25.06,25.06,0,0,0,9,4.84,42.64,42.64,0,0,0,13,1.75,45.46,45.46,0,0,0,13.18-1.7,25.24,25.24,0,0,0,9.17-4.81,19.12,19.12,0,0,0,5.35-7.43,25.16,25.16,0,0,0,1.75-9.52v-1.44Z"/><polygon class="cls-1" points="533.56 470.39 549.42 470.39 549.42 446.66 533.56 446.67 533.56 470.39"/><path class="cls-1" d="M599.94,411.48H584v34.77q-3.71-4.59-7.93-9.57t-8.49-9.6q-4.27-4.63-8.4-8.71t-7.51-6.89H538.56v35.19h15.86V431.8q7.3,7.05,13.93,14.85l31.59,0Z"/><path class="cls-1" d="M563.35,446.65c1.07,1.24,2.13,2.49,3.16,3.76q8,9.87,14.94,20h13.49V446.63Z"/><path class="cls-1" d="M653,446.58a16.05,16.05,0,0,1-5.1,8.17q-5.82,5-17.87,5c-1.37,0-2.55,0-3.55,0s-1.87-.07-2.62-.13v-13l-16.07,0v23a95.75,95.75,0,0,0,11.33,1.23c3.84.2,7.21.3,10.09.3a71.71,71.71,0,0,0,17.1-1.87,37.63,37.63,0,0,0,12.92-5.61,25.44,25.44,0,0,0,8.19-9.43,26.41,26.41,0,0,0,2.44-7.67Z"/><path class="cls-1" d="M628.88,422.36c1-.11,2.12-.18,3.29-.21s2.3,0,3.4,0q12,0,17.61,4.76t5.56,14a21.72,21.72,0,0,1-.72,5.69h16.86a35.65,35.65,0,0,0,.44-5.68,30,30,0,0,0-2.88-13.68,24.55,24.55,0,0,0-8.24-9.35,37.18,37.18,0,0,0-12.82-5.36,75.26,75.26,0,0,0-16.63-1.7q-4.34,0-10.35.3a113.42,113.42,0,0,0-11.59,1.15v34.37l16.07,0Z"/></g><g id="_404" data-name="404"><path class="cls-2" d="M267.16,311.56H246.44V255H205.56v56.52h-44a213.66,213.66,0,0,1,20.72-34.44q8.55-11.65,16.41-22.08H158.09l-.27.38q-11.34,16.38-20.58,31.92t-15.4,27.86V317H267.16Z"/><path class="cls-2" d="M246.44,212.72H190.62q-4.43,5.13-8.86,10.64-4.8,6-9.41,12.08h74.09Z"/><polygon class="cls-2" points="246.44 345.72 267.16 345.72 267.16 324.79 121.84 324.79 121.84 345.72 205.56 345.72 205.56 355.17 246.44 355.17 246.44 345.72"/><path class="cls-2" d="M246.44,195.08H207q-5.28,5.28-10.57,11.13h50.05Z"/><rect class="cls-2" x="205.56" y="381.15" width="40.88" height="7.97"/><rect class="cls-2" x="205.56" y="360.15" width="40.88" height="11.05"/><path class="cls-2" d="M412,265.22a228.72,228.72,0,0,1,1.4,26.46A233.54,233.54,0,0,1,412.18,317h42.38A210.69,210.69,0,0,0,456,291.68,190.23,190.23,0,0,0,452.76,255H410.41Q411.4,259.79,412,265.22Z"/><path class="cls-2" d="M407.56,339q-3.07,8.69-8.4,13.44a18.23,18.23,0,0,1-4,2.73h49.08a114,114,0,0,0,9.24-30.38H411.11A85.66,85.66,0,0,1,407.56,339Z"/><path class="cls-2" d="M386,393q22.06,0,37.71-11.89H348.29Q364,393,386,393Z"/><path class="cls-2" d="M441.63,360.15H330.37a76.48,76.48,0,0,0,4.25,6.71c1.08,1.52,2.21,2.95,3.37,4.34h96c1.16-1.39,2.29-2.82,3.37-4.34A74.2,74.2,0,0,0,441.63,360.15Z"/><path class="cls-2" d="M358.56,291.68a228.72,228.72,0,0,1,1.4-26.46c.43-3.62,1-7,1.66-10.18H319.41A181.37,181.37,0,0,0,316,291.68,210.69,210.69,0,0,0,317.44,317h42.38A233.54,233.54,0,0,1,358.56,291.68Z"/><path class="cls-2" d="M373,352.44q-5.18-4.76-8.4-13.44a80.58,80.58,0,0,1-3.68-14.21H318.55a114.39,114.39,0,0,0,9.24,30.38h49.14A17.54,17.54,0,0,1,373,352.44Z"/><path class="cls-2" d="M386,190.6a61.41,61.41,0,0,0-28.84,6.72,59.34,59.34,0,0,0-12.63,8.89h83.59Q411.26,190.63,386,190.6Z"/><path class="cls-2" d="M325.14,235.44h44.15A26.87,26.87,0,0,1,373,231.2a18.51,18.51,0,0,1,13-4.76,19,19,0,0,1,13.16,4.76,25.71,25.71,0,0,1,3.75,4.24h44.32a83.71,83.71,0,0,0-9.85-18.66c-1-1.42-2.06-2.76-3.13-4.06H338.32c-1.12,1.35-2.23,2.73-3.28,4.2A84.93,84.93,0,0,0,325.14,235.44Z"/><path class="cls-2" d="M586,311.56h-44a212.94,212.94,0,0,1,20.72-34.44q8.54-11.65,16.41-22.08H538.57l-.27.38Q527,271.8,517.72,287.34t-15.4,27.86V317H647.64v-5.41H626.92V255H586Z"/><path class="cls-2" d="M626.92,195.08H587.44q-5.28,5.28-10.57,11.13h50Z"/><rect class="cls-2" x="586.04" y="381.15" width="40.88" height="7.97"/><polygon class="cls-2" points="502.32 345.72 586.04 345.72 586.04 355.17 626.92 355.17 626.92 345.72 647.64 345.72 647.64 324.79 502.32 324.79 502.32 345.72"/><path class="cls-2" d="M571.1,212.72q-4.43,5.13-8.86,10.64c-3.21,4-6.33,8-9.41,12.08h74.09V212.72Z"/><rect class="cls-2" x="586.04" y="360.15" width="40.88" height="11.05"/><path class="cls-3" d="M287.16,311.56H266.44V255H225.56v56.52h-44a213.66,213.66,0,0,1,20.72-34.44q8.55-11.65,16.41-22.08H178.09l-.27.38q-11.34,16.38-20.58,31.92t-15.4,27.86V317H287.16Z"/><path class="cls-3" d="M266.44,212.72H210.62q-4.43,5.13-8.86,10.64-4.8,6-9.41,12.08h74.09Z"/><polygon class="cls-3" points="266.44 345.72 287.16 345.72 287.16 324.79 141.84 324.79 141.84 345.72 225.56 345.72 225.56 355.17 266.44 355.17 266.44 345.72"/><path class="cls-3" d="M266.44,195.08H227q-5.28,5.28-10.57,11.13h50.05Z"/><rect class="cls-3" x="225.56" y="381.15" width="40.88" height="7.97"/><rect class="cls-3" x="225.56" y="360.15" width="40.88" height="11.05"/><path class="cls-3" d="M432,265.22a228.72,228.72,0,0,1,1.4,26.46A233.54,233.54,0,0,1,432.18,317h42.38A210.69,210.69,0,0,0,476,291.68,190.23,190.23,0,0,0,472.76,255H430.41Q431.4,259.79,432,265.22Z"/><path class="cls-3" d="M427.56,339q-3.07,8.69-8.4,13.44a18.23,18.23,0,0,1-4,2.73h49.08a114,114,0,0,0,9.24-30.38H431.11A85.66,85.66,0,0,1,427.56,339Z"/><path class="cls-3" d="M406,393q22.06,0,37.71-11.89H368.29Q384,393,406,393Z"/><path class="cls-3" d="M461.63,360.15H350.37a76.48,76.48,0,0,0,4.25,6.71c1.08,1.52,2.21,2.95,3.37,4.34h96c1.16-1.39,2.29-2.82,3.37-4.34A74.2,74.2,0,0,0,461.63,360.15Z"/><path class="cls-3" d="M378.56,291.68a228.72,228.72,0,0,1,1.4-26.46c.43-3.62,1-7,1.66-10.18H339.41A181.37,181.37,0,0,0,336,291.68,210.69,210.69,0,0,0,337.44,317h42.38A233.54,233.54,0,0,1,378.56,291.68Z"/><path class="cls-3" d="M393,352.44q-5.18-4.76-8.4-13.44a80.58,80.58,0,0,1-3.68-14.21H338.55a114.39,114.39,0,0,0,9.24,30.38h49.14A17.54,17.54,0,0,1,393,352.44Z"/><path class="cls-3" d="M406,190.6a61.41,61.41,0,0,0-28.84,6.72,59.34,59.34,0,0,0-12.63,8.89h83.59Q431.26,190.63,406,190.6Z"/><path class="cls-3" d="M345.14,235.44h44.15A26.87,26.87,0,0,1,393,231.2a18.51,18.51,0,0,1,13-4.76,19,19,0,0,1,13.16,4.76,25.71,25.71,0,0,1,3.75,4.24h44.32a83.71,83.71,0,0,0-9.85-18.66c-1-1.42-2.06-2.76-3.13-4.06H358.32c-1.12,1.35-2.23,2.73-3.28,4.2A84.93,84.93,0,0,0,345.14,235.44Z"/><path class="cls-3" d="M606,311.56h-44a212.94,212.94,0,0,1,20.72-34.44q8.54-11.65,16.41-22.08H558.57l-.27.38Q547,271.8,537.72,287.34t-15.4,27.86V317H667.64v-5.41H646.92V255H606Z"/><path class="cls-3" d="M646.92,195.08H607.44q-5.28,5.28-10.57,11.13h50Z"/><rect class="cls-3" x="606.04" y="381.15" width="40.88" height="7.97"/><polygon class="cls-3" points="522.32 345.72 606.04 345.72 606.04 355.17 646.92 355.17 646.92 345.72 667.64 345.72 667.64 324.79 522.32 324.79 522.32 345.72"/><path class="cls-3" d="M591.1,212.72q-4.43,5.13-8.86,10.64c-3.21,4-6.33,8-9.41,12.08h74.09V212.72Z"/><rect class="cls-3" x="606.04" y="360.15" width="40.88" height="11.05"/><path class="cls-1" d="M277.16,311.56H256.44V255H215.56v56.52h-44a213.66,213.66,0,0,1,20.72-34.44q8.55-11.65,16.41-22.08H168.09l-.27.38q-11.34,16.38-20.58,31.92t-15.4,27.86V317H277.16Z"/><path class="cls-1" d="M256.44,212.72H200.62q-4.43,5.13-8.86,10.64-4.8,6-9.41,12.08h74.09Z"/><polygon class="cls-1" points="256.44 345.72 277.16 345.72 277.16 324.79 131.84 324.79 131.84 345.72 215.56 345.72 215.56 355.17 256.44 355.17 256.44 345.72"/><path class="cls-1" d="M256.44,195.08H217q-5.28,5.28-10.57,11.13h50.05Z"/><rect class="cls-1" x="215.56" y="381.15" width="40.88" height="7.97"/><rect class="cls-1" x="215.56" y="360.15" width="40.88" height="11.05"/><path class="cls-1" d="M422,265.22a228.72,228.72,0,0,1,1.4,26.46A233.54,233.54,0,0,1,422.18,317h42.38A210.69,210.69,0,0,0,466,291.68,190.23,190.23,0,0,0,462.76,255H420.41Q421.4,259.79,422,265.22Z"/><path class="cls-1" d="M417.56,339q-3.07,8.69-8.4,13.44a18.23,18.23,0,0,1-4,2.73h49.08a114,114,0,0,0,9.24-30.38H421.11A85.66,85.66,0,0,1,417.56,339Z"/><path class="cls-1" d="M396,393q22.06,0,37.71-11.89H358.29Q374,393,396,393Z"/><path class="cls-1" d="M451.63,360.15H340.37a76.48,76.48,0,0,0,4.25,6.71c1.08,1.52,2.21,2.95,3.37,4.34h96c1.16-1.39,2.29-2.82,3.37-4.34A74.2,74.2,0,0,0,451.63,360.15Z"/><path class="cls-1" d="M368.56,291.68a228.72,228.72,0,0,1,1.4-26.46c.43-3.62,1-7,1.66-10.18H329.41A181.37,181.37,0,0,0,326,291.68,210.69,210.69,0,0,0,327.44,317h42.38A233.54,233.54,0,0,1,368.56,291.68Z"/><path class="cls-1" d="M383,352.44q-5.18-4.76-8.4-13.44a80.58,80.58,0,0,1-3.68-14.21H328.55a114.39,114.39,0,0,0,9.24,30.38h49.14A17.54,17.54,0,0,1,383,352.44Z"/><path class="cls-1" d="M396,190.6a61.41,61.41,0,0,0-28.84,6.72,59.34,59.34,0,0,0-12.63,8.89h83.59Q421.26,190.63,396,190.6Z"/><path class="cls-1" d="M335.14,235.44h44.15A26.87,26.87,0,0,1,383,231.2a18.51,18.51,0,0,1,13-4.76,19,19,0,0,1,13.16,4.76,25.71,25.71,0,0,1,3.75,4.24h44.32a83.71,83.71,0,0,0-9.85-18.66c-1-1.42-2.06-2.76-3.13-4.06H348.32c-1.12,1.35-2.23,2.73-3.28,4.2A84.93,84.93,0,0,0,335.14,235.44Z"/><path class="cls-1" d="M596,311.56h-44a212.94,212.94,0,0,1,20.72-34.44q8.54-11.65,16.41-22.08H548.57l-.27.38Q537,271.8,527.72,287.34t-15.4,27.86V317H657.64v-5.41H636.92V255H596Z"/><path class="cls-1" d="M636.92,195.08H597.44q-5.28,5.28-10.57,11.13h50Z"/><rect class="cls-1" x="596.04" y="381.15" width="40.88" height="7.97"/><polygon class="cls-1" points="512.32 345.72 596.04 345.72 596.04 355.17 636.92 355.17 636.92 345.72 657.64 345.72 657.64 324.79 512.32 324.79 512.32 345.72"/><path class="cls-1" d="M581.1,212.72q-4.43,5.13-8.86,10.64c-3.21,4-6.33,8-9.41,12.08h74.09V212.72Z"/><rect class="cls-1" x="596.04" y="360.15" width="40.88" height="11.05"/><path class="cls-2" d="M216.44,206.21H166.39c-1.92,2.12-3.84,4.28-5.77,6.51h55.82Z"/><path class="cls-2" d="M308.32,212.72h95.93a65.7,65.7,0,0,0-6.13-6.51H314.53A65.15,65.15,0,0,0,308.32,212.72Z"/><path class="cls-2" d="M596.92,212.72v-6.51h-50c-1.93,2.12-3.85,4.28-5.77,6.51Z"/><path class="cls-3" d="M236.44,206.21H186.39c-1.92,2.12-3.84,4.28-5.77,6.51h55.82Z"/><path class="cls-3" d="M328.32,212.72h95.93a65.7,65.7,0,0,0-6.13-6.51H334.53A65.15,65.15,0,0,0,328.32,212.72Z"/><path class="cls-3" d="M616.92,212.72v-6.51h-50c-1.93,2.12-3.85,4.28-5.77,6.51Z"/><path class="cls-1" d="M226.44,206.21H176.39c-1.92,2.12-3.84,4.28-5.77,6.51h55.82Z"/><path class="cls-1" d="M318.32,212.72h95.93a65.7,65.7,0,0,0-6.13-6.51H324.53A65.15,65.15,0,0,0,318.32,212.72Z"/><path class="cls-1" d="M606.92,212.72v-6.51h-50c-1.93,2.12-3.85,4.28-5.77,6.51Z"/><path class="cls-2" d="M215.56,246v9h40.88v-19.6H182.35Q175,245.11,168.09,255h40.64Q212.21,250.42,215.56,246Z"/><path class="cls-2" d="M374.58,244.64a39.81,39.81,0,0,1,4.71-9.2H335.14a116,116,0,0,0-4.24,13.12c-.55,2.1-1,4.27-1.49,6.48h42.21A75.14,75.14,0,0,1,374.58,244.64Z"/><path class="cls-2" d="M417.56,244.64a79.94,79.94,0,0,1,2.85,10.4h42.35a119.07,119.07,0,0,0-5.53-19.6H412.91A37.18,37.18,0,0,1,417.56,244.64Z"/><path class="cls-2" d="M548.57,255h40.64q3.48-4.62,6.83-9v9h40.88v-19.6H562.83Q555.46,245.11,548.57,255Z"/><path class="cls-3" d="M235.56,246v9h40.88v-19.6H202.35Q195,245.11,188.09,255h40.64Q232.21,250.42,235.56,246Z"/><path class="cls-3" d="M394.58,244.64a39.81,39.81,0,0,1,4.71-9.2H355.14a116,116,0,0,0-4.24,13.12c-.55,2.1-1,4.27-1.49,6.48h42.21A75.14,75.14,0,0,1,394.58,244.64Z"/><path class="cls-3" d="M437.56,244.64a79.94,79.94,0,0,1,2.85,10.4h42.35a119.07,119.07,0,0,0-5.53-19.6H432.91A37.18,37.18,0,0,1,437.56,244.64Z"/><path class="cls-3" d="M568.57,255h40.64q3.48-4.62,6.83-9v9h40.88v-19.6H582.83Q575.46,245.11,568.57,255Z"/><path class="cls-1" d="M225.56,246v9h40.88v-19.6H192.35Q185,245.11,178.09,255h40.64Q222.21,250.42,225.56,246Z"/><path class="cls-1" d="M384.58,244.64a39.81,39.81,0,0,1,4.71-9.2H345.14a116,116,0,0,0-4.24,13.12c-.55,2.1-1,4.27-1.49,6.48h42.21A75.14,75.14,0,0,1,384.58,244.64Z"/><path class="cls-1" d="M427.56,244.64a79.94,79.94,0,0,1,2.85,10.4h42.35a119.07,119.07,0,0,0-5.53-19.6H422.91A37.18,37.18,0,0,1,427.56,244.64Z"/><path class="cls-1" d="M558.57,255h40.64q3.48-4.62,6.83-9v9h40.88v-19.6H572.83Q565.46,245.11,558.57,255Z"/><rect class="cls-2" x="101.84" y="316.97" width="145.32" height="7.82"/><path class="cls-2" d="M340,318.28c0-.43-.09-.87-.14-1.31H297.44c.32,2.67.68,5.29,1.11,7.82H340.9C340.54,322.71,340.22,320.54,340,318.28Z"/><path class="cls-2" d="M392,318.28c-.26,2.26-.58,4.43-.93,6.51h42.34c.43-2.53.79-5.15,1.11-7.82H392.18C392.13,317.41,392.09,317.85,392,318.28Z"/><rect class="cls-2" x="482.32" y="316.97" width="145.32" height="7.82"/><rect class="cls-3" x="121.84" y="316.97" width="145.32" height="7.82"/><path class="cls-3" d="M360,318.28c0-.43-.09-.87-.14-1.31H317.44c.32,2.67.68,5.29,1.11,7.82H360.9C360.54,322.71,360.22,320.54,360,318.28Z"/><path class="cls-3" d="M412,318.28c-.26,2.26-.58,4.43-.93,6.51h42.34c.43-2.53.79-5.15,1.11-7.82H412.18C412.13,317.41,412.09,317.85,412,318.28Z"/><rect class="cls-3" x="502.32" y="316.97" width="145.32" height="7.82"/><rect class="cls-1" x="111.84" y="316.97" width="145.32" height="7.82"/><path class="cls-1" d="M350,318.28c0-.43-.09-.87-.14-1.31H307.44c.32,2.67.68,5.29,1.11,7.82H350.9C350.54,322.71,350.22,320.54,350,318.28Z"/><path class="cls-1" d="M402,318.28c-.26,2.26-.58,4.43-.93,6.51h42.34c.43-2.53.79-5.15,1.11-7.82H402.18C402.13,317.41,402.09,317.85,402,318.28Z"/><rect class="cls-1" x="492.32" y="316.97" width="145.32" height="7.82"/><rect class="cls-2" x="185.56" y="371.2" width="40.88" height="9.95"/><path class="cls-2" d="M414,371.2H318a63.07,63.07,0,0,0,10.3,9.95h75.42A63.07,63.07,0,0,0,414,371.2Z"/><rect class="cls-2" x="566.04" y="371.2" width="40.88" height="9.95"/><rect class="cls-3" x="205.56" y="371.2" width="40.88" height="9.95"/><path class="cls-3" d="M434,371.2H338a63.07,63.07,0,0,0,10.3,9.95h75.42A63.07,63.07,0,0,0,434,371.2Z"/><rect class="cls-3" x="586.04" y="371.2" width="40.88" height="9.95"/><rect class="cls-1" x="195.56" y="371.2" width="40.88" height="9.95"/><path class="cls-1" d="M424,371.2H328a63.07,63.07,0,0,0,10.3,9.95h75.42A63.07,63.07,0,0,0,424,371.2Z"/><rect class="cls-1" x="576.04" y="371.2" width="40.88" height="9.95"/><rect class="cls-2" x="235.56" y="355.17" width="40.88" height="4.97"/><path class="cls-2" d="M416,357.2a19.69,19.69,0,0,1-9.07-2H357.79c.82,1.71,1.67,3.38,2.58,5H471.63c.91-1.6,1.76-3.27,2.58-5H425.13A20.07,20.07,0,0,1,416,357.2Z"/><rect class="cls-2" x="616.04" y="355.17" width="40.88" height="4.97"/><rect class="cls-3" x="255.56" y="355.17" width="40.88" height="4.97"/><path class="cls-3" d="M436,357.2a19.69,19.69,0,0,1-9.07-2H377.79c.82,1.71,1.67,3.38,2.58,5H491.63c.91-1.6,1.76-3.27,2.58-5H445.13A20.07,20.07,0,0,1,436,357.2Z"/><rect class="cls-3" x="636.04" y="355.17" width="40.88" height="4.97"/><rect class="cls-1" x="245.56" y="355.17" width="40.88" height="4.97"/><path class="cls-1" d="M426,357.2a19.69,19.69,0,0,1-9.07-2H367.79c.82,1.71,1.67,3.38,2.58,5H481.63c.91-1.6,1.76-3.27,2.58-5H435.13A20.07,20.07,0,0,1,426,357.2Z"/><rect class="cls-1" x="626.04" y="355.17" width="40.88" height="4.97"/><path class="cls-1" d="M256.44,345.72h20.72V324.79h-20V317h20v-5.41H256.44V255h10v-19.6h-10V212.72h-30v-6.51h30V195.08H217q-5.28,5.28-10.57,11.13h-30c-1.92,2.12-3.84,4.28-5.77,6.51h30q-4.43,5.13-8.86,10.64-4.8,6-9.41,12.08h10Q185,245.11,178.09,255h-10l-.27.38q-11.34,16.38-20.58,31.92t-15.4,27.86V317h-20v7.82h20v20.93h83.72v9.45h30v5h-30V371.2h-20v9.95h20v8h40.88v-8h-20V371.2h20V360.15h30v-5h-30ZM218.73,255q3.48-4.62,6.83-9v9Zm-26.41,22.08q8.55-11.65,16.41-22.08h6.83v56.52h-44A213.66,213.66,0,0,1,192.32,277.12Z"/><path class="cls-1" d="M463.45,324.79h-20c.43-2.53.79-5.15,1.11-7.82h20A210.69,210.69,0,0,0,466,291.68,190.23,190.23,0,0,0,462.76,255h10a119.07,119.07,0,0,0-5.53-19.6h-10a83.71,83.71,0,0,0-9.85-18.66c-1-1.42-2.06-2.76-3.13-4.06h-30a65.7,65.7,0,0,0-6.13-6.51h30Q421.26,190.63,396,190.6a61.41,61.41,0,0,0-28.84,6.72,59.34,59.34,0,0,0-12.63,8.89h-30a65.15,65.15,0,0,0-6.21,6.51h30c-1.12,1.35-2.23,2.73-3.28,4.2a84.93,84.93,0,0,0-9.9,18.52h10a116,116,0,0,0-4.24,13.12c-.55,2.1-1,4.27-1.49,6.48h-10A181.37,181.37,0,0,0,326,291.68,210.69,210.69,0,0,0,327.44,317h-20c.32,2.67.68,5.29,1.11,7.82h20a114.39,114.39,0,0,0,9.24,30.38h30c.82,1.71,1.67,3.38,2.58,5h-30a76.48,76.48,0,0,0,4.25,6.71c1.08,1.52,2.21,2.95,3.37,4.34H328a63.07,63.07,0,0,0,10.3,9.95h20Q374,393,396,393t37.71-11.89h-20A63.07,63.07,0,0,0,424,371.2h20c1.16-1.39,2.29-2.82,3.37-4.34a74.2,74.2,0,0,0,4.25-6.71h30c.91-1.6,1.76-3.27,2.58-5h-30A114,114,0,0,0,463.45,324.79ZM383,352.44q-5.18-4.76-8.4-13.44a80.58,80.58,0,0,1-3.68-14.21h-20c-.36-2.08-.68-4.25-.94-6.51,0-.43-.09-.87-.14-1.31h20a233.54,233.54,0,0,1-1.26-25.29,228.72,228.72,0,0,1,1.4-26.46c.43-3.62,1-7,1.66-10.18h10a75.14,75.14,0,0,1,3-10.4,39.81,39.81,0,0,1,4.71-9.2h-10A26.87,26.87,0,0,1,383,231.2a18.51,18.51,0,0,1,13-4.76,19,19,0,0,1,13.16,4.76,25.71,25.71,0,0,1,3.75,4.24h10a37.18,37.18,0,0,1,4.65,9.2,79.94,79.94,0,0,1,2.85,10.4h-10q1,4.75,1.63,10.18a228.72,228.72,0,0,1,1.4,26.46A233.54,233.54,0,0,1,422.18,317h-20c-.05.44-.09.88-.14,1.31-.26,2.26-.58,4.43-.93,6.51h20A85.66,85.66,0,0,1,417.56,339q-3.07,8.69-8.4,13.44a18.23,18.23,0,0,1-4,2.73h-18.2A17.54,17.54,0,0,1,383,352.44Zm43,4.76a19.69,19.69,0,0,1-9.07-2h18.2A20.07,20.07,0,0,1,426,357.2Z"/><path class="cls-1" d="M636.92,355.17v-9.45h20.72V324.79h-20V317h20v-5.41H636.92V255h10v-19.6h-10V212.72h-30v-6.51h30V195.08H597.44q-5.28,5.28-10.57,11.13h-30c-1.93,2.12-3.85,4.28-5.77,6.51h30q-4.43,5.13-8.86,10.64c-3.21,4-6.33,8-9.41,12.08h10q-7.37,9.67-14.26,19.6h-10l-.27.38Q537,271.8,527.72,287.34t-15.4,27.86V317h-20v7.82h20v20.93H596v9.45h30v5H596V371.2H576v9.95h20v8h40.88v-8h-20V371.2h20V360.15h30v-5ZM599.21,255q3.48-4.62,6.83-9v9ZM572.8,277.12q8.54-11.65,16.41-22.08H596v56.52h-44A212.94,212.94,0,0,1,572.8,277.12Z"/></g></svg>